<?xml version="1.0" encoding="UTF-8" standalone="no"?>
<!-- Created with Inkscape (http://www.inkscape.org/) -->

<svg
   xmlns:dc="http://purl.org/dc/elements/1.1/"
   xmlns:cc="http://creativecommons.org/ns#"
   xmlns:rdf="http://www.w3.org/1999/02/22-rdf-syntax-ns#"
   xmlns:svg="http://www.w3.org/2000/svg"
   xmlns="http://www.w3.org/2000/svg"
   xmlns:xlink="http://www.w3.org/1999/xlink"
   xmlns:sodipodi="http://sodipodi.sourceforge.net/DTD/sodipodi-0.dtd"
   xmlns:inkscape="http://www.inkscape.org/namespaces/inkscape"
   width="210mm"
   height="297mm"
   viewBox="0 0 744.09448819 1052.3622047"
   id="svg2"
   version="1.1"
   inkscape:version="0.91 r13725"
   sodipodi:docname="MIMO.svg">
  <sodipodi:namedview
     id="base"
     pagecolor="#ffffff"
     bordercolor="#666666"
     borderopacity="1.0"
     inkscape:pageopacity="0.0"
     inkscape:pageshadow="2"
     inkscape:zoom="2.1500609"
     inkscape:cx="186.86713"
     inkscape:cy="850.67959"
     inkscape:document-units="px"
     inkscape:current-layer="layer1"
     showgrid="true"
     inkscape:window-width="1662"
     inkscape:window-height="1451"
     inkscape:window-x="639"
     inkscape:window-y="472"
     inkscape:window-maximized="0"
     inkscape:snap-global="false"
     showguides="false">
    <inkscape:grid
       id="grid8464"
       type="xygrid" />
  </sodipodi:namedview>
  <defs
     id="defs4">
    <marker
       inkscape:isstock="true"
       style="overflow:visible;"
       id="Arrow1Mend"
       refX="0.0"
       refY="0.0"
       orient="auto"
       inkscape:stockid="Arrow1Mend">
      <path
         transform="scale(0.4) rotate(180) translate(10,0)"
         style="fill-rule:evenodd;stroke:#000000;stroke-width:1pt;stroke-opacity:1;fill:#000000;fill-opacity:1"
         d="M 0.0,0.0 L 5.0,-5.0 L -12.5,0.0 L 5.0,5.0 L 0.0,0.0 z "
         id="path8489" />
    </marker>
    <marker
       inkscape:isstock="true"
       style="overflow:visible;"
       id="Arrow1Send"
       refX="0.0"
       refY="0.0"
       orient="auto"
       inkscape:stockid="Arrow1Send">
      <path
         transform="scale(0.2) rotate(180) translate(6,0)"
         style="fill-rule:evenodd;stroke:#000000;stroke-width:1pt;stroke-opacity:1;fill:#000000;fill-opacity:1"
         d="M 0.0,0.0 L 5.0,-5.0 L -12.5,0.0 L 5.0,5.0 L 0.0,0.0 z "
         id="path8495" />
    </marker>
    <marker
       inkscape:isstock="true"
       style="overflow:visible;"
       id="Arrow1Lend"
       refX="0.0"
       refY="0.0"
       orient="auto"
       inkscape:stockid="Arrow1Lend">
      <path
         transform="scale(0.8) rotate(180) translate(12.5,0)"
         style="fill-rule:evenodd;stroke:#000000;stroke-width:1pt;stroke-opacity:1;fill:#000000;fill-opacity:1"
         d="M 0.0,0.0 L 5.0,-5.0 L -12.5,0.0 L 5.0,5.0 L 0.0,0.0 z "
         id="path8483" />
    </marker>
    <marker
       inkscape:isstock="true"
       style="overflow:visible"
       id="Arrow1Mend-0"
       refX="0"
       refY="0"
       orient="auto"
       inkscape:stockid="Arrow1Mend">
      <path
         transform="matrix(-0.4,0,0,-0.4,-4,0)"
         style="fill:#000000;fill-opacity:1;fill-rule:evenodd;stroke:#000000;stroke-width:1pt;stroke-opacity:1"
         d="M 0,0 5,-5 -12.5,0 5,5 0,0 Z"
         id="path8489-1"
         inkscape:connector-curvature="0" />
    </marker>
    <marker
       inkscape:isstock="true"
       style="overflow:visible"
       id="Arrow1Mend-09"
       refX="0"
       refY="0"
       orient="auto"
       inkscape:stockid="Arrow1Mend">
      <path
         transform="matrix(-0.4,0,0,-0.4,-4,0)"
         style="fill:#000000;fill-opacity:1;fill-rule:evenodd;stroke:#000000;stroke-width:1pt;stroke-opacity:1"
         d="M 0,0 5,-5 -12.5,0 5,5 0,0 Z"
         id="path8489-10"
         inkscape:connector-curvature="0" />
    </marker>
    <marker
       inkscape:isstock="true"
       style="overflow:visible"
       id="Arrow1Mend-9"
       refX="0"
       refY="0"
       orient="auto"
       inkscape:stockid="Arrow1Mend">
      <path
         transform="matrix(-0.4,0,0,-0.4,-4,0)"
         style="fill:#000000;fill-opacity:1;fill-rule:evenodd;stroke:#000000;stroke-width:1pt;stroke-opacity:1"
         d="M 0,0 5,-5 -12.5,0 5,5 0,0 Z"
         id="path8489-7"
         inkscape:connector-curvature="0" />
    </marker>
    <marker
       inkscape:isstock="true"
       style="overflow:visible"
       id="Arrow1Mend-6"
       refX="0"
       refY="0"
       orient="auto"
       inkscape:stockid="Arrow1Mend">
      <path
         transform="matrix(-0.4,0,0,-0.4,-4,0)"
         style="fill:#000000;fill-opacity:1;fill-rule:evenodd;stroke:#000000;stroke-width:1pt;stroke-opacity:1"
         d="M 0,0 5,-5 -12.5,0 5,5 0,0 Z"
         id="path8489-19"
         inkscape:connector-curvature="0" />
    </marker>
    <marker
       inkscape:isstock="true"
       style="overflow:visible"
       id="Arrow1Mend-64"
       refX="0"
       refY="0"
       orient="auto"
       inkscape:stockid="Arrow1Mend">
      <path
         transform="matrix(-0.4,0,0,-0.4,-4,0)"
         style="fill:#000000;fill-opacity:1;fill-rule:evenodd;stroke:#000000;stroke-width:1pt;stroke-opacity:1"
         d="M 0,0 5,-5 -12.5,0 5,5 0,0 Z"
         id="path8489-6"
         inkscape:connector-curvature="0" />
    </marker>
    <marker
       inkscape:isstock="true"
       style="overflow:visible"
       id="Arrow1Mend-09-3"
       refX="0"
       refY="0"
       orient="auto"
       inkscape:stockid="Arrow1Mend">
      <path
         transform="matrix(-0.4,0,0,-0.4,-4,0)"
         style="fill:#000000;fill-opacity:1;fill-rule:evenodd;stroke:#000000;stroke-width:1pt;stroke-opacity:1"
         d="M 0,0 5,-5 -12.5,0 5,5 0,0 Z"
         id="path8489-10-3"
         inkscape:connector-curvature="0" />
    </marker>
    <marker
       inkscape:isstock="true"
       style="overflow:visible"
       id="Arrow1Mend-09-6"
       refX="0"
       refY="0"
       orient="auto"
       inkscape:stockid="Arrow1Mend">
      <path
         transform="matrix(-0.4,0,0,-0.4,-4,0)"
         style="fill:#000000;fill-opacity:1;fill-rule:evenodd;stroke:#000000;stroke-width:1pt;stroke-opacity:1"
         d="M 0,0 5,-5 -12.5,0 5,5 0,0 Z"
         id="path8489-10-4"
         inkscape:connector-curvature="0" />
    </marker>
    <marker
       inkscape:isstock="true"
       style="overflow:visible"
       id="Arrow1Mend-09-1"
       refX="0"
       refY="0"
       orient="auto"
       inkscape:stockid="Arrow1Mend">
      <path
         transform="matrix(-0.4,0,0,-0.4,-4,0)"
         style="fill:#000000;fill-opacity:1;fill-rule:evenodd;stroke:#000000;stroke-width:1pt;stroke-opacity:1"
         d="M 0,0 5,-5 -12.5,0 5,5 0,0 Z"
         id="path8489-10-5"
         inkscape:connector-curvature="0" />
    </marker>
    <marker
       inkscape:isstock="true"
       style="overflow:visible"
       id="Arrow1Mend-09-67"
       refX="0"
       refY="0"
       orient="auto"
       inkscape:stockid="Arrow1Mend">
      <path
         transform="matrix(-0.4,0,0,-0.4,-4,0)"
         style="fill:#000000;fill-opacity:1;fill-rule:evenodd;stroke:#000000;stroke-width:1pt;stroke-opacity:1"
         d="M 0,0 5,-5 -12.5,0 5,5 0,0 Z"
         id="path8489-10-6"
         inkscape:connector-curvature="0" />
    </marker>
    <marker
       inkscape:isstock="true"
       style="overflow:visible"
       id="Arrow1Mend-09-5"
       refX="0"
       refY="0"
       orient="auto"
       inkscape:stockid="Arrow1Mend">
      <path
         transform="matrix(-0.4,0,0,-0.4,-4,0)"
         style="fill:#000000;fill-opacity:1;fill-rule:evenodd;stroke:#000000;stroke-width:1pt;stroke-opacity:1"
         d="M 0,0 5,-5 -12.5,0 5,5 0,0 Z"
         id="path8489-10-31"
         inkscape:connector-curvature="0" />
    </marker>
  </defs>
  <metadata
     id="metadata7">
    <rdf:RDF>
      <cc:Work
         rdf:about="">
        <dc:format>image/svg+xml</dc:format>
        <dc:type
           rdf:resource="http://purl.org/dc/dcmitype/StillImage" />
        <dc:title></dc:title>
      </cc:Work>
    </rdf:RDF>
  </metadata>
  <g
     inkscape:label="レイヤー 1"
     inkscape:groupmode="layer"
     id="layer1">
    <g
       id="equation_00"
       style="fill:#000000"
       title="\[ u_1 \]"
       transform="translate(-10.093692,180.42643)">
      <defs
         id="defs4142">
        <path
           d="m 3.48692,-0.557908 c 0.10959,0.408468 0.45829,0.667497 0.88668,0.667497 0.34869,0 0.57783,-0.229141 0.73723,-0.547945 0.16937,-0.358655 0.29888,-0.966374 0.29888,-0.986304 0,-0.09962 -0.08966,-0.09962 -0.11955,-0.09962 -0.09962,0 -0.10959,0.03985 -0.13948,0.17932 -0.13947,0.557911 -0.32876,1.235371 -0.74719,1.235371 -0.20922,0 -0.30884,-0.129514 -0.30884,-0.458281 0,-0.219179 0.11955,-0.68742 0.19925,-1.03612 l 0.27895,-1.07596 c 0.02989,-0.14944 0.12952,-0.52802 0.16937,-0.67746 0.04981,-0.22914 0.14944,-0.60772 0.14944,-0.6675 0,-0.17932 -0.13948,-0.26899 -0.28892,-0.26899 -0.04981,0 -0.30884,0.00996 -0.38854,0.34869 -0.18929,0.72728 -0.62765,2.47074 -0.7472,2.998759 -0.00996,0.039851 -0.40847,0.836862 -1.13574,0.836862 -0.51806,0 -0.61769,-0.448319 -0.61769,-0.816937 0,-0.557904 0.27896,-1.344954 0.53799,-2.032374 0.11955,-0.29888 0.16936,-0.43836 0.16936,-0.62765 0,-0.44832 -0.3188,-0.81694 -0.81693,-0.81694 -0.946456,0 -1.315073,1.44459 -1.315073,1.53425 0,0.09963 0.099626,0.09963 0.119551,0.09963 0.099627,0 0.109589,-0.01993 0.159402,-0.17933 0.249066,-0.86675 0.62765,-1.23537 1.00623,-1.23537 0.08966,0 0.24906,0.00996 0.24906,0.32877 0,0.2391 -0.10959,0.52802 -0.16936,0.67746 -0.36862,0.9863 -0.57783,1.60398 -0.57783,2.09215 0,0.946453 0.68742,1.195519 1.2254,1.195519 0.65753,0 1.01619,-0.448319 1.18555,-0.667497 z"
           id="equation_00_00"
           inkscape:connector-curvature="0" />
        <path
           d="m 2.33624,-4.43537 c 0,-0.18829 -0.01395,-0.19527 -0.20922,-0.19527 -0.44632,0.43936 -1.08094,0.44633 -1.366871,0.44633 l 0,0.25106 c 0.167373,0 0.627651,0 1.011211,-0.19527 l 0,3.556664 c 0,0.230137 0,0.320797 -0.69739,0.320797 l -0.265004,0 0,0.251059 c 0.12553,-0.00697385 0.983314,-0.0278954 1.241344,-0.0278954 0.21619,0 1.0949,0.02092155 1.24832,0.0278954 l 0,-0.251059 -0.26501,0 c -0.69738,0 -0.69738,-0.09066 -0.69738,-0.320797 l 0,-3.863514 z"
           id="equation_00_01"
           inkscape:connector-curvature="0" />
      </defs>
      <g
         id="equation_00_g">
        <use
           x="228.53799"
           xlink:href="#equation_00_00"
           y="74.719803"
           id="use4147"
           width="100%"
           height="100%" />
        <use
           x="234.22"
           xlink:href="#equation_00_01"
           y="76.214203"
           id="use4149"
           width="100%"
           height="100%" />
      </g>
    </g>
    <g
       title="\[ u_2 \]"
       style="fill:#000000"
       id="equation_01"
       transform="translate(-10.205272,193.33835)">
      <defs
         id="defs4174">
        <path
           id="equation_01_00"
           d="m 3.48692,-0.557908 c 0.10959,0.408468 0.45829,0.667497 0.88668,0.667497 0.34869,0 0.57783,-0.229141 0.73723,-0.547945 0.16937,-0.358655 0.29888,-0.966374 0.29888,-0.986304 0,-0.09962 -0.08966,-0.09962 -0.11955,-0.09962 -0.09962,0 -0.10959,0.03985 -0.13948,0.17932 -0.13947,0.557911 -0.32876,1.235371 -0.74719,1.235371 -0.20922,0 -0.30884,-0.129514 -0.30884,-0.458281 0,-0.219179 0.11955,-0.68742 0.19925,-1.03612 l 0.27895,-1.07596 c 0.02989,-0.14944 0.12952,-0.52802 0.16937,-0.67746 0.04981,-0.22914 0.14944,-0.60772 0.14944,-0.6675 0,-0.17932 -0.13948,-0.26899 -0.28892,-0.26899 -0.04981,0 -0.30884,0.00996 -0.38854,0.34869 -0.18929,0.72728 -0.62765,2.47074 -0.7472,2.998759 -0.00996,0.039851 -0.40847,0.836862 -1.13574,0.836862 -0.51806,0 -0.61769,-0.448319 -0.61769,-0.816937 0,-0.557904 0.27896,-1.344954 0.53799,-2.032374 0.11955,-0.29888 0.16936,-0.43836 0.16936,-0.62765 0,-0.44832 -0.3188,-0.81694 -0.81693,-0.81694 -0.946456,0 -1.315073,1.44459 -1.315073,1.53425 0,0.09963 0.099626,0.09963 0.119551,0.09963 0.099627,0 0.109589,-0.01993 0.159402,-0.17933 0.249066,-0.86675 0.62765,-1.23537 1.00623,-1.23537 0.08966,0 0.24906,0.00996 0.24906,0.32877 0,0.2391 -0.10959,0.52802 -0.16936,0.67746 -0.36862,0.9863 -0.57783,1.60398 -0.57783,2.09215 0,0.946453 0.68742,1.195519 1.2254,1.195519 0.65753,0 1.01619,-0.448319 1.18555,-0.667497 z"
           inkscape:connector-curvature="0" />
        <path
           id="equation_01_01"
           d="m 3.52179,-1.26924 -0.23711,0 c -0.02092,0.15342 -0.09066,0.564881 -0.18132,0.63462 -0.05579,0.041843 -0.59277,0.041843 -0.69041,0.041843 l -1.28319,0 C 1.86202,-1.24134 2.1061,-1.43661 2.52453,-1.76438 3.0406,-2.17584 3.52179,-2.60822 3.52179,-3.27073 c 0,-0.84384 -0.73922,-1.35991 -1.63188,-1.35991 -0.86475,0 -1.450558,0.60673 -1.450558,1.24832 0,0.35567 0.299876,0.39054 0.369614,0.39054 0.167373,0 0.369614,-0.11856 0.369614,-0.36961 0,-0.12553 -0.04882,-0.36962 -0.411457,-0.36962 0.21619,-0.49514 0.690407,-0.64857 1.018187,-0.64857 0.69738,0 1.06002,0.54396 1.06002,1.10885 0,0.60672 -0.43238,1.08792 -0.65554,1.33897 L 0.509091,-0.27198 C 0.439352,-0.209215 0.439352,-0.195268 0.439352,0 L 3.31258,0 3.52179,-1.26924 Z"
           inkscape:connector-curvature="0" />
      </defs>
      <g
         id="equation_01_g">
        <use
           id="use4179"
           y="74.719803"
           xlink:href="#equation_01_00"
           x="228.53799"
           width="100%"
           height="100%" />
        <use
           id="use4181"
           y="76.214203"
           xlink:href="#equation_01_01"
           x="234.22"
           width="100%"
           height="100%" />
      </g>
    </g>
    <g
       id="equation_02"
       style="fill:#000000"
       title="\[ u_m \]"
       transform="translate(-10.259262,219.12732)">
      <defs
         id="defs4220">
        <path
           d="m 3.48692,-0.557908 c 0.10959,0.408468 0.45829,0.667497 0.88668,0.667497 0.34869,0 0.57783,-0.229141 0.73723,-0.547945 0.16937,-0.358655 0.29888,-0.966374 0.29888,-0.986304 0,-0.09962 -0.08966,-0.09962 -0.11955,-0.09962 -0.09962,0 -0.10959,0.03985 -0.13948,0.17932 -0.13947,0.557911 -0.32876,1.235371 -0.74719,1.235371 -0.20922,0 -0.30884,-0.129514 -0.30884,-0.458281 0,-0.219179 0.11955,-0.68742 0.19925,-1.03612 l 0.27895,-1.07596 c 0.02989,-0.14944 0.12952,-0.52802 0.16937,-0.67746 0.04981,-0.22914 0.14944,-0.60772 0.14944,-0.6675 0,-0.17932 -0.13948,-0.26899 -0.28892,-0.26899 -0.04981,0 -0.30884,0.00996 -0.38854,0.34869 -0.18929,0.72728 -0.62765,2.47074 -0.7472,2.998759 -0.00996,0.039851 -0.40847,0.836862 -1.13574,0.836862 -0.51806,0 -0.61769,-0.448319 -0.61769,-0.816937 0,-0.557904 0.27896,-1.344954 0.53799,-2.032374 0.11955,-0.29888 0.16936,-0.43836 0.16936,-0.62765 0,-0.44832 -0.3188,-0.81694 -0.81693,-0.81694 -0.946456,0 -1.315073,1.44459 -1.315073,1.53425 0,0.09963 0.099626,0.09963 0.119551,0.09963 0.099627,0 0.109589,-0.01993 0.159402,-0.17933 0.249066,-0.86675 0.62765,-1.23537 1.00623,-1.23537 0.08966,0 0.24906,0.00996 0.24906,0.32877 0,0.2391 -0.10959,0.52802 -0.16936,0.67746 -0.36862,0.9863 -0.57783,1.60398 -0.57783,2.09215 0,0.946453 0.68742,1.195519 1.2254,1.195519 0.65753,0 1.01619,-0.448319 1.18555,-0.667497 z"
           id="equation_02_00"
           inkscape:connector-curvature="0" />
        <path
           d="m 3.02665,-0.564882 c -0.03487,0.139477 -0.09763,0.376588 -0.09763,0.411457 0,0.153425 0.12553,0.2231635 0.23711,0.2231635 0.12553,0 0.23711,-0.09066 0.27198,-0.1534247 0.03487,-0.0627647 0.09066,-0.2859278 0.12553,-0.4323788 0.03487,-0.132503 0.11158,-0.4533 0.15342,-0.627645 0.04184,-0.15343 0.08369,-0.30685 0.11856,-0.46725 0.07671,-0.29987 0.07671,-0.31382 0.21619,-0.53001 0.22316,-0.34172 0.57185,-0.73923 1.11581,-0.73923 0.39054,0 0.41146,0.3208 0.41146,0.48817 0,0.41843 -0.29988,1.19253 -0.41146,1.48543 -0.07671,0.195267 -0.10461,0.258032 -0.10461,0.376588 0,0.369613 0.30685,0.5997505 0.66252,0.5997505 0.69738,0 1.00423,-0.9623915 1.00423,-1.0669985 0,-0.09066 -0.09066,-0.09066 -0.11158,-0.09066 -0.09763,0 -0.10461,0.04184 -0.1325,0.118555 -0.1604,0.557908 -0.46028,0.843836 -0.73923,0.843836 -0.14645,0 -0.17435,-0.097634 -0.17435,-0.244085 0,-0.160398 0.03487,-0.251058 0.1604,-0.564882 0.08369,-0.216184 0.36962,-0.955414 0.36962,-1.345954 0,-0.11158 0,-0.40448 -0.25804,-0.60672 -0.11855,-0.09066 -0.32079,-0.1883 -0.64856,-0.1883 -0.62765,0 -1.01121,0.41146 -1.23437,0.70436 -0.0558,-0.59278 -0.55094,-0.70436 -0.9066,-0.70436 -0.57883,0 -0.96937,0.35567 -1.17858,0.63462 -0.04882,-0.48119 -0.46028,-0.63462 -0.74621,-0.63462 -0.299872,0 -0.460271,0.21619 -0.550931,0.37659 -0.153424,0.25803 -0.251058,0.65554 -0.251058,0.69041 0,0.09066 0.097634,0.09066 0.118555,0.09066 0.097634,0 0.104608,-0.02092 0.153425,-0.20921 0.104608,-0.41146 0.237111,-0.75318 0.509089,-0.75318 0.18132,0 0.23014,0.15343 0.23014,0.34172 0,0.1325 -0.06277,0.39053 -0.11158,0.57883 -0.04881,0.1883 -0.11856,0.47422 -0.15343,0.62765 l -0.223161,0.892648 c -0.027895,0.09066 -0.069738,0.265006 -0.069738,0.285927 0,0.153425 0.125529,0.2231635 0.237109,0.2231635 0.12553,0 0.23711,-0.09066 0.27198,-0.1534247 0.03487,-0.0627647 0.09066,-0.2859278 0.12553,-0.4323788 0.03487,-0.132503 0.11158,-0.4533 0.15343,-0.627645 0.04184,-0.15343 0.08368,-0.30685 0.11855,-0.46725 0.07671,-0.28593 0.09066,-0.34172 0.2929,-0.62765 0.19527,-0.27895 0.52304,-0.64159 1.04608,-0.64159 0.40448,0 0.41146,0.35567 0.41146,0.48817 0,0.17435 -0.02092,0.26501 -0.11856,0.65554 l -0.2929,1.171608 z"
           id="equation_02_01"
           inkscape:connector-curvature="0" />
      </defs>
      <g
         id="equation_02_g">
        <use
           x="226.98801"
           xlink:href="#equation_02_00"
           y="74.719803"
           id="use4225"
           width="100%"
           height="100%" />
        <use
           x="232.67"
           xlink:href="#equation_02_01"
           y="76.214203"
           id="use4227"
           width="100%"
           height="100%" />
      </g>
    </g>
    <g
       title="\[ y_1 \]"
       style="fill:#000000"
       id="equation_03"
       transform="translate(178.31892,182.1988)">
      <defs
         id="defs4280">
        <path
           id="equation_03_00"
           d="m 4.84184,-3.79577 c 0.03985,-0.13947 0.03985,-0.1594 0.03985,-0.22914 0,-0.17932 -0.13947,-0.26899 -0.28891,-0.26899 -0.09963,0 -0.25903,0.05978 -0.3487,0.20922 -0.01992,0.04981 -0.09962,0.35865 -0.13947,0.53798 -0.06974,0.25903 -0.13948,0.52802 -0.19926,0.79701 l -0.44831,1.793277 c -0.03985,0.149439 -0.46825,0.846824 -1.12578,0.846824 -0.5081,0 -0.61769,-0.438356 -0.61769,-0.806974 0,-0.458277 0.16937,-1.075967 0.5081,-1.952677 0.1594,-0.40847 0.19925,-0.51806 0.19925,-0.71731 0,-0.44832 -0.3188,-0.81694 -0.81693,-0.81694 -0.946456,0 -1.315073,1.44459 -1.315073,1.53425 0,0.09963 0.099626,0.09963 0.119551,0.09963 0.099627,0 0.109589,-0.01993 0.159402,-0.17933 0.268992,-0.93649 0.6675,-1.23537 1.00623,-1.23537 0.0797,0 0.24906,0 0.24906,0.31881 0,0.24906 -0.09962,0.50809 -0.16936,0.69738 -0.39851,1.05604 -0.57783,1.62391 -0.57783,2.09215 0,0.88668 0.62764,1.185559 1.21544,1.185559 0.38854,0 0.72727,-0.1693648 1.00622,-0.448319 C 3.16812,0.179328 3.04857,0.667497 2.65006,1.19552 2.39103,1.53425 2.01245,1.82316 1.55417,1.82316 c -0.13948,0 -0.587794,-0.02988 -0.757159,-0.41843 0.159402,0 0.288919,0 0.428389,-0.11955 C 1.32503,1.19552 1.42466,1.066 1.42466,0.876712 1.42466,0.56787 1.15567,0.52802 1.05604,0.52802 c -0.229141,0 -0.557908,0.159402 -0.557908,0.64757 0,0.49813 0.438356,0.86675 1.056038,0.86675 1.02615,0 2.05231,-0.9066 2.33126,-2.03237736 L 4.84184,-3.79577 Z"
           inkscape:connector-curvature="0" />
        <path
           id="equation_03_01"
           d="m 2.33624,-4.43537 c 0,-0.18829 -0.01395,-0.19527 -0.20922,-0.19527 -0.44632,0.43936 -1.08094,0.44633 -1.366871,0.44633 l 0,0.25106 c 0.167373,0 0.627651,0 1.011211,-0.19527 l 0,3.556664 c 0,0.230137 0,0.320797 -0.69739,0.320797 l -0.265004,0 0,0.251059 c 0.12553,-0.00697385 0.983314,-0.0278954 1.241344,-0.0278954 0.21619,0 1.0949,0.02092155 1.24832,0.0278954 l 0,-0.251059 -0.26501,0 c -0.69738,0 -0.69738,-0.09066 -0.69738,-0.320797 l 0,-3.863514 z"
           inkscape:connector-curvature="0" />
      </defs>
      <g
         id="equation_03_g">
        <use
           id="use4285"
           y="74.719803"
           xlink:href="#equation_03_00"
           x="228.94701"
           width="100%"
           height="100%" />
        <use
           id="use4287"
           y="76.214203"
           xlink:href="#equation_03_01"
           x="233.813"
           width="100%"
           height="100%" />
      </g>
    </g>
    <g
       id="equation_04"
       style="fill:#000000"
       title="\[ y_2 \]"
       transform="translate(178.20734,193.45161)">
      <defs
         id="defs4354">
        <path
           d="m 4.84184,-3.79577 c 0.03985,-0.13947 0.03985,-0.1594 0.03985,-0.22914 0,-0.17932 -0.13947,-0.26899 -0.28891,-0.26899 -0.09963,0 -0.25903,0.05978 -0.3487,0.20922 -0.01992,0.04981 -0.09962,0.35865 -0.13947,0.53798 -0.06974,0.25903 -0.13948,0.52802 -0.19926,0.79701 l -0.44831,1.793277 c -0.03985,0.149439 -0.46825,0.846824 -1.12578,0.846824 -0.5081,0 -0.61769,-0.438356 -0.61769,-0.806974 0,-0.458277 0.16937,-1.075967 0.5081,-1.952677 0.1594,-0.40847 0.19925,-0.51806 0.19925,-0.71731 0,-0.44832 -0.3188,-0.81694 -0.81693,-0.81694 -0.946456,0 -1.315073,1.44459 -1.315073,1.53425 0,0.09963 0.099626,0.09963 0.119551,0.09963 0.099627,0 0.109589,-0.01993 0.159402,-0.17933 0.268992,-0.93649 0.6675,-1.23537 1.00623,-1.23537 0.0797,0 0.24906,0 0.24906,0.31881 0,0.24906 -0.09962,0.50809 -0.16936,0.69738 -0.39851,1.05604 -0.57783,1.62391 -0.57783,2.09215 0,0.88668 0.62764,1.185559 1.21544,1.185559 0.38854,0 0.72727,-0.1693648 1.00622,-0.448319 C 3.16812,0.179328 3.04857,0.667497 2.65006,1.19552 2.39103,1.53425 2.01245,1.82316 1.55417,1.82316 c -0.13948,0 -0.587794,-0.02988 -0.757159,-0.41843 0.159402,0 0.288919,0 0.428389,-0.11955 C 1.32503,1.19552 1.42466,1.066 1.42466,0.876712 1.42466,0.56787 1.15567,0.52802 1.05604,0.52802 c -0.229141,0 -0.557908,0.159402 -0.557908,0.64757 0,0.49813 0.438356,0.86675 1.056038,0.86675 1.02615,0 2.05231,-0.9066 2.33126,-2.03237736 L 4.84184,-3.79577 Z"
           id="equation_04_00"
           inkscape:connector-curvature="0" />
        <path
           d="m 3.52179,-1.26924 -0.23711,0 c -0.02092,0.15342 -0.09066,0.564881 -0.18132,0.63462 -0.05579,0.041843 -0.59277,0.041843 -0.69041,0.041843 l -1.28319,0 C 1.86202,-1.24134 2.1061,-1.43661 2.52453,-1.76438 3.0406,-2.17584 3.52179,-2.60822 3.52179,-3.27073 c 0,-0.84384 -0.73922,-1.35991 -1.63188,-1.35991 -0.86475,0 -1.450558,0.60673 -1.450558,1.24832 0,0.35567 0.299876,0.39054 0.369614,0.39054 0.167373,0 0.369614,-0.11856 0.369614,-0.36961 0,-0.12553 -0.04882,-0.36962 -0.411457,-0.36962 0.21619,-0.49514 0.690407,-0.64857 1.018187,-0.64857 0.69738,0 1.06002,0.54396 1.06002,1.10885 0,0.60672 -0.43238,1.08792 -0.65554,1.33897 L 0.509091,-0.27198 C 0.439352,-0.209215 0.439352,-0.195268 0.439352,0 L 3.31258,0 3.52179,-1.26924 Z"
           id="equation_04_01"
           inkscape:connector-curvature="0" />
      </defs>
      <g
         id="equation_04_g">
        <use
           x="228.94701"
           xlink:href="#equation_04_00"
           y="74.719803"
           id="use4359"
           width="100%"
           height="100%" />
        <use
           x="233.813"
           xlink:href="#equation_04_01"
           y="76.214203"
           id="use4361"
           width="100%"
           height="100%" />
      </g>
    </g>
    <g
       title="\[ y_p \]"
       style="fill:#000000"
       id="equation_05"
       transform="translate(179.02423,215.55495)">
      <defs
         id="defs4442">
        <path
           id="equation_05_00"
           d="m 4.84184,-3.79577 c 0.03985,-0.13947 0.03985,-0.1594 0.03985,-0.22914 0,-0.17932 -0.13947,-0.26899 -0.28891,-0.26899 -0.09963,0 -0.25903,0.05978 -0.3487,0.20922 -0.01992,0.04981 -0.09962,0.35865 -0.13947,0.53798 -0.06974,0.25903 -0.13948,0.52802 -0.19926,0.79701 l -0.44831,1.793277 c -0.03985,0.149439 -0.46825,0.846824 -1.12578,0.846824 -0.5081,0 -0.61769,-0.438356 -0.61769,-0.806974 0,-0.458277 0.16937,-1.075967 0.5081,-1.952677 0.1594,-0.40847 0.19925,-0.51806 0.19925,-0.71731 0,-0.44832 -0.3188,-0.81694 -0.81693,-0.81694 -0.946456,0 -1.315073,1.44459 -1.315073,1.53425 0,0.09963 0.099626,0.09963 0.119551,0.09963 0.099627,0 0.109589,-0.01993 0.159402,-0.17933 0.268992,-0.93649 0.6675,-1.23537 1.00623,-1.23537 0.0797,0 0.24906,0 0.24906,0.31881 0,0.24906 -0.09962,0.50809 -0.16936,0.69738 -0.39851,1.05604 -0.57783,1.62391 -0.57783,2.09215 0,0.88668 0.62764,1.185559 1.21544,1.185559 0.38854,0 0.72727,-0.1693648 1.00622,-0.448319 C 3.16812,0.179328 3.04857,0.667497 2.65006,1.19552 2.39103,1.53425 2.01245,1.82316 1.55417,1.82316 c -0.13948,0 -0.587794,-0.02988 -0.757159,-0.41843 0.159402,0 0.288919,0 0.428389,-0.11955 C 1.32503,1.19552 1.42466,1.066 1.42466,0.876712 1.42466,0.56787 1.15567,0.52802 1.05604,0.52802 c -0.229141,0 -0.557908,0.159402 -0.557908,0.64757 0,0.49813 0.438356,0.86675 1.056038,0.86675 1.02615,0 2.05231,-0.9066 2.33126,-2.03237736 L 4.84184,-3.79577 Z"
           inkscape:connector-curvature="0" />
        <path
           id="equation_05_01"
           d="M 0.523039,0.850809 C 0.474222,1.04608 0.460274,1.10187 0.18132,1.10187 c -0.09066,0 -0.18829385,0 -0.18829385,0.14645 0,0.07671 0.06276465,0.10461 0.09763385,0.10461 0.18132,0 0.411457,-0.0279 0.599751,-0.0279 0.237111,0 0.502119,0.0279 0.732259,0.0279 0.06276,0 0.13947,-0.02093 0.13947,-0.15343 0,-0.09763 -0.09763,-0.09763 -0.18132,-0.09763 -0.15342,0 -0.34172,0 -0.34172,-0.08369 0,-0.034867 0.04882,-0.216187 0.07672,-0.320795 0.08368,-0.369614 0.18132,-0.7462019 0.25803,-1.039104 0.08368,0.139477 0.29987,0.4114575 0.7183,0.4114575 0.85081,0 1.79228,-0.9414695 1.79228,-1.9805685 0,-0.81594 -0.56488,-1.16464 -1.04607,-1.16464 -0.43238,0 -0.802,0.2929 -0.99029,0.48817 -0.11856,-0.39751 -0.50909,-0.48817 -0.71831,-0.48817 -0.271977,0 -0.439349,0.18132 -0.550931,0.36962 -0.139477,0.23711 -0.251058,0.65554 -0.251058,0.69738 0,0.09066 0.097634,0.09066 0.118555,0.09066 0.097634,0 0.104608,-0.02092 0.153425,-0.20921 0.104608,-0.40449 0.237111,-0.75318 0.509089,-0.75318 0.18132,0 0.23014,0.15343 0.23014,0.34172 0,0.07671 -0.01395,0.16737 -0.02092,0.20921 L 0.523039,0.850809 Z M 1.8411,-2.23861 c 0.40448,-0.53698 0.75317,-0.64159 0.97633,-0.64159 0.27198,0 0.5091,0.20224 0.5091,0.67646 0,0.28593 -0.15343,0.99726 -0.36264,1.401747 -0.17435,0.341719 -0.51607,0.676464 -0.87174,0.676464 -0.49514,0 -0.62067,-0.536987 -0.62067,-0.606725 0,-0.027895 0.01395,-0.076712 0.02092,-0.104608 L 1.8411,-2.23861 Z"
           inkscape:connector-curvature="0" />
      </defs>
      <g
         id="equation_05_g">
        <use
           id="use4447"
           y="74.719803"
           xlink:href="#equation_05_00"
           x="228.879"
           width="100%"
           height="100%" />
        <use
           id="use4449"
           y="76.214203"
           xlink:href="#equation_05_01"
           x="233.745"
           width="100%"
           height="100%" />
      </g>
    </g>
    <g
       title="\[ \vdots \]"
       style="fill:#000000"
       id="equation_13"
       transform="translate(-10.545735,205.2684)">
      <defs
         id="defs6344">
        <path
           id="equation_13_00"
           d="m 1.91283,-0.52802 c 0,-0.288916 -0.23911,-0.52802 -0.52802,-0.52802 -0.28891,0 -0.528023,0.239104 -0.528023,0.52802 C 0.856787,-0.239104 1.09589,0 1.38481,0 1.67373,0 1.91283,-0.239103 1.91283,-0.52802 Z"
           inkscape:connector-curvature="0" />
      </defs>
      <g
         id="equation_13_g">
        <use
           id="use6348"
           y="70.7901"
           xlink:href="#equation_13_00"
           x="232.24001"
           width="100%"
           height="100%" />
        <use
           id="use6350"
           y="74.775101"
           xlink:href="#equation_13_00"
           x="232.24001"
           width="100%"
           height="100%" />
        <use
           id="use6352"
           y="78.760201"
           xlink:href="#equation_13_00"
           x="232.24001"
           width="100%"
           height="100%" />
      </g>
    </g>
    <g
       transform="translate(177.86788,203.99664)"
       title="\[ \vdots \]"
       style="fill:#000000"
       id="equation_13-4">
      <defs
         id="defs6344-2">
        <path
           inkscape:connector-curvature="0"
           id="equation_13_00-6"
           d="m 1.91283,-0.52802 c 0,-0.288916 -0.23911,-0.52802 -0.52802,-0.52802 -0.28891,0 -0.528023,0.239104 -0.528023,0.52802 C 0.856787,-0.239104 1.09589,0 1.38481,0 1.67373,0 1.91283,-0.239103 1.91283,-0.52802 Z" />
      </defs>
      <g
         id="equation_13_g-5">
        <use
           height="100%"
           width="100%"
           id="use6348-3"
           y="70.7901"
           xlink:href="#equation_13_00-6"
           x="232.24001" />
        <use
           height="100%"
           width="100%"
           id="use6350-8"
           y="74.775101"
           xlink:href="#equation_13_00-6"
           x="232.24001" />
        <use
           height="100%"
           width="100%"
           id="use6352-5"
           y="78.760201"
           xlink:href="#equation_13_00-6"
           x="232.24001" />
      </g>
    </g>
    <g
       transform="translate(5.1161338,247.89985)"
       id="equation_12"
       style="fill:#000000"
       title="\[ u= \left ( \begin{array}{c} u_1 \\ u_2 \\ \vdots \\ u_m \end{array} \right ) \]">
      <defs
         id="defs6786">
        <path
           inkscape:connector-curvature="0"
           d="m 3.48692,-0.557908 c 0.10959,0.408468 0.45829,0.667497 0.88668,0.667497 0.34869,0 0.57783,-0.229141 0.73723,-0.547945 0.16937,-0.358655 0.29888,-0.966374 0.29888,-0.986304 0,-0.09962 -0.08966,-0.09962 -0.11955,-0.09962 -0.09962,0 -0.10959,0.03985 -0.13948,0.17932 -0.13947,0.557911 -0.32876,1.235371 -0.74719,1.235371 -0.20922,0 -0.30884,-0.129514 -0.30884,-0.458281 0,-0.219179 0.11955,-0.68742 0.19925,-1.03612 l 0.27895,-1.07596 c 0.02989,-0.14944 0.12952,-0.52802 0.16937,-0.67746 0.04981,-0.22914 0.14944,-0.60772 0.14944,-0.6675 0,-0.17932 -0.13948,-0.26899 -0.28892,-0.26899 -0.04981,0 -0.30884,0.00996 -0.38854,0.34869 -0.18929,0.72728 -0.62765,2.47074 -0.7472,2.998759 -0.00996,0.039851 -0.40847,0.836862 -1.13574,0.836862 -0.51806,0 -0.61769,-0.448319 -0.61769,-0.816937 0,-0.557904 0.27896,-1.344954 0.53799,-2.032374 0.11955,-0.29888 0.16936,-0.43836 0.16936,-0.62765 0,-0.44832 -0.3188,-0.81694 -0.81693,-0.81694 -0.946456,0 -1.315073,1.44459 -1.315073,1.53425 0,0.09963 0.099626,0.09963 0.119551,0.09963 0.099627,0 0.109589,-0.01993 0.159402,-0.17933 0.249066,-0.86675 0.62765,-1.23537 1.00623,-1.23537 0.08966,0 0.24906,0.00996 0.24906,0.32877 0,0.2391 -0.10959,0.52802 -0.16936,0.67746 -0.36862,0.9863 -0.57783,1.60398 -0.57783,2.09215 0,0.946453 0.68742,1.195519 1.2254,1.195519 0.65753,0 1.01619,-0.448319 1.18555,-0.667497 z"
           id="equation_12_00" />
        <path
           inkscape:connector-curvature="0"
           d="m 3.72603,17.6339 c 0.21918,0 0.27895,0 0.27895,-0.1395 0.01993,-6.9838 0.8269,-12.78207 4.31382,-17.653802 0.06974,-0.089664 0.06974,-0.109589 0.06974,-0.129515 0,-0.099626 -0.06974,-0.099626 -0.22914,-0.099626 -0.1594,0 -0.17933,0 -0.19925,0.019925 C 7.9203,-0.33873 6.65504,1.11582 5.64882,3.11831 4.33375,5.74844 3.50685,8.76712 3.13823,12.3935 c -0.02989,0.3089 -0.2391,2.3811 -0.2391,4.7422 l 0,0.3886 c 0.00996,0.1096 0.06974,0.1096 0.27895,0.1096 l 0.54795,0 z"
           id="equation_12_01" />
        <path
           inkscape:connector-curvature="0"
           d="M 5.80822,17.1357 C 5.80822,11.0486 4.72229,7.48194 4.41345,6.47572 3.73599,4.26401 2.63014,1.93275 0.966376,-0.119552 0.816936,-0.298879 0.777086,-0.348692 0.737235,-0.368618 0.71731,-0.37858 0.707347,-0.388543 0.547945,-0.388543 c -0.149439,0 -0.229141,0 -0.229141,0.099626 0,0.019926 0,0.039851 0.129515,0.2191785 C 3.91532,4.7721 4.6924,10.7497 4.70237,17.4944 c 0,0.1395 0.05977,0.1395 0.27895,0.1395 l 0.54795,0 c 0.20921,0 0.26899,0 0.27895,-0.1096 l 0,-0.3886 z"
           id="equation_12_02" />
        <path
           inkscape:connector-curvature="0"
           d="m 3.17808,-0.498132 c -0.20921,0 -0.26899,0 -0.27895,0.109589 L 2.89913,0 c 0,6.08717 1.08593,9.6538 1.39477,10.66 0.67746,2.2117 1.78331,4.543 3.44707,6.5953 0.14944,0.1793 0.18929,0.2291 0.22914,0.2491 0.01993,0.0099 0.02989,0.0199 0.18929,0.0199 0.1594,0 0.22914,0 0.22914,-0.0996 0,-0.02 0,-0.0399 -0.05977,-0.1296 C 5.01121,12.6924 4.01494,7.15318 4.00498,-0.358655 c 0,-0.139477 -0.05977,-0.139477 -0.27895,-0.139477 l -0.54795,0 z"
           id="equation_12_03" />
        <path
           inkscape:connector-curvature="0"
           d="M 5.80822,-0.388543 C 5.79826,-0.498132 5.73848,-0.498132 5.52927,-0.498132 l -0.54795,0 c -0.21918,0 -0.27895,0 -0.27895,0.139477 0,1.026152 -0.00997,3.397265 -0.269,5.877955 -0.53798,5.1507 -1.86301,8.7173 -4.044827,11.7758 -0.069739,0.0897 -0.069739,0.1096 -0.069739,0.1296 0,0.0996 0.079702,0.0996 0.229141,0.0996 0.159402,0 0.179328,0 0.199253,-0.0199 C 0.787049,17.4745 2.0523,16.0199 3.05853,14.0174 4.3736,11.3873 5.2005,8.36862 5.56912,4.74222 5.599,4.43337 5.80822,2.36115 5.80822,0 l 0,-0.388543 z"
           id="equation_12_04" />
        <path
           inkscape:connector-curvature="0"
           d="m 4.00498,0.169365 c 0,-0.2590288 -0.00996,-0.2689914 -0.27895,-0.2689914 l -0.54795,0 c -0.26899,0 -0.27895,0.0099626 -0.27895,0.2689914 l 0,5.638855 c 0,0.25903 0.00996,0.26899 0.27895,0.26899 l 0.54795,0 c 0.26899,0 0.27895,-0.00996 0.27895,-0.26899 l 0,-5.638855 z"
           id="equation_12_05" />
        <path
           inkscape:connector-curvature="0"
           d="m 5.80822,0.169365 c 0,-0.2590288 -0.00996,-0.2689914 -0.27895,-0.2689914 l -0.54795,0 c -0.26899,0 -0.27895,0.0099626 -0.27895,0.2689914 l 0,5.638855 c 0,0.25903 0.00996,0.26899 0.27895,0.26899 l 0.54795,0 c 0.26899,0 0.27895,-0.00996 0.27895,-0.26899 l 0,-5.638855 z"
           id="equation_12_06" />
        <path
           inkscape:connector-curvature="0"
           d="m 3.02665,-0.564882 c -0.03487,0.139477 -0.09763,0.376588 -0.09763,0.411457 0,0.153425 0.12553,0.2231635 0.23711,0.2231635 0.12553,0 0.23711,-0.09066 0.27198,-0.1534247 0.03487,-0.0627647 0.09066,-0.2859278 0.12553,-0.4323788 0.03487,-0.132503 0.11158,-0.4533 0.15342,-0.627645 0.04184,-0.15343 0.08369,-0.30685 0.11856,-0.46725 0.07671,-0.29987 0.07671,-0.31382 0.21619,-0.53001 0.22316,-0.34172 0.57185,-0.73923 1.11581,-0.73923 0.39054,0 0.41146,0.3208 0.41146,0.48817 0,0.41843 -0.29988,1.19253 -0.41146,1.48543 -0.07671,0.195267 -0.10461,0.258032 -0.10461,0.376588 0,0.369613 0.30685,0.5997505 0.66252,0.5997505 0.69738,0 1.00423,-0.9623915 1.00423,-1.0669985 0,-0.09066 -0.09066,-0.09066 -0.11158,-0.09066 -0.09763,0 -0.10461,0.04184 -0.1325,0.118555 -0.1604,0.557908 -0.46028,0.843836 -0.73923,0.843836 -0.14645,0 -0.17435,-0.097634 -0.17435,-0.244085 0,-0.160398 0.03487,-0.251058 0.1604,-0.564882 0.08369,-0.216184 0.36962,-0.955414 0.36962,-1.345954 0,-0.11158 0,-0.40448 -0.25804,-0.60672 -0.11855,-0.09066 -0.32079,-0.1883 -0.64856,-0.1883 -0.62765,0 -1.01121,0.41146 -1.23437,0.70436 -0.0558,-0.59278 -0.55094,-0.70436 -0.9066,-0.70436 -0.57883,0 -0.96937,0.35567 -1.17858,0.63462 -0.04882,-0.48119 -0.46028,-0.63462 -0.74621,-0.63462 -0.299872,0 -0.460271,0.21619 -0.550931,0.37659 -0.153424,0.25803 -0.251058,0.65554 -0.251058,0.69041 0,0.09066 0.097634,0.09066 0.118555,0.09066 0.097634,0 0.104608,-0.02092 0.153425,-0.20921 0.104608,-0.41146 0.237111,-0.75318 0.509089,-0.75318 0.18132,0 0.23014,0.15343 0.23014,0.34172 0,0.1325 -0.06277,0.39053 -0.11158,0.57883 -0.04881,0.1883 -0.11856,0.47422 -0.15343,0.62765 l -0.223161,0.892648 c -0.027895,0.09066 -0.069738,0.265006 -0.069738,0.285927 0,0.153425 0.125529,0.2231635 0.237109,0.2231635 0.12553,0 0.23711,-0.09066 0.27198,-0.1534247 0.03487,-0.0627647 0.09066,-0.2859278 0.12553,-0.4323788 0.03487,-0.132503 0.11158,-0.4533 0.15343,-0.627645 0.04184,-0.15343 0.08368,-0.30685 0.11855,-0.46725 0.07671,-0.28593 0.09066,-0.34172 0.2929,-0.62765 0.19527,-0.27895 0.52304,-0.64159 1.04608,-0.64159 0.40448,0 0.41146,0.35567 0.41146,0.48817 0,0.17435 -0.02092,0.26501 -0.11856,0.65554 l -0.2929,1.171608 z"
           id="equation_12_07" />
        <path
           inkscape:connector-curvature="0"
           d="m 2.33624,-4.43537 c 0,-0.18829 -0.01395,-0.19527 -0.20922,-0.19527 -0.44632,0.43936 -1.08094,0.44633 -1.366871,0.44633 l 0,0.25106 c 0.167373,0 0.627651,0 1.011211,-0.19527 l 0,3.556664 c 0,0.230137 0,0.320797 -0.69739,0.320797 l -0.265004,0 0,0.251059 c 0.12553,-0.00697385 0.983314,-0.0278954 1.241344,-0.0278954 0.21619,0 1.0949,0.02092155 1.24832,0.0278954 l 0,-0.251059 -0.26501,0 c -0.69738,0 -0.69738,-0.09066 -0.69738,-0.320797 l 0,-3.863514 z"
           id="equation_12_08" />
        <path
           inkscape:connector-curvature="0"
           d="m 3.52179,-1.26924 -0.23711,0 c -0.02092,0.15342 -0.09066,0.564881 -0.18132,0.63462 -0.05579,0.041843 -0.59277,0.041843 -0.69041,0.041843 l -1.28319,0 C 1.86202,-1.24134 2.1061,-1.43661 2.52453,-1.76438 3.0406,-2.17584 3.52179,-2.60822 3.52179,-3.27073 c 0,-0.84384 -0.73922,-1.35991 -1.63188,-1.35991 -0.86475,0 -1.450558,0.60673 -1.450558,1.24832 0,0.35567 0.299876,0.39054 0.369614,0.39054 0.167373,0 0.369614,-0.11856 0.369614,-0.36961 0,-0.12553 -0.04882,-0.36962 -0.411457,-0.36962 0.21619,-0.49514 0.690407,-0.64857 1.018187,-0.64857 0.69738,0 1.06002,0.54396 1.06002,1.10885 0,0.60672 -0.43238,1.08792 -0.65554,1.33897 L 0.509091,-0.27198 C 0.439352,-0.209215 0.439352,-0.195268 0.439352,0 L 3.31258,0 3.52179,-1.26924 Z"
           id="equation_12_09" />
        <path
           inkscape:connector-curvature="0"
           d="m 1.91283,-0.52802 c 0,-0.288916 -0.23911,-0.52802 -0.52802,-0.52802 -0.28891,0 -0.528023,0.239104 -0.528023,0.52802 C 0.856787,-0.239104 1.09589,0 1.38481,0 1.67373,0 1.91283,-0.239103 1.91283,-0.52802 Z"
           id="equation_12_10" />
        <path
           inkscape:connector-curvature="0"
           d="m 6.84433,-3.25778 c 0.14944,0 0.33873,0 0.33873,-0.19926 0,-0.19926 -0.18929,-0.19925 -0.32876,-0.19925 l -5.967625,0 c -0.139477,0 -0.328767,0 -0.328767,0.19925 0,0.19925 0.18929,0.19926 0.33873,0.19926 l 5.947692,0 z m 0.00997,1.93275 c 0.13947,0 0.32876,0 0.32876,-0.19925 0,-0.19925 -0.18929,-0.19926 -0.33873,-0.19926 l -5.947692,0 c -0.14944,0 -0.33873,0 -0.33873,0.19926 0,0.19926 0.18929,0.19925 0.328767,0.19925 l 5.967625,0 z"
           id="equation_12_11" />
      </defs>
      <g
         id="equation_12_g">
        <use
           height="100%"
           width="100%"
           x="203.797"
           xlink:href="#equation_12_00"
           y="93.477203"
           id="use6801" />
        <use
           height="100%"
           width="100%"
           x="212.246"
           xlink:href="#equation_12_11"
           y="93.477203"
           id="use6803" />
        <use
           height="100%"
           width="100%"
           x="222.733"
           xlink:href="#equation_12_01"
           y="64.485703"
           id="use6805" />
        <use
           height="100%"
           width="100%"
           x="222.733"
           xlink:href="#equation_12_05"
           y="82.020103"
           id="use6807" />
        <use
           height="100%"
           width="100%"
           x="222.733"
           xlink:href="#equation_12_05"
           y="87.997803"
           id="use6809" />
        <use
           height="100%"
           width="100%"
           x="222.733"
           xlink:href="#equation_12_05"
           y="93.975403"
           id="use6811" />
        <use
           height="100%"
           width="100%"
           x="222.733"
           xlink:href="#equation_12_03"
           y="100.352"
           id="use6813" />
        <use
           height="100%"
           width="100%"
           x="237.981"
           xlink:href="#equation_12_00"
           y="72.129501"
           id="use6815" />
        <use
           height="100%"
           width="100%"
           x="243.66299"
           xlink:href="#equation_12_08"
           y="73.623901"
           id="use6817" />
        <use
           height="100%"
           width="100%"
           x="237.981"
           xlink:href="#equation_12_00"
           y="84.084602"
           id="use6819" />
        <use
           height="100%"
           width="100%"
           x="243.66299"
           xlink:href="#equation_12_09"
           y="85.579002"
           id="use6821" />
        <use
           height="100%"
           width="100%"
           x="241.683"
           xlink:href="#equation_12_10"
           y="94.700401"
           id="use6823" />
        <use
           height="100%"
           width="100%"
           x="241.683"
           xlink:href="#equation_12_10"
           y="98.685501"
           id="use6825" />
        <use
           height="100%"
           width="100%"
           x="241.683"
           xlink:href="#equation_12_10"
           y="102.671"
           id="use6827" />
        <use
           height="100%"
           width="100%"
           x="236.43201"
           xlink:href="#equation_12_00"
           y="114.626"
           id="use6829" />
        <use
           height="100%"
           width="100%"
           x="242.11301"
           xlink:href="#equation_12_07"
           y="116.12"
           id="use6831" />
        <use
           height="100%"
           width="100%"
           x="254.68401"
           xlink:href="#equation_12_02"
           y="64.485703"
           id="use6833" />
        <use
           height="100%"
           width="100%"
           x="254.68401"
           xlink:href="#equation_12_06"
           y="82.020103"
           id="use6835" />
        <use
           height="100%"
           width="100%"
           x="254.68401"
           xlink:href="#equation_12_06"
           y="87.997803"
           id="use6837" />
        <use
           height="100%"
           width="100%"
           x="254.68401"
           xlink:href="#equation_12_06"
           y="93.975403"
           id="use6839" />
        <use
           height="100%"
           width="100%"
           x="254.68401"
           xlink:href="#equation_12_04"
           y="100.352"
           id="use6841" />
      </g>
    </g>
    <g
       title="\[ y= \left ( \begin{array}{c} y_1 \\ y_2 \\ \vdots \\ y_p \end{array} \right ) \]"
       style="fill:#000000"
       id="equation_14"
       transform="translate(163.25119,247.89985)">
      <defs
         id="defs7308">
        <path
           id="equation_14_00"
           d="m 4.84184,-3.79577 c 0.03985,-0.13947 0.03985,-0.1594 0.03985,-0.22914 0,-0.17932 -0.13947,-0.26899 -0.28891,-0.26899 -0.09963,0 -0.25903,0.05978 -0.3487,0.20922 -0.01992,0.04981 -0.09962,0.35865 -0.13947,0.53798 -0.06974,0.25903 -0.13948,0.52802 -0.19926,0.79701 l -0.44831,1.793277 c -0.03985,0.149439 -0.46825,0.846824 -1.12578,0.846824 -0.5081,0 -0.61769,-0.438356 -0.61769,-0.806974 0,-0.458277 0.16937,-1.075967 0.5081,-1.952677 0.1594,-0.40847 0.19925,-0.51806 0.19925,-0.71731 0,-0.44832 -0.3188,-0.81694 -0.81693,-0.81694 -0.946456,0 -1.315073,1.44459 -1.315073,1.53425 0,0.09963 0.099626,0.09963 0.119551,0.09963 0.099627,0 0.109589,-0.01993 0.159402,-0.17933 0.268992,-0.93649 0.6675,-1.23537 1.00623,-1.23537 0.0797,0 0.24906,0 0.24906,0.31881 0,0.24906 -0.09962,0.50809 -0.16936,0.69738 -0.39851,1.05604 -0.57783,1.62391 -0.57783,2.09215 0,0.88668 0.62764,1.185559 1.21544,1.185559 0.38854,0 0.72727,-0.1693648 1.00622,-0.448319 C 3.16812,0.179328 3.04857,0.667497 2.65006,1.19552 2.39103,1.53425 2.01245,1.82316 1.55417,1.82316 c -0.13948,0 -0.587794,-0.02988 -0.757159,-0.41843 0.159402,0 0.288919,0 0.428389,-0.11955 C 1.32503,1.19552 1.42466,1.066 1.42466,0.876712 1.42466,0.56787 1.15567,0.52802 1.05604,0.52802 c -0.229141,0 -0.557908,0.159402 -0.557908,0.64757 0,0.49813 0.438356,0.86675 1.056038,0.86675 1.02615,0 2.05231,-0.9066 2.33126,-2.03237736 L 4.84184,-3.79577 Z"
           inkscape:connector-curvature="0" />
        <path
           id="equation_14_01"
           d="m 3.72603,17.6339 c 0.21918,0 0.27895,0 0.27895,-0.1395 0.01993,-6.9838 0.8269,-12.78207 4.31382,-17.653802 0.06974,-0.089664 0.06974,-0.109589 0.06974,-0.129515 0,-0.099626 -0.06974,-0.099626 -0.22914,-0.099626 -0.1594,0 -0.17933,0 -0.19925,0.019925 C 7.9203,-0.33873 6.65504,1.11582 5.64882,3.11831 4.33375,5.74844 3.50685,8.76712 3.13823,12.3935 c -0.02989,0.3089 -0.2391,2.3811 -0.2391,4.7422 l 0,0.3886 c 0.00996,0.1096 0.06974,0.1096 0.27895,0.1096 l 0.54795,0 z"
           inkscape:connector-curvature="0" />
        <path
           id="equation_14_02"
           d="M 5.80822,17.1357 C 5.80822,11.0486 4.72229,7.48194 4.41345,6.47572 3.73599,4.26401 2.63014,1.93275 0.966376,-0.119552 0.816936,-0.298879 0.777086,-0.348692 0.737235,-0.368618 0.71731,-0.37858 0.707347,-0.388543 0.547945,-0.388543 c -0.149439,0 -0.229141,0 -0.229141,0.099626 0,0.019926 0,0.039851 0.129515,0.2191785 C 3.91532,4.7721 4.6924,10.7497 4.70237,17.4944 c 0,0.1395 0.05977,0.1395 0.27895,0.1395 l 0.54795,0 c 0.20921,0 0.26899,0 0.27895,-0.1096 l 0,-0.3886 z"
           inkscape:connector-curvature="0" />
        <path
           id="equation_14_03"
           d="m 3.17808,-0.498132 c -0.20921,0 -0.26899,0 -0.27895,0.109589 L 2.89913,0 c 0,6.08717 1.08593,9.6538 1.39477,10.66 0.67746,2.2117 1.78331,4.543 3.44707,6.5953 0.14944,0.1793 0.18929,0.2291 0.22914,0.2491 0.01993,0.0099 0.02989,0.0199 0.18929,0.0199 0.1594,0 0.22914,0 0.22914,-0.0996 0,-0.02 0,-0.0399 -0.05977,-0.1296 C 5.01121,12.6924 4.01494,7.15318 4.00498,-0.358655 c 0,-0.139477 -0.05977,-0.139477 -0.27895,-0.139477 l -0.54795,0 z"
           inkscape:connector-curvature="0" />
        <path
           id="equation_14_04"
           d="M 5.80822,-0.388543 C 5.79826,-0.498132 5.73848,-0.498132 5.52927,-0.498132 l -0.54795,0 c -0.21918,0 -0.27895,0 -0.27895,0.139477 0,1.026152 -0.00997,3.397265 -0.269,5.877955 -0.53798,5.1507 -1.86301,8.7173 -4.044827,11.7758 -0.069739,0.0897 -0.069739,0.1096 -0.069739,0.1296 0,0.0996 0.079702,0.0996 0.229141,0.0996 0.159402,0 0.179328,0 0.199253,-0.0199 C 0.787049,17.4745 2.0523,16.0199 3.05853,14.0174 4.3736,11.3873 5.2005,8.36862 5.56912,4.74222 5.599,4.43337 5.80822,2.36115 5.80822,0 l 0,-0.388543 z"
           inkscape:connector-curvature="0" />
        <path
           id="equation_14_05"
           d="m 4.00498,0.169365 c 0,-0.2590288 -0.00996,-0.2689914 -0.27895,-0.2689914 l -0.54795,0 c -0.26899,0 -0.27895,0.0099626 -0.27895,0.2689914 l 0,5.638855 c 0,0.25903 0.00996,0.26899 0.27895,0.26899 l 0.54795,0 c 0.26899,0 0.27895,-0.00996 0.27895,-0.26899 l 0,-5.638855 z"
           inkscape:connector-curvature="0" />
        <path
           id="equation_14_06"
           d="m 5.80822,0.169365 c 0,-0.2590288 -0.00996,-0.2689914 -0.27895,-0.2689914 l -0.54795,0 c -0.26899,0 -0.27895,0.0099626 -0.27895,0.2689914 l 0,5.638855 c 0,0.25903 0.00996,0.26899 0.27895,0.26899 l 0.54795,0 c 0.26899,0 0.27895,-0.00996 0.27895,-0.26899 l 0,-5.638855 z"
           inkscape:connector-curvature="0" />
        <path
           id="equation_14_07"
           d="M 0.523039,0.850809 C 0.474222,1.04608 0.460274,1.10187 0.18132,1.10187 c -0.09066,0 -0.18829385,0 -0.18829385,0.14645 0,0.07671 0.06276465,0.10461 0.09763385,0.10461 0.18132,0 0.411457,-0.0279 0.599751,-0.0279 0.237111,0 0.502119,0.0279 0.732259,0.0279 0.06276,0 0.13947,-0.02093 0.13947,-0.15343 0,-0.09763 -0.09763,-0.09763 -0.18132,-0.09763 -0.15342,0 -0.34172,0 -0.34172,-0.08369 0,-0.034867 0.04882,-0.216187 0.07672,-0.320795 0.08368,-0.369614 0.18132,-0.7462019 0.25803,-1.039104 0.08368,0.139477 0.29987,0.4114575 0.7183,0.4114575 0.85081,0 1.79228,-0.9414695 1.79228,-1.9805685 0,-0.81594 -0.56488,-1.16464 -1.04607,-1.16464 -0.43238,0 -0.802,0.2929 -0.99029,0.48817 -0.11856,-0.39751 -0.50909,-0.48817 -0.71831,-0.48817 -0.271977,0 -0.439349,0.18132 -0.550931,0.36962 -0.139477,0.23711 -0.251058,0.65554 -0.251058,0.69738 0,0.09066 0.097634,0.09066 0.118555,0.09066 0.097634,0 0.104608,-0.02092 0.153425,-0.20921 0.104608,-0.40449 0.237111,-0.75318 0.509089,-0.75318 0.18132,0 0.23014,0.15343 0.23014,0.34172 0,0.07671 -0.01395,0.16737 -0.02092,0.20921 L 0.523039,0.850809 Z M 1.8411,-2.23861 c 0.40448,-0.53698 0.75317,-0.64159 0.97633,-0.64159 0.27198,0 0.5091,0.20224 0.5091,0.67646 0,0.28593 -0.15343,0.99726 -0.36264,1.401747 -0.17435,0.341719 -0.51607,0.676464 -0.87174,0.676464 -0.49514,0 -0.62067,-0.536987 -0.62067,-0.606725 0,-0.027895 0.01395,-0.076712 0.02092,-0.104608 L 1.8411,-2.23861 Z"
           inkscape:connector-curvature="0" />
        <path
           id="equation_14_08"
           d="m 2.33624,-4.43537 c 0,-0.18829 -0.01395,-0.19527 -0.20922,-0.19527 -0.44632,0.43936 -1.08094,0.44633 -1.366871,0.44633 l 0,0.25106 c 0.167373,0 0.627651,0 1.011211,-0.19527 l 0,3.556664 c 0,0.230137 0,0.320797 -0.69739,0.320797 l -0.265004,0 0,0.251059 c 0.12553,-0.00697385 0.983314,-0.0278954 1.241344,-0.0278954 0.21619,0 1.0949,0.02092155 1.24832,0.0278954 l 0,-0.251059 -0.26501,0 c -0.69738,0 -0.69738,-0.09066 -0.69738,-0.320797 l 0,-3.863514 z"
           inkscape:connector-curvature="0" />
        <path
           id="equation_14_09"
           d="m 3.52179,-1.26924 -0.23711,0 c -0.02092,0.15342 -0.09066,0.564881 -0.18132,0.63462 -0.05579,0.041843 -0.59277,0.041843 -0.69041,0.041843 l -1.28319,0 C 1.86202,-1.24134 2.1061,-1.43661 2.52453,-1.76438 3.0406,-2.17584 3.52179,-2.60822 3.52179,-3.27073 c 0,-0.84384 -0.73922,-1.35991 -1.63188,-1.35991 -0.86475,0 -1.450558,0.60673 -1.450558,1.24832 0,0.35567 0.299876,0.39054 0.369614,0.39054 0.167373,0 0.369614,-0.11856 0.369614,-0.36961 0,-0.12553 -0.04882,-0.36962 -0.411457,-0.36962 0.21619,-0.49514 0.690407,-0.64857 1.018187,-0.64857 0.69738,0 1.06002,0.54396 1.06002,1.10885 0,0.60672 -0.43238,1.08792 -0.65554,1.33897 L 0.509091,-0.27198 C 0.439352,-0.209215 0.439352,-0.195268 0.439352,0 L 3.31258,0 3.52179,-1.26924 Z"
           inkscape:connector-curvature="0" />
        <path
           id="equation_14_10"
           d="m 1.91283,-0.52802 c 0,-0.288916 -0.23911,-0.52802 -0.52802,-0.52802 -0.28891,0 -0.528023,0.239104 -0.528023,0.52802 C 0.856787,-0.239104 1.09589,0 1.38481,0 1.67373,0 1.91283,-0.239103 1.91283,-0.52802 Z"
           inkscape:connector-curvature="0" />
        <path
           id="equation_14_11"
           d="m 6.84433,-3.25778 c 0.14944,0 0.33873,0 0.33873,-0.19926 0,-0.19926 -0.18929,-0.19925 -0.32876,-0.19925 l -5.967625,0 c -0.139477,0 -0.328767,0 -0.328767,0.19925 0,0.19925 0.18929,0.19926 0.33873,0.19926 l 5.947692,0 z m 0.00997,1.93275 c 0.13947,0 0.32876,0 0.32876,-0.19925 0,-0.19925 -0.18929,-0.19926 -0.33873,-0.19926 l -5.947692,0 c -0.14944,0 -0.33873,0 -0.33873,0.19926 0,0.19926 0.18929,0.19925 0.328767,0.19925 l 5.967625,0 z"
           inkscape:connector-curvature="0" />
      </defs>
      <g
         id="equation_14_g">
        <use
           id="use7323"
           y="93.477203"
           xlink:href="#equation_14_00"
           x="205.918"
           width="100%"
           height="100%" />
        <use
           id="use7325"
           y="93.477203"
           xlink:href="#equation_14_11"
           x="213.909"
           width="100%"
           height="100%" />
        <use
           id="use7327"
           y="64.485703"
           xlink:href="#equation_14_01"
           x="224.396"
           width="100%"
           height="100%" />
        <use
           id="use7329"
           y="82.020103"
           xlink:href="#equation_14_05"
           x="224.396"
           width="100%"
           height="100%" />
        <use
           id="use7331"
           y="87.997803"
           xlink:href="#equation_14_05"
           x="224.396"
           width="100%"
           height="100%" />
        <use
           id="use7333"
           y="93.975403"
           xlink:href="#equation_14_05"
           x="224.396"
           width="100%"
           height="100%" />
        <use
           id="use7335"
           y="100.352"
           xlink:href="#equation_14_03"
           x="224.396"
           width="100%"
           height="100%" />
        <use
           id="use7337"
           y="72.129501"
           xlink:href="#equation_14_00"
           x="238.162"
           width="100%"
           height="100%" />
        <use
           id="use7339"
           y="73.623901"
           xlink:href="#equation_14_08"
           x="243.02901"
           width="100%"
           height="100%" />
        <use
           id="use7341"
           y="84.084602"
           xlink:href="#equation_14_00"
           x="238.162"
           width="100%"
           height="100%" />
        <use
           id="use7343"
           y="85.579002"
           xlink:href="#equation_14_09"
           x="243.02901"
           width="100%"
           height="100%" />
        <use
           id="use7345"
           y="94.700401"
           xlink:href="#equation_14_10"
           x="241.45599"
           width="100%"
           height="100%" />
        <use
           id="use7347"
           y="98.685501"
           xlink:href="#equation_14_10"
           x="241.45599"
           width="100%"
           height="100%" />
        <use
           id="use7349"
           y="102.671"
           xlink:href="#equation_14_10"
           x="241.45599"
           width="100%"
           height="100%" />
        <use
           id="use7351"
           y="114.626"
           xlink:href="#equation_14_00"
           x="238.095"
           width="100%"
           height="100%" />
        <use
           id="use7353"
           y="116.12"
           xlink:href="#equation_14_07"
           x="242.961"
           width="100%"
           height="100%" />
        <use
           id="use7355"
           y="64.485703"
           xlink:href="#equation_14_02"
           x="252.56599"
           width="100%"
           height="100%" />
        <use
           id="use7357"
           y="82.020103"
           xlink:href="#equation_14_06"
           x="252.56599"
           width="100%"
           height="100%" />
        <use
           id="use7359"
           y="87.997803"
           xlink:href="#equation_14_06"
           x="252.56599"
           width="100%"
           height="100%" />
        <use
           id="use7361"
           y="93.975403"
           xlink:href="#equation_14_06"
           x="252.56599"
           width="100%"
           height="100%" />
        <use
           id="use7363"
           y="100.352"
           xlink:href="#equation_14_04"
           x="252.56599"
           width="100%"
           height="100%" />
      </g>
    </g>
    <g
       transform="translate(84.509179,247.89995)"
       id="equation_15"
       style="fill:#000000"
       title="\[ x= \left ( \begin{array}{c} x_1 \\ x_2 \\ x_3  \\ \vdots \\ x_{n-1} \\ x_{n} \end{array} \right ) \]">
      <defs
         id="defs7902">
        <path
           inkscape:connector-curvature="0"
           d="m 5.18854,-1.57609 c 0.11158,0 0.27896,0 0.27896,-0.16737 0,-0.17435 -0.1604,-0.17435 -0.27896,-0.17435 l -4.15641,0 c -0.111582,0 -0.278954,0 -0.278954,0.16737 0,0.17435 0.160398,0.17435 0.278954,0.17435 l 4.15641,0 z"
           id="equation_15_00" />
        <path
           inkscape:connector-curvature="0"
           d="m 0.850809,-0.439352 c -0.027895,0.09066 -0.069738,0.265006 -0.069738,0.285927 0,0.153425 0.125529,0.2231635 0.237109,0.2231635 0.12553,0 0.23711,-0.09066 0.27198,-0.1534247 0.03487,-0.0627647 0.09066,-0.2859278 0.12553,-0.4323788 0.03487,-0.132503 0.11158,-0.4533 0.15343,-0.627645 0.04184,-0.15343 0.08368,-0.30685 0.11855,-0.46725 0.07671,-0.28593 0.09066,-0.34172 0.2929,-0.62765 0.19527,-0.27895 0.52304,-0.64159 1.04608,-0.64159 0.40448,0 0.41146,0.35567 0.41146,0.48817 0,0.41843 -0.29988,1.19253 -0.41146,1.48543 -0.07671,0.195267 -0.10461,0.258032 -0.10461,0.376588 0,0.369613 0.30685,0.5997505 0.66252,0.5997505 0.69738,0 1.00423,-0.9623915 1.00423,-1.0669985 0,-0.09066 -0.09066,-0.09066 -0.11158,-0.09066 -0.09763,0 -0.10461,0.04184 -0.1325,0.118555 -0.1604,0.557908 -0.46028,0.843836 -0.73923,0.843836 -0.14645,0 -0.17435,-0.097634 -0.17435,-0.244085 0,-0.160398 0.03487,-0.251058 0.1604,-0.564882 0.08369,-0.216184 0.36962,-0.955414 0.36962,-1.345954 0,-0.67646 -0.53699,-0.79502 -0.9066,-0.79502 -0.57883,0 -0.96937,0.35567 -1.17858,0.63462 -0.04882,-0.48119 -0.46028,-0.63462 -0.74621,-0.63462 -0.299872,0 -0.460271,0.21619 -0.550931,0.37659 -0.153424,0.25803 -0.251058,0.65554 -0.251058,0.69041 0,0.09066 0.097634,0.09066 0.118555,0.09066 0.097634,0 0.104608,-0.02092 0.153425,-0.20921 0.104608,-0.41146 0.237111,-0.75318 0.509089,-0.75318 0.18132,0 0.23014,0.15343 0.23014,0.34172 0,0.1325 -0.06277,0.39053 -0.11158,0.57883 -0.04881,0.1883 -0.11856,0.47422 -0.15343,0.62765 l -0.223161,0.892648 z"
           id="equation_15_01" />
        <path
           inkscape:connector-curvature="0"
           d="m 3.72603,17.6339 c 0.21918,0 0.27895,0 0.27895,-0.1395 0.01993,-6.9838 0.8269,-12.78207 4.31382,-17.653802 0.06974,-0.089664 0.06974,-0.109589 0.06974,-0.129515 0,-0.099626 -0.06974,-0.099626 -0.22914,-0.099626 -0.1594,0 -0.17933,0 -0.19925,0.019925 C 7.9203,-0.33873 6.65504,1.11582 5.64882,3.11831 4.33375,5.74844 3.50685,8.76712 3.13823,12.3935 c -0.02989,0.3089 -0.2391,2.3811 -0.2391,4.7422 l 0,0.3886 c 0.00996,0.1096 0.06974,0.1096 0.27895,0.1096 l 0.54795,0 z"
           id="equation_15_02" />
        <path
           inkscape:connector-curvature="0"
           d="M 5.80822,17.1357 C 5.80822,11.0486 4.72229,7.48194 4.41345,6.47572 3.73599,4.26401 2.63014,1.93275 0.966376,-0.119552 0.816936,-0.298879 0.777086,-0.348692 0.737235,-0.368618 0.71731,-0.37858 0.707347,-0.388543 0.547945,-0.388543 c -0.149439,0 -0.229141,0 -0.229141,0.099626 0,0.019926 0,0.039851 0.129515,0.2191785 C 3.91532,4.7721 4.6924,10.7497 4.70237,17.4944 c 0,0.1395 0.05977,0.1395 0.27895,0.1395 l 0.54795,0 c 0.20921,0 0.26899,0 0.27895,-0.1096 l 0,-0.3886 z"
           id="equation_15_03" />
        <path
           inkscape:connector-curvature="0"
           d="m 3.17808,-0.498132 c -0.20921,0 -0.26899,0 -0.27895,0.109589 L 2.89913,0 c 0,6.08717 1.08593,9.6538 1.39477,10.66 0.67746,2.2117 1.78331,4.543 3.44707,6.5953 0.14944,0.1793 0.18929,0.2291 0.22914,0.2491 0.01993,0.0099 0.02989,0.0199 0.18929,0.0199 0.1594,0 0.22914,0 0.22914,-0.0996 0,-0.02 0,-0.0399 -0.05977,-0.1296 C 5.01121,12.6924 4.01494,7.15318 4.00498,-0.358655 c 0,-0.139477 -0.05977,-0.139477 -0.27895,-0.139477 l -0.54795,0 z"
           id="equation_15_04" />
        <path
           inkscape:connector-curvature="0"
           d="M 5.80822,-0.388543 C 5.79826,-0.498132 5.73848,-0.498132 5.52927,-0.498132 l -0.54795,0 c -0.21918,0 -0.27895,0 -0.27895,0.139477 0,1.026152 -0.00997,3.397265 -0.269,5.877955 -0.53798,5.1507 -1.86301,8.7173 -4.044827,11.7758 -0.069739,0.0897 -0.069739,0.1096 -0.069739,0.1296 0,0.0996 0.079702,0.0996 0.229141,0.0996 0.159402,0 0.179328,0 0.199253,-0.0199 C 0.787049,17.4745 2.0523,16.0199 3.05853,14.0174 4.3736,11.3873 5.2005,8.36862 5.56912,4.74222 5.599,4.43337 5.80822,2.36115 5.80822,0 l 0,-0.388543 z"
           id="equation_15_05" />
        <path
           inkscape:connector-curvature="0"
           d="m 4.00498,0.169365 c 0,-0.2590288 -0.00996,-0.2689914 -0.27895,-0.2689914 l -0.54795,0 c -0.26899,0 -0.27895,0.0099626 -0.27895,0.2689914 l 0,5.638855 c 0,0.25903 0.00996,0.26899 0.27895,0.26899 l 0.54795,0 c 0.26899,0 0.27895,-0.00996 0.27895,-0.26899 l 0,-5.638855 z"
           id="equation_15_06" />
        <path
           inkscape:connector-curvature="0"
           d="m 5.80822,0.169365 c 0,-0.2590288 -0.00996,-0.2689914 -0.27895,-0.2689914 l -0.54795,0 c -0.26899,0 -0.27895,0.0099626 -0.27895,0.2689914 l 0,5.638855 c 0,0.25903 0.00996,0.26899 0.27895,0.26899 l 0.54795,0 c 0.26899,0 0.27895,-0.00996 0.27895,-0.26899 l 0,-5.638855 z"
           id="equation_15_07" />
        <path
           inkscape:connector-curvature="0"
           d="m 2.33624,-4.43537 c 0,-0.18829 -0.01395,-0.19527 -0.20922,-0.19527 -0.44632,0.43936 -1.08094,0.44633 -1.366871,0.44633 l 0,0.25106 c 0.167373,0 0.627651,0 1.011211,-0.19527 l 0,3.556664 c 0,0.230137 0,0.320797 -0.69739,0.320797 l -0.265004,0 0,0.251059 c 0.12553,-0.00697385 0.983314,-0.0278954 1.241344,-0.0278954 0.21619,0 1.0949,0.02092155 1.24832,0.0278954 l 0,-0.251059 -0.26501,0 c -0.69738,0 -0.69738,-0.09066 -0.69738,-0.320797 l 0,-3.863514 z"
           id="equation_15_08" />
        <path
           inkscape:connector-curvature="0"
           d="m 3.52179,-1.26924 -0.23711,0 c -0.02092,0.15342 -0.09066,0.564881 -0.18132,0.63462 -0.05579,0.041843 -0.59277,0.041843 -0.69041,0.041843 l -1.28319,0 C 1.86202,-1.24134 2.1061,-1.43661 2.52453,-1.76438 3.0406,-2.17584 3.52179,-2.60822 3.52179,-3.27073 c 0,-0.84384 -0.73922,-1.35991 -1.63188,-1.35991 -0.86475,0 -1.450558,0.60673 -1.450558,1.24832 0,0.35567 0.299876,0.39054 0.369614,0.39054 0.167373,0 0.369614,-0.11856 0.369614,-0.36961 0,-0.12553 -0.04882,-0.36962 -0.411457,-0.36962 0.21619,-0.49514 0.690407,-0.64857 1.018187,-0.64857 0.69738,0 1.06002,0.54396 1.06002,1.10885 0,0.60672 -0.43238,1.08792 -0.65554,1.33897 L 0.509091,-0.27198 C 0.439352,-0.209215 0.439352,-0.195268 0.439352,0 L 3.31258,0 3.52179,-1.26924 Z"
           id="equation_15_09" />
        <path
           inkscape:connector-curvature="0"
           d="m 1.90386,-2.32927 c 0.54396,0 0.9345,0.37659 0.9345,1.12279 0,0.864761 -0.50212,1.1227938 -0.9066,1.1227938 -0.27896,0 -0.89266,-0.0767128 -1.185558,-0.4881698 0.327768,-0.013947 0.404478,-0.244084 0.404478,-0.390535 0,-0.223159 -0.167367,-0.383559 -0.383557,-0.383559 -0.195267,0 -0.390535,0.11855 -0.390535,0.404481 0,0.655541 0.725282,1.080946 1.569112,1.080946 0.96937,0 1.63886,-0.648568 1.63886,-1.345957 0,-0.54396 -0.44633,-1.08792 -1.21345,-1.24831 0.73225,-0.26501 0.99726,-0.78805 0.99726,-1.21345 0,-0.55094 -0.63462,-0.9624 -1.40872,-0.9624 -0.7741,0 -1.366873,0.37659 -1.366873,0.9345 0,0.23711 0.153425,0.36961 0.36264,0.36961 0.216193,0 0.355663,-0.16039 0.355663,-0.35566 0,-0.20224 -0.13947,-0.34869 -0.355663,-0.36264 C 1.1995,-4.35168 1.6807,-4.42839 1.93873,-4.42839 c 0.31382,0 0.75318,0.15342 0.75318,0.76015 0,0.2929 -0.09764,0.61369 -0.27896,0.82988 -0.23014,0.26501 -0.4254,0.27896 -0.7741,0.29988 -0.17434,0.01395 -0.18829,0.01395 -0.22316,0.02092 -0.01395,0 -0.06974,0.01395 -0.06974,0.09066 0,0.09763 0.06277,0.09763 0.18132,0.09763 l 0.37659,0 z"
           id="equation_15_10" />
        <path
           inkscape:connector-curvature="0"
           d="m 3.32752,-3.00872 c 0.05978,-0.25903 0.28892,-1.17559 0.9863,-1.17559 0.04982,0 0.28892,0 0.49814,0.12952 -0.27896,0.04981 -0.47821,0.29887 -0.47821,0.53798 0,0.1594 0.10959,0.34869 0.37858,0.34869 0.21918,0 0.53798,-0.17933 0.53798,-0.57783 0,-0.51806 -0.58779,-0.65754 -0.92652,-0.65754 -0.57784,0 -0.92653,0.52802 -1.04608,0.75716 -0.24907,-0.65753 -0.78705,-0.75716 -1.07597,-0.75716 -1.03611,0 -1.603982,1.28518 -1.603982,1.53425 0,0.09963 0.099627,0.09963 0.119552,0.09963 0.079701,0 0.109589,-0.01993 0.129514,-0.10959 0.338726,-1.05604 0.996266,-1.30511 1.334996,-1.30511 0.18929,0 0.53798,0.08966 0.53798,0.6675 0,0.30884 -0.16936,0.97634 -0.53798,2.37111 -0.1594,0.61768 -0.5081,1.036111 -0.94645,1.036111 -0.05978,0 -0.288919,0 -0.498135,-0.129514 0.249066,-0.049814 0.468245,-0.259029 0.468245,-0.537983 0,-0.268994 -0.219179,-0.348694 -0.368618,-0.348694 -0.298879,0 -0.547945,0.25903 -0.547945,0.577835 0,0.4582812 0.498132,0.657534 0.936483,0.657534 0.65754,0 1.01619,-0.697385 1.04608,-0.757161 0.11955,0.368618 0.47821,0.757161 1.07597,0.757161 1.02615,0 1.59402,-1.285179 1.59402,-1.534249 0,-0.09962 -0.08966,-0.09962 -0.11955,-0.09962 -0.08967,0 -0.10959,0.03985 -0.12952,0.10959 -0.32876,1.065998 -1.00622,1.305101 -1.32503,1.305101 -0.38854,0 -0.54794,-0.318805 -0.54794,-0.657534 0,-0.219178 0.05977,-0.438357 0.16936,-0.876717 l 0.33873,-1.36488 z"
           id="equation_15_11" />
        <path
           inkscape:connector-curvature="0"
           d="m 1.91283,-0.52802 c 0,-0.288916 -0.23911,-0.52802 -0.52802,-0.52802 -0.28891,0 -0.528023,0.239104 -0.528023,0.52802 C 0.856787,-0.239104 1.09589,0 1.38481,0 1.67373,0 1.91283,-0.239103 1.91283,-0.52802 Z"
           id="equation_15_12" />
        <path
           inkscape:connector-curvature="0"
           d="m 6.84433,-3.25778 c 0.14944,0 0.33873,0 0.33873,-0.19926 0,-0.19926 -0.18929,-0.19925 -0.32876,-0.19925 l -5.967625,0 c -0.139477,0 -0.328767,0 -0.328767,0.19925 0,0.19925 0.18929,0.19926 0.33873,0.19926 l 5.947692,0 z m 0.00997,1.93275 c 0.13947,0 0.32876,0 0.32876,-0.19925 0,-0.19925 -0.18929,-0.19926 -0.33873,-0.19926 l -5.947692,0 c -0.14944,0 -0.33873,0 -0.33873,0.19926 0,0.19926 0.18929,0.19925 0.328767,0.19925 l 5.967625,0 z"
           id="equation_15_13" />
      </defs>
      <g
         id="equation_15_g">
        <use
           height="100%"
           width="100%"
           x="199.77901"
           xlink:href="#equation_15_11"
           y="105.432"
           id="use7919" />
        <use
           height="100%"
           width="100%"
           x="208.21899"
           xlink:href="#equation_15_13"
           y="105.432"
           id="use7921" />
        <use
           height="100%"
           width="100%"
           x="218.70599"
           xlink:href="#equation_15_02"
           y="64.485603"
           id="use7923" />
        <use
           height="100%"
           width="100%"
           x="218.70599"
           xlink:href="#equation_15_06"
           y="82.019997"
           id="use7925" />
        <use
           height="100%"
           width="100%"
           x="218.70599"
           xlink:href="#equation_15_06"
           y="87.997597"
           id="use7927" />
        <use
           height="100%"
           width="100%"
           x="218.70599"
           xlink:href="#equation_15_06"
           y="93.975304"
           id="use7929" />
        <use
           height="100%"
           width="100%"
           x="218.70599"
           xlink:href="#equation_15_06"
           y="99.952904"
           id="use7931" />
        <use
           height="100%"
           width="100%"
           x="218.70599"
           xlink:href="#equation_15_06"
           y="105.931"
           id="use7933" />
        <use
           height="100%"
           width="100%"
           x="218.70599"
           xlink:href="#equation_15_06"
           y="111.908"
           id="use7935" />
        <use
           height="100%"
           width="100%"
           x="218.70599"
           xlink:href="#equation_15_06"
           y="117.886"
           id="use7937" />
        <use
           height="100%"
           width="100%"
           x="218.70599"
           xlink:href="#equation_15_04"
           y="124.262"
           id="use7939" />
        <use
           height="100%"
           width="100%"
           x="237.981"
           xlink:href="#equation_15_11"
           y="72.129501"
           id="use7941" />
        <use
           height="100%"
           width="100%"
           x="243.653"
           xlink:href="#equation_15_08"
           y="73.623901"
           id="use7943" />
        <use
           height="100%"
           width="100%"
           x="237.981"
           xlink:href="#equation_15_11"
           y="84.084602"
           id="use7945" />
        <use
           height="100%"
           width="100%"
           x="243.653"
           xlink:href="#equation_15_09"
           y="85.579002"
           id="use7947" />
        <use
           height="100%"
           width="100%"
           x="237.981"
           xlink:href="#equation_15_11"
           y="96.039803"
           id="use7949" />
        <use
           height="100%"
           width="100%"
           x="243.653"
           xlink:href="#equation_15_10"
           y="97.534203"
           id="use7951" />
        <use
           height="100%"
           width="100%"
           x="241.679"
           xlink:href="#equation_15_12"
           y="106.656"
           id="use7953" />
        <use
           height="100%"
           width="100%"
           x="241.679"
           xlink:href="#equation_15_12"
           y="110.641"
           id="use7955" />
        <use
           height="100%"
           width="100%"
           x="241.679"
           xlink:href="#equation_15_12"
           y="114.626"
           id="use7957" />
        <use
           height="100%"
           width="100%"
           x="232.405"
           xlink:href="#equation_15_11"
           y="126.581"
           id="use7959" />
        <use
           height="100%"
           width="100%"
           x="238.078"
           xlink:href="#equation_15_01"
           y="128.075"
           id="use7961" />
        <use
           height="100%"
           width="100%"
           x="242.98399"
           xlink:href="#equation_15_00"
           y="128.075"
           id="use7963" />
        <use
           height="100%"
           width="100%"
           x="249.188"
           xlink:href="#equation_15_08"
           y="128.075"
           id="use7965" />
        <use
           height="100%"
           width="100%"
           x="237.504"
           xlink:href="#equation_15_11"
           y="138.536"
           id="use7967" />
        <use
           height="100%"
           width="100%"
           x="243.177"
           xlink:href="#equation_15_01"
           y="140.03"
           id="use7969" />
        <use
           height="100%"
           width="100%"
           x="258.70099"
           xlink:href="#equation_15_03"
           y="64.485603"
           id="use7971" />
        <use
           height="100%"
           width="100%"
           x="258.70099"
           xlink:href="#equation_15_07"
           y="82.019997"
           id="use7973" />
        <use
           height="100%"
           width="100%"
           x="258.70099"
           xlink:href="#equation_15_07"
           y="87.997597"
           id="use7975" />
        <use
           height="100%"
           width="100%"
           x="258.70099"
           xlink:href="#equation_15_07"
           y="93.975304"
           id="use7977" />
        <use
           height="100%"
           width="100%"
           x="258.70099"
           xlink:href="#equation_15_07"
           y="99.952904"
           id="use7979" />
        <use
           height="100%"
           width="100%"
           x="258.70099"
           xlink:href="#equation_15_07"
           y="105.931"
           id="use7981" />
        <use
           height="100%"
           width="100%"
           x="258.70099"
           xlink:href="#equation_15_07"
           y="111.908"
           id="use7983" />
        <use
           height="100%"
           width="100%"
           x="258.70099"
           xlink:href="#equation_15_07"
           y="117.886"
           id="use7985" />
        <use
           height="100%"
           width="100%"
           x="258.70099"
           xlink:href="#equation_15_05"
           y="124.262"
           id="use7987" />
      </g>
    </g>
    <path
       inkscape:connector-curvature="0"
       id="path8474-3"
       d="m 232.5423,290.70926 45.66607,0"
       style="fill:none;fill-rule:evenodd;stroke:#000000;stroke-width:0.84349525;stroke-linecap:butt;stroke-linejoin:miter;stroke-miterlimit:4;stroke-dasharray:none;stroke-opacity:1;marker-end:url(#Arrow1Mend-09)" />
    <path
       inkscape:connector-curvature="0"
       id="path8474-3-5"
       d="m 355.46678,284.8025 45.66607,0"
       style="fill:none;fill-rule:evenodd;stroke:#000000;stroke-width:0.84349525;stroke-linecap:butt;stroke-linejoin:miter;stroke-miterlimit:4;stroke-dasharray:none;stroke-opacity:1;marker-end:url(#Arrow1Mend-09-3)" />
    <path
       inkscape:connector-curvature="0"
       id="path8474-3-1"
       d="m 355.46678,269.45409 45.66607,0"
       style="fill:none;fill-rule:evenodd;stroke:#000000;stroke-width:0.84349525;stroke-linecap:butt;stroke-linejoin:miter;stroke-miterlimit:4;stroke-dasharray:none;stroke-opacity:1;marker-end:url(#Arrow1Mend-09-6)" />
    <path
       inkscape:connector-curvature="0"
       id="path8474-3-8"
       d="m 355.46678,259.68693 45.66607,0"
       style="fill:none;fill-rule:evenodd;stroke:#000000;stroke-width:0.84349525;stroke-linecap:butt;stroke-linejoin:miter;stroke-miterlimit:4;stroke-dasharray:none;stroke-opacity:1;marker-end:url(#Arrow1Mend-09-1)" />
    <path
       inkscape:connector-curvature="0"
       id="path8474-3-3"
       d="m 232.5423,264.80307 45.66607,0"
       style="fill:none;fill-rule:evenodd;stroke:#000000;stroke-width:0.84349525;stroke-linecap:butt;stroke-linejoin:miter;stroke-miterlimit:4;stroke-dasharray:none;stroke-opacity:1;marker-end:url(#Arrow1Mend-09-67)" />
    <path
       inkscape:connector-curvature="0"
       id="path8474-3-84"
       d="m 232.5423,255.50101 45.66607,0"
       style="fill:none;fill-rule:evenodd;stroke:#000000;stroke-width:0.84349525;stroke-linecap:butt;stroke-linejoin:miter;stroke-miterlimit:4;stroke-dasharray:none;stroke-opacity:1;marker-end:url(#Arrow1Mend-09-5)" />
    <path
       inkscape:connector-curvature="0"
       id="path5288"
       d="m 278.87593,239.50157 75.34671,0.4651 0.4651,61.85871 -75.81181,0 z"
       style="fill:none;fill-rule:evenodd;stroke:#000000;stroke-width:1px;stroke-linecap:butt;stroke-linejoin:miter;stroke-opacity:1" />
    <g
       title="\[ G(s) \]"
       style="fill:#000000"
       id="equation_06"
       transform="matrix(1.9701535,0,0,2.2604876,-141.03373,107.64808)">
      <defs
         id="defs4653">
        <path
           id="equation_06_00"
           d="m 7.57161,-6.92403 c 0,-0.02989 -0.01993,-0.09963 -0.10959,-0.09963 -0.02989,0 -0.03985,0.00996 -0.14944,0.11955 l -0.69739,0.76712 c -0.08966,-0.13947 -0.54794,-0.88667 -1.6538,-0.88667 -2.22166,0 -4.463258,2.20174 -4.463258,4.51307 0,1.584064 1.105858,2.729768 2.719798,2.729768 0.43836,0 0.88668,-0.089664 1.24533,-0.2391033 0.49813,-0.1992527 0.68742,-0.4084687 0.86675,-0.6077207 0.08967,0.249066 0.34869,0.61768336 0.44832,0.61768336 0.04981,0 0.06974,-0.02988796 0.06974,-0.03985056 C 5.868,-0.0697385 5.96762,-0.448319 6.01743,-0.657534 L 6.20672,-1.42466 c 0.03986,-0.16936 0.08967,-0.33873 0.12952,-0.50809 0.10959,-0.44832 0.11955,-0.46825 0.68742,-0.47821 0.04981,0 0.1594,-0.00996 0.1594,-0.19925 0,-0.06974 -0.04981,-0.10959 -0.12951,-0.10959 -0.22914,0 -0.81694,0.02989 -1.04608,0.02989 -0.30884,0 -1.08593,-0.02989 -1.39477,-0.02989 -0.08966,0 -0.20921,0 -0.20921,0.19925 0,0.10959 0.0797,0.10959 0.29888,0.10959 0.00996,0 0.29888,0 0.52802,0.01993 0.25902,0.02988 0.30884,0.05977 0.30884,0.18929 0,0.08966 -0.10959,0.53798 -0.20922,0.9066 -0.27895,1.095887 -1.57409,1.2054762 -1.92279,1.2054762 -0.95641,0 -2.00249,-0.5678702 -2.00249,-2.0921562 0,-0.30884 0.09963,-1.95268 1.14571,-3.24782 0.53798,-0.67746 1.50435,-1.28518 2.49066,-1.28518 1.01619,0 1.60398,0.76712 1.60398,1.92279 0,0.39851 -0.02989,0.40847 -0.02989,0.50809 0,0.09962 0.10959,0.09963 0.14944,0.09963 0.12952,0 0.12952,-0.01992 0.17933,-0.19925 l 0.62765,-2.54047 z"
           inkscape:connector-curvature="0" />
        <path
           id="equation_06_01"
           d="m 3.89539,-3.72603 c -0.27895,0.00997 -0.4782,0.22914 -0.4782,0.44832 0,0.13948 0.08966,0.28892 0.30884,0.28892 0.21918,0 0.45828,-0.16937 0.45828,-0.55791 0,-0.44832 -0.42839,-0.85679 -1.18556,-0.85679 -1.31506,0 -1.68368,1.01619 -1.68368,1.45455 0,0.77708 0.73723,0.92652 1.02615,0.9863 0.51806,0.09963 1.03611,0.20922 1.03611,0.75716 0,0.259029 -0.22914,1.095891 -1.42465,1.095891 -0.13948,0 -0.9066,0 -1.135744,-0.52802 0.378584,0.049813 0.627644,-0.249066 0.627644,-0.528021 0,-0.22914 -0.1594,-0.34869 -0.36861,-0.34869 -0.259034,0 -0.557913,0.20921 -0.557913,0.657533 0,0.56787 0.567873,0.966376 1.424653,0.966376 1.61395,0 2.0025,-1.205479 2.0025,-1.653799 0,-0.35865 -0.18929,-0.60772 -0.30885,-0.72727 C 3.36737,-2.55044 3.07846,-2.60025 2.6401,-2.68991 2.28144,-2.76961 1.88294,-2.83935 1.88294,-3.28767 c 0,-0.28892 0.2391,-0.89664 1.11581,-0.89664 0.24907,0 0.7472,0.06974 0.89664,0.45828 z"
           inkscape:connector-curvature="0" />
        <path
           id="equation_06_02"
           d="m 3.29763,2.39103 c 0,-0.02988 0,-0.04981 -0.16936,-0.21917 -1.24533,-1.255297 -1.56414,-3.138236 -1.56414,-4.66252 0,-1.7335 0.37858,-3.467 1.60399,-4.71233 0.12951,-0.11955 0.12951,-0.13948 0.12951,-0.16936 0,-0.06974 -0.03985,-0.09963 -0.09962,-0.09963 -0.09963,0 -0.99627,0.67746 -1.58406,1.94271 -0.5081,1.0959 -0.627649,2.20175 -0.627649,3.03861 0,0.77709 0.109589,1.982565 0.657539,3.108344 0.59775,1.225406 1.45454,1.872976 1.55417,1.872976 0.05977,0 0.09962,-0.02989 0.09962,-0.09963 z"
           inkscape:connector-curvature="0" />
        <path
           id="equation_06_03"
           d="m 2.8792,-2.49066 c 0,-0.77709 -0.10959,-1.98257 -0.65753,-3.10834 -0.59776,-1.22541 -1.454547,-1.87298 -1.554173,-1.87298 -0.059776,0 -0.099627,0.03985 -0.099627,0.09963 0,0.02988 0,0.04981 0.189291,0.22914 0.976339,0.9863 1.544209,2.57036 1.544209,4.65255 0,1.703611 -0.36862,3.457036 -1.603985,4.71233 C 0.56787,2.34122 0.56787,2.36115 0.56787,2.39103 c 0,0.05978 0.039851,0.09963 0.099627,0.09963 0.099626,0 0.996263,-0.67746 1.584063,-1.942715 C 2.75965,-0.547945 2.8792,-1.6538 2.8792,-2.49066 Z"
           inkscape:connector-curvature="0" />
      </defs>
      <g
         id="equation_06_g">
        <use
           id="use4660"
           y="74.719803"
           xlink:href="#equation_06_00"
           x="223.498"
           width="100%"
           height="100%" />
        <use
           id="use4662"
           y="74.719803"
           xlink:href="#equation_06_02"
           x="231.302"
           width="100%"
           height="100%" />
        <use
           id="use4664"
           y="74.719803"
           xlink:href="#equation_06_01"
           x="235.162"
           width="100%"
           height="100%" />
        <use
           id="use4666"
           y="74.719803"
           xlink:href="#equation_06_03"
           x="239.814"
           width="100%"
           height="100%" />
      </g>
    </g>
  </g>
</svg>
