<?xml version="1.0" encoding="UTF-8" standalone="no"?>
<!-- Created with Inkscape (http://www.inkscape.org/) -->

<svg
   xmlns:ns0="http://www.iki.fi/pav/software/textext/"
   xmlns:dc="http://purl.org/dc/elements/1.1/"
   xmlns:cc="http://creativecommons.org/ns#"
   xmlns:rdf="http://www.w3.org/1999/02/22-rdf-syntax-ns#"
   xmlns:svg="http://www.w3.org/2000/svg"
   xmlns="http://www.w3.org/2000/svg"
   xmlns:sodipodi="http://sodipodi.sourceforge.net/DTD/sodipodi-0.dtd"
   xmlns:inkscape="http://www.inkscape.org/namespaces/inkscape"
   width="210mm"
   height="297mm"
   viewBox="0 0 744.09448819 1052.3622047"
   id="svg2"
   version="1.1"
   inkscape:version="0.91 r"
   sodipodi:docname="optimal.svg">
  <sodipodi:namedview
     id="base"
     pagecolor="#ffffff"
     bordercolor="#666666"
     borderopacity="1.0"
     inkscape:pageopacity="0.0"
     inkscape:pageshadow="2"
     inkscape:zoom="0.9899495"
     inkscape:cx="227.47935"
     inkscape:cy="885.04939"
     inkscape:document-units="px"
     inkscape:current-layer="layer1"
     showgrid="false"
     inkscape:window-width="1920"
     inkscape:window-height="1031"
     inkscape:window-x="0"
     inkscape:window-y="0"
     inkscape:window-maximized="1" />
  <defs
     id="defs4">
    <marker
       inkscape:stockid="Arrow1Lstart"
       orient="auto"
       refY="0.0"
       refX="0.0"
       id="marker7127"
       style="overflow:visible"
       inkscape:isstock="true">
      <path
         id="path7129"
         d="M 0.0,0.0 L 5.0,-5.0 L -12.5,0.0 L 5.0,5.0 L 0.0,0.0 z "
         style="fill-rule:evenodd;stroke:#000000;stroke-width:1pt;stroke-opacity:1;fill:#000000;fill-opacity:1"
         transform="scale(0.8) translate(12.5,0)" />
    </marker>
    <marker
       inkscape:isstock="true"
       style="overflow:visible"
       id="Arrow1Lstart"
       refX="0.0"
       refY="0.0"
       orient="auto"
       inkscape:stockid="Arrow1Lstart">
      <path
         transform="scale(0.8) translate(12.5,0)"
         style="fill-rule:evenodd;stroke:#000000;stroke-width:1pt;stroke-opacity:1;fill:#000000;fill-opacity:1"
         d="M 0.0,0.0 L 5.0,-5.0 L -12.5,0.0 L 5.0,5.0 L 0.0,0.0 z "
         id="path4146" />
    </marker>
    <marker
       inkscape:isstock="true"
       style="overflow:visible;"
       id="marker4462"
       refX="0.0"
       refY="0.0"
       orient="auto"
       inkscape:stockid="Arrow1Lend">
      <path
         transform="scale(0.8) rotate(180) translate(12.5,0)"
         style="fill-rule:evenodd;stroke:#000000;stroke-width:1pt;stroke-opacity:1;fill:#000000;fill-opacity:1"
         d="M 0.0,0.0 L 5.0,-5.0 L -12.5,0.0 L 5.0,5.0 L 0.0,0.0 z "
         id="path4464" />
    </marker>
    <marker
       inkscape:isstock="true"
       style="overflow:visible;"
       id="marker4422"
       refX="0.0"
       refY="0.0"
       orient="auto"
       inkscape:stockid="Arrow1Lend">
      <path
         transform="scale(0.8) rotate(180) translate(12.5,0)"
         style="fill-rule:evenodd;stroke:#000000;stroke-width:1pt;stroke-opacity:1;fill:#000000;fill-opacity:1"
         d="M 0.0,0.0 L 5.0,-5.0 L -12.5,0.0 L 5.0,5.0 L 0.0,0.0 z "
         id="path4424" />
    </marker>
    <marker
       inkscape:isstock="true"
       style="overflow:visible;"
       id="Arrow1Lend"
       refX="0.0"
       refY="0.0"
       orient="auto"
       inkscape:stockid="Arrow1Lend">
      <path
         transform="scale(0.8) rotate(180) translate(12.5,0)"
         style="fill-rule:evenodd;stroke:#000000;stroke-width:1pt;stroke-opacity:1;fill:#000000;fill-opacity:1"
         d="M 0.0,0.0 L 5.0,-5.0 L -12.5,0.0 L 5.0,5.0 L 0.0,0.0 z "
         id="path4149" />
    </marker>
  </defs>
  <metadata
     id="metadata7">
    <rdf:RDF>
      <cc:Work
         rdf:about="">
        <dc:format>image/svg+xml</dc:format>
        <dc:type
           rdf:resource="http://purl.org/dc/dcmitype/StillImage" />
        <dc:title></dc:title>
      </cc:Work>
    </rdf:RDF>
  </metadata>
  <g
     id="layer1"
     inkscape:groupmode="layer"
     inkscape:label="レイヤー 1">
    <path
       inkscape:connector-curvature="0"
       id="path4136"
       d="m 122.4931,89.923479 0,281.428571"
       style="fill:none;fill-rule:evenodd;stroke:#000000;stroke-width:1px;stroke-linecap:butt;stroke-linejoin:miter;stroke-opacity:1;marker-start:url(#Arrow1Lstart)" />
    <path
       inkscape:connector-curvature="0"
       id="path4140"
       d="m 63.207378,307.78063 509.725202,0"
       style="fill:none;fill-rule:evenodd;stroke:#000000;stroke-width:1;stroke-linecap:butt;stroke-linejoin:miter;stroke-miterlimit:4;stroke-dasharray:none;stroke-opacity:1;marker-end:url(#Arrow1Lend)" />
    <path
       sodipodi:nodetypes="ccssscccc"
       inkscape:connector-curvature="0"
       id="path4534"
       d="m 121.77881,154.92348 c 66.99317,1.94867 113.18343,153.95944 115.00001,152.14286 0,0 10.44836,17.18677 18.90273,25.37209 14.80516,14.33399 38.11438,20.34922 58.24012,19.62791 12.09806,-0.43359 36.03819,-6.00188 46.42125,-13.27669 21.15262,-14.8204 30.72161,-30.29473 30.72161,-30.29473 23.85739,-21.41703 49.28571,-17.85715 49.28571,-17.85715 18.17944,-1.42313 42.85714,17.14286 42.85714,17.14286 0,0 23.10219,14.28571 43.57143,15.71428"
       style="fill:none;fill-rule:evenodd;stroke:#000000;stroke-width:3;stroke-linecap:butt;stroke-linejoin:miter;stroke-miterlimit:4;stroke-dasharray:none;stroke-opacity:1" />
    <path
       id="path5174"
       d="m 132.60415,157.3668 -9.13868,12.85352 0,1.72461 10.1543,-14.2793 c -0.33909,-0.10282 -0.67792,-0.20448 -1.01562,-0.29883 z m 10.79492,4.33594 -19.9336,28.03516 0,1.72461 20.82227,-29.28516 c -0.29624,-0.15955 -0.59312,-0.32096 -0.88867,-0.47461 z m 9.63086,5.9707 -29.56446,41.58203 0,1.72657 30.375,-42.71875 c -0.26996,-0.19815 -0.54092,-0.39632 -0.81054,-0.58985 z m 8.65625,7.34571 -38.22071,53.7539 0,1.72461 38.95118,-54.77929 c -0.24705,-0.23827 -0.48614,-0.46648 -0.73047,-0.69922 z m 8.05859,8.18359 -46.2793,65.08789 0,1.72461 46.97461,-66.06641 c -0.22612,-0.24679 -0.46515,-0.49784 -0.69531,-0.74609 z m 7.54883,8.90039 -53.82813,75.70508 0,1.72461 54.4668,-76.60352 c -0.21306,-0.27836 -0.42555,-0.55083 -0.63867,-0.82617 z m 7.02344,9.63867 -60.85157,85.58399 0,1.72461 61.45704,-86.43164 c -0.20171,-0.29579 -0.40371,-0.58388 -0.60547,-0.87696 z m 6.64843,10.16797 -67.5,94.9336 0,0.0605 1.18165,0 66.89062,-94.07422 c -0.19074,-0.30884 -0.38146,-0.6135 -0.57227,-0.91992 z m 6.32618,10.6211 -59.99024,84.37304 1.22461,0 59.3086,-83.41406 c -0.181,-0.31965 -0.36191,-0.64151 -0.54297,-0.95898 z m 6.04492,11.01367 -52.15821,73.35937 1.22461,0 51.45118,-72.36133 c -0.17278,-0.32973 -0.34473,-0.6703 -0.51758,-0.99804 z m 5.78906,11.3789 -44.07031,61.98047 1.22461,0 43.34961,-60.96679 c -0.16795,-0.3438 -0.33589,-0.67177 -0.50391,-1.01368 z m 5.55664,11.69922 -35.75,50.28125 0.58789,0 0.63867,0 35.00586,-49.23242 c -0.1609,-0.35111 -0.32144,-0.69945 -0.48242,-1.04883 z m 5.36524,11.97461 -27.23633,38.30664 1.22461,0 26.47265,-37.22851 c -0.1539,-0.35626 -0.30695,-0.72347 -0.46093,-1.07813 z m 5.16406,12.25391 -18.52344,26.05273 1.22461,0 17.75,-24.96289 c -0.14988,-0.36651 -0.30121,-0.72485 -0.45117,-1.08984 z m 5.00976,12.47265 -9.65625,13.58008 1.22657,0 8.86523,-12.46875 c -0.18527,-0.47174 -0.24766,-0.63263 -0.43555,-1.11133 z"
       style="color:#000000;font-style:normal;font-variant:normal;font-weight:normal;font-stretch:normal;font-size:medium;line-height:normal;font-family:sans-serif;text-indent:0;text-align:start;text-decoration:none;text-decoration-line:none;text-decoration-style:solid;text-decoration-color:#000000;letter-spacing:normal;word-spacing:normal;text-transform:none;direction:ltr;block-progression:tb;writing-mode:lr-tb;baseline-shift:baseline;text-anchor:start;white-space:normal;clip-rule:nonzero;display:inline;overflow:visible;visibility:visible;opacity:1;isolation:auto;mix-blend-mode:normal;color-interpolation:sRGB;color-interpolation-filters:linearRGB;solid-color:#000000;solid-opacity:1;fill:#000000;fill-opacity:1;fill-rule:evenodd;stroke:none;stroke-width:1px;stroke-linecap:butt;stroke-linejoin:miter;stroke-miterlimit:4;stroke-dasharray:none;stroke-dashoffset:0;stroke-opacity:1;color-rendering:auto;image-rendering:auto;shape-rendering:auto;text-rendering:auto;enable-background:accumulate"
       inkscape:connector-curvature="0" />
    <path
       id="path5174-6"
       d="m 247.18618,308.66368 -4.39453,6.18164 c 0.21183,0.3079 0.40286,0.56664 0.61132,0.86719 l 5.01172,-7.04883 -1.22851,0 z m 13.8789,0 -11.24804,15.81836 c 0.22001,0.27839 0.43471,0.53853 0.65234,0.80859 l 11.82227,-16.62695 -1.22657,0 z m 13.87696,0 -17.3418,24.38867 c 0.24673,0.2288 0.49428,0.46204 0.74219,0.68359 l 17.82617,-25.07226 -1.22656,0 z m 13.87695,0 -22.15039,31.15429 c 0.2845,0.16956 0.57663,0.33672 0.86719,0.50391 l 22.50976,-31.6582 -1.22656,0 z m 13.87695,0 -25.7539,36.22265 c 0.3174,0.12723 0.63781,0.25098 0.95898,0.375 l 26.02344,-36.59765 -1.22852,0 z m 13.87696,0.002 -28.33399,39.85156 c 0.34645,0.0877 0.69318,0.17398 1.04102,0.25782 l 28.51953,-40.10743 c -0.42908,-1.1e-4 -0.79569,-0.002 -1.22656,-0.002 z m 13.86718,0.0156 -29.93554,42.10156 c 0.37992,0.043 0.75997,0.0873 1.13867,0.125 l 30.02148,-42.22461 c -0.40384,-5.4e-4 -0.81828,-0.001 -1.22461,-0.002 z m 13.86328,0.0195 -30.24218,42.53125 c 0.42551,-0.0209 0.85736,-0.0522 1.28515,-0.0801 l 30.18164,-42.44727 c -0.45233,-0.001 -0.76754,-0.003 -1.22461,-0.004 z m 13.84376,0.0488 -28.71876,40.38867 c 0.47576,-0.0996 0.96323,-0.20572 1.44922,-0.3125 l 28.49219,-40.07227 c -0.39057,-0.002 -0.82613,-0.002 -1.22265,-0.004 z m 13.82812,0.0684 -25.3418,35.64063 c 0.56062,-0.20173 1.12083,-0.40503 1.66407,-0.61523 l 24.89648,-35.01563 c -0.44116,-0.003 -0.76147,-0.007 -1.21875,-0.01 z m 13.78516,0.12891 -14.21094,19.98633 c 0.28897,-0.25096 0.56728,-0.48587 0.86133,-0.74414 0.80393,-0.70613 1.68762,-1.52705 2.61328,-2.41602 l 11.94922,-16.80468 c -0.34343,-0.007 -0.80029,-0.0146 -1.21289,-0.0215 z"
       style="color:#000000;font-style:normal;font-variant:normal;font-weight:normal;font-stretch:normal;font-size:medium;line-height:normal;font-family:sans-serif;text-indent:0;text-align:start;text-decoration:none;text-decoration-line:none;text-decoration-style:solid;text-decoration-color:#000000;letter-spacing:normal;word-spacing:normal;text-transform:none;direction:ltr;block-progression:tb;writing-mode:lr-tb;baseline-shift:baseline;text-anchor:start;white-space:normal;clip-rule:nonzero;display:inline;overflow:visible;visibility:visible;opacity:1;isolation:auto;mix-blend-mode:normal;color-interpolation:sRGB;color-interpolation-filters:linearRGB;solid-color:#000000;solid-opacity:1;fill:#000000;fill-opacity:1;fill-rule:evenodd;stroke:none;stroke-width:1px;stroke-linecap:butt;stroke-linejoin:miter;stroke-miterlimit:4;stroke-dasharray:none;stroke-dashoffset:0;stroke-opacity:1;color-rendering:auto;image-rendering:auto;shape-rendering:auto;text-rendering:auto;enable-background:accumulate"
       inkscape:connector-curvature="0" />
    <path
       id="path5174-9"
       d="m 511.09047,308.37657 -6.33203,8.9043 c 0.32089,0.12107 0.64181,0.24034 0.97266,0.36132 l 6.58789,-9.26562 -1.22852,0 z m 13.87891,0 -8.91406,12.53711 c 0.34653,0.0933 0.69567,0.19159 1.0293,0.27734 l 8.38281,-11.78906 0,-1.02539 -0.49805,0 z m -26.55078,0.0312 c -0.41271,0.002 -0.83346,0.004 -1.23047,0.006 l -3.00977,4.23242 c 0.30908,0.14535 0.61031,0.28238 0.92188,0.42773 l 3.31836,-4.66601 z"
       style="color:#000000;font-style:normal;font-variant:normal;font-weight:normal;font-stretch:normal;font-size:medium;line-height:normal;font-family:sans-serif;text-indent:0;text-align:start;text-decoration:none;text-decoration-line:none;text-decoration-style:solid;text-decoration-color:#000000;letter-spacing:normal;word-spacing:normal;text-transform:none;direction:ltr;block-progression:tb;writing-mode:lr-tb;baseline-shift:baseline;text-anchor:start;white-space:normal;clip-rule:nonzero;display:inline;overflow:visible;visibility:visible;opacity:1;isolation:auto;mix-blend-mode:normal;color-interpolation:sRGB;color-interpolation-filters:linearRGB;solid-color:#000000;solid-opacity:1;fill:#000000;fill-opacity:1;fill-rule:evenodd;stroke:none;stroke-width:1px;stroke-linecap:butt;stroke-linejoin:miter;stroke-miterlimit:4;stroke-dasharray:none;stroke-dashoffset:0;stroke-opacity:1;color-rendering:auto;image-rendering:auto;shape-rendering:auto;text-rendering:auto;enable-background:accumulate"
       inkscape:connector-curvature="0" />
    <path
       id="path5174-9-4"
       d="m 440.06313,291.33555 -11.0332,15.51758 c 0.43483,2.5e-4 0.7784,0.002 1.22461,0.002 l 10.99804,-15.46875 c -0.40252,-0.0158 -0.76274,-0.0372 -1.18945,-0.0508 z m -13.13477,0.68164 c -0.46437,0.0672 -0.92468,0.1439 -1.38476,0.22071 l -10.38281,14.60156 c 0.31641,9.4e-4 0.90034,0.001 1.22656,0.002 l 10.54101,-14.82422 z m 25.87891,0.91016 -9.89844,13.92383 c 0.45961,-3e-4 0.77373,-0.002 1.22852,-0.002 l 9.67383,-13.60547 c -0.33271,-0.10323 -0.67801,-0.22424 -1.00391,-0.31641 z m 10.86133,4.24414 -6.86524,9.65625 c 0.39045,-9.4e-4 0.84575,-0.003 1.22852,-0.004 l 6.54492,-9.20703 c -0.30252,-0.14789 -0.61528,-0.30529 -0.9082,-0.44531 z m -54.39063,0.15039 c -0.63118,0.29717 -1.26206,0.61144 -1.89062,0.93164 l -6.02539,8.47461 c 0.31563,0.006 0.87004,0.01 1.2168,0.0156 l 6.69921,-9.42188 z m 64.48633,5.16797 -3.05664,4.29883 c 0.44694,-0.002 0.81546,-0.005 1.23242,-0.008 l 2.69532,-3.79102 c -0.28316,-0.1645 -0.57502,-0.33089 -0.8711,-0.5 z"
       style="color:#000000;font-style:normal;font-variant:normal;font-weight:normal;font-stretch:normal;font-size:medium;line-height:normal;font-family:sans-serif;text-indent:0;text-align:start;text-decoration:none;text-decoration-line:none;text-decoration-style:solid;text-decoration-color:#000000;letter-spacing:normal;word-spacing:normal;text-transform:none;direction:ltr;block-progression:tb;writing-mode:lr-tb;baseline-shift:baseline;text-anchor:start;white-space:normal;clip-rule:nonzero;display:inline;overflow:visible;visibility:visible;opacity:1;isolation:auto;mix-blend-mode:normal;color-interpolation:sRGB;color-interpolation-filters:linearRGB;solid-color:#000000;solid-opacity:1;fill:#000000;fill-opacity:1;fill-rule:evenodd;stroke:none;stroke-width:1px;stroke-linecap:butt;stroke-linejoin:miter;stroke-miterlimit:4;stroke-dasharray:none;stroke-dashoffset:0;stroke-opacity:1;color-rendering:auto;image-rendering:auto;shape-rendering:auto;text-rendering:auto;enable-background:accumulate"
       inkscape:connector-curvature="0" />
    <path
       style="fill:none;fill-rule:evenodd;stroke:#000000;stroke-width:0.75478655px;stroke-linecap:butt;stroke-linejoin:miter;stroke-opacity:1;marker-start:url(#marker7127)"
       d="m 184.52587,228.24775 c 8.32924,-19.02588 14.99661,-35.41904 27.58204,-54.11503 19.19636,-22.18491 24.98581,-19.01164 38.71052,-19.733"
       id="path7125"
       inkscape:connector-curvature="0"
       sodipodi:nodetypes="ccc" />
    <g
       style="font-style:normal;font-variant:normal;font-weight:normal;font-stretch:normal;letter-spacing:normal;word-spacing:normal;text-anchor:start;fill:none;fill-opacity:1;fill-rule:evenodd;stroke:#000000;stroke-linecap:butt;stroke-linejoin:miter;stroke-miterlimit:10.43299961;stroke-dasharray:none;stroke-dashoffset:0;stroke-opacity:1"
       id="g8349"
       transform="matrix(3.918212,0,0,-3.918212,-786.19229,2893.5414)"
       xml:space="preserve"
       stroke-miterlimit="10.433"
       font-style="normal"
       font-variant="normal"
       font-weight="normal"
       font-stretch="normal"
       font-size-adjust="none"
       letter-spacing="normal"
       word-spacing="normal"
       ns0:text="$x$"
       ns0:preamble="/home/dazai/skimura/doctor/work/automaticControl/SLIDE/figure/additional/preamble"><path
         style="fill:#000000;stroke-width:0"
         inkscape:connector-curvature="0"
         d="m 226.76,710.12 0,0.03 0.01,0.03 0.01,0.03 0.01,0.04 0.01,0.04 0.01,0.04 0.01,0.04 0.02,0.05 0.01,0.04 0.02,0.05 0.02,0.05 0.02,0.05 0.02,0.05 0.03,0.05 0.02,0.05 0.03,0.05 0.03,0.05 0.03,0.04 0.03,0.05 0.04,0.04 0.04,0.05 0.04,0.04 0.04,0.04 0.04,0.03 0.05,0.03 0.05,0.03 0.02,0.01 0.03,0.02 0.02,0.01 0.03,0.01 0.03,0.01 0.03,0 0.03,0.01 0.02,0.01 0.04,0 0.03,0 0.03,0.01 0.03,0 c 0.05,0 0.29,0 0.5,-0.13 -0.28,-0.05 -0.48,-0.3 -0.48,-0.54 0,-0.16 0.11,-0.35 0.38,-0.35 0.22,0 0.54,0.18 0.54,0.58 0,0.52 -0.59,0.66 -0.93,0.66 -0.58,0 -0.93,-0.53 -1.04,-0.76 -0.25,0.66 -0.79,0.76 -1.08,0.76 -1.03,0 -1.6,-1.29 -1.6,-1.53 0,-0.1 0.1,-0.1 0.12,-0.1 0.08,0 0.11,0.02 0.13,0.11 0.34,1.05 0.99,1.3 1.33,1.3 0.19,0 0.54,-0.09 0.54,-0.67 0,-0.31 -0.17,-0.97 -0.54,-2.36 -0.16,-0.62 -0.51,-1.04 -0.94,-1.04 -0.06,0 -0.29,0 -0.5,0.13 0.25,0.05 0.47,0.26 0.47,0.54 0,0.27 -0.22,0.35 -0.37,0.35 -0.3,0 -0.55,-0.26 -0.55,-0.58 0,-0.46 0.5,-0.65 0.94,-0.65 0.65,0 1.01,0.69 1.04,0.75 0.12,-0.37 0.48,-0.75 1.07,-0.75 1.03,0 1.6,1.28 1.6,1.53 0,0.1 -0.09,0.1 -0.12,0.1 -0.09,0 -0.11,-0.05 -0.13,-0.11 -0.33,-1.07 -1.01,-1.31 -1.33,-1.31 -0.38,0 -0.54,0.32 -0.54,0.66 0,0.22 0.06,0.44 0.17,0.87 z"
         id="path8351" /></g>    <g
       style="font-style:normal;font-variant:normal;font-weight:normal;font-stretch:normal;letter-spacing:normal;word-spacing:normal;text-anchor:start;fill:none;fill-opacity:1;fill-rule:evenodd;stroke:#000000;stroke-linecap:butt;stroke-linejoin:miter;stroke-miterlimit:10.43299961;stroke-dasharray:none;stroke-dashoffset:0;stroke-opacity:1"
       ns0:preamble="/home/dazai/skimura/doctor/work/automaticControl/SLIDE/figure/additional/preamble"
       ns0:text="$t$"
       word-spacing="normal"
       letter-spacing="normal"
       font-size-adjust="none"
       font-stretch="normal"
       font-weight="normal"
       font-variant="normal"
       font-style="normal"
       stroke-miterlimit="10.433"
       xml:space="preserve"
       transform="matrix(3.918212,0,0,-3.918212,-334.25119,3114.7292)"
       id="g8437"><path
         id="path8439"
         d="m 225.48,711.1 0.94,0 c 0.2,0 0.29,0 0.29,0.2 0,0.11 -0.09,0.11 -0.27,0.11 l -0.88,0 c 0.36,1.41 0.41,1.61 0.41,1.67 0,0.16 -0.12,0.26 -0.29,0.26 -0.03,0 -0.31,-0.01 -0.4,-0.35 l -0.38,-1.58 -0.94,0 c -0.2,0 -0.3,0 -0.3,-0.19 0,-0.12 0.08,-0.12 0.28,-0.12 l 0.88,0 c -0.72,-2.82 -0.76,-2.99 -0.76,-3.17 0,-0.54 0.38,-0.91 0.91,-0.91 1.02,0 1.59,1.45 1.59,1.53 0,0.1 -0.08,0.1 -0.12,0.1 -0.09,0 -0.1,-0.04 -0.15,-0.14 -0.43,-1.04 -0.96,-1.28 -1.3,-1.28 -0.2,0 -0.3,0.13 -0.3,0.46 0,0.24 0.02,0.31 0.05,0.48 z"
         inkscape:connector-curvature="0"
         style="fill:#000000;stroke-width:0" /></g>    <g
       style="font-style:normal;font-variant:normal;font-weight:normal;font-stretch:normal;letter-spacing:normal;word-spacing:normal;text-anchor:start;fill:none;fill-opacity:1;fill-rule:evenodd;stroke:#000000;stroke-linecap:butt;stroke-linejoin:miter;stroke-miterlimit:10.43299961;stroke-dasharray:none;stroke-dashoffset:0;stroke-opacity:1"
       ns0:preamble="/home/dazai/skimura/doctor/work/automaticControl/SLIDE/figure/additional/preamble"
       ns0:text="$\\int_0^\\infty |x| dt \\simeq \\int_0^\\infty x^2 dt$"
       word-spacing="normal"
       letter-spacing="normal"
       font-size-adjust="none"
       font-stretch="normal"
       font-weight="normal"
       font-variant="normal"
       font-style="normal"
       stroke-miterlimit="10.433"
       xml:space="preserve"
       transform="matrix(4.1532067,0,0,-4.1532067,-676.9821,3102.3986)"
       id="content"><path
         id="path4333"
         d="m 226.14,706.41 -0.01,-0.08 0,-0.07 -0.02,-0.14 -0.01,-0.14 -0.02,-0.13 -0.02,-0.12 -0.02,-0.12 -0.02,-0.11 -0.02,-0.1 -0.02,-0.1 -0.03,-0.09 -0.03,-0.09 -0.02,-0.08 -0.03,-0.08 -0.03,-0.07 -0.03,-0.07 -0.03,-0.06 -0.04,-0.06 -0.03,-0.05 -0.04,-0.05 -0.04,-0.04 -0.04,-0.04 -0.04,-0.03 -0.04,-0.03 -0.04,-0.03 -0.04,-0.03 -0.05,-0.02 -0.05,-0.01 -0.04,-0.01 -0.05,-0.01 -0.05,-0.01 -0.05,-0.01 -0.06,0 c -0.13,0 -0.42,0.03 -0.63,0.21 0.29,0.04 0.37,0.27 0.37,0.41 0,0.29 -0.22,0.42 -0.41,0.42 -0.2,0 -0.42,-0.13 -0.42,-0.43 0,-0.48 0.5,-0.83 1.09,-0.83 0.95,0 1.43,0.87 1.65,1.76 0.12,0.52 0.48,3.41 0.56,4.51 l 0.19,2.48 c 0.14,1.82 0.48,2.07 0.93,2.07 0.1,0 0.41,-0.02 0.62,-0.21 -0.29,-0.04 -0.37,-0.26 -0.37,-0.4 0,-0.29 0.22,-0.42 0.41,-0.42 0.2,0 0.42,0.13 0.42,0.43 0,0.47 -0.5,0.82 -1.09,0.82 -0.95,0 -1.34,-0.96 -1.51,-1.72 -0.12,-0.54 -0.47,-3.34 -0.56,-4.55 z"
         inkscape:connector-curvature="0"
         style="fill:#000000;stroke-width:0" /><path
         id="path4335"
         d="m 234.1,714.59 -0.03,0.04 -0.04,0.04 -0.03,0.04 -0.03,0.03 -0.03,0.03 -0.02,0.04 -0.03,0.03 -0.03,0.02 -0.02,0.03 -0.02,0.03 -0.03,0.02 -0.02,0.03 -0.02,0.02 -0.02,0.02 -0.02,0.02 -0.02,0.02 -0.04,0.04 -0.04,0.04 -0.04,0.03 -0.04,0.04 -0.04,0.03 -0.04,0.03 -0.03,0.02 -0.02,0.02 -0.02,0.01 -0.03,0.02 c -0.42,0.31 -0.87,0.43 -1.25,0.43 -0.86,0 -1.49,-0.74 -1.49,-1.58 l 0.19,0 c 0,0.67 0.55,1.19 1.19,1.19 0.65,0 1.09,-0.53 1.76,-1.33 l 0,0 c -0.28,-0.45 -0.88,-1.16 -1.73,-1.16 -0.72,0 -1.22,0.64 -1.22,1.3 l -0.19,0 c 0,-0.81 0.6,-1.56 1.47,-1.56 0.97,0 1.64,0.79 1.89,1.16 0.37,-0.43 0.49,-0.55 0.75,-0.74 0.42,-0.3 0.87,-0.42 1.25,-0.42 0.87,0 1.49,0.73 1.49,1.57 l -0.19,0 c 0,-0.67 -0.54,-1.19 -1.19,-1.19 -0.64,0 -1.09,0.53 -1.76,1.34 l 0,0 c 0.28,0.45 0.89,1.15 1.74,1.15 0.71,0 1.21,-0.63 1.21,-1.3 l 0.19,0 c 0,0.81 -0.6,1.57 -1.47,1.57 -0.96,0 -1.64,-0.8 -1.89,-1.17 z"
         inkscape:connector-curvature="0"
         style="fill:#000000;stroke-width:0" /><path
         id="path4337"
         d="m 231.73,705.8 0,0.14 0,0.14 -0.01,0.13 -0.01,0.13 -0.01,0.12 -0.01,0.12 -0.02,0.11 -0.02,0.12 -0.03,0.1 -0.03,0.11 -0.03,0.1 -0.04,0.1 -0.04,0.1 -0.05,0.1 -0.05,0.09 -0.03,0.05 -0.03,0.04 c -0.22,0.32 -0.65,0.6 -1.2,0.6 l 0,-0.19 c 0.37,0 0.73,-0.23 0.86,-0.64 0.11,-0.37 0.12,-0.87 0.12,-1.48 0,-0.51 0,-1.03 -0.09,-1.47 -0.14,-0.63 -0.62,-0.78 -0.89,-0.78 l 0,0 c -0.33,0 -0.75,0.19 -0.89,0.76 -0.1,0.41 -0.1,0.98 -0.1,1.49 0,0.51 0,1.04 0.11,1.42 0.14,0.55 0.59,0.7 0.88,0.7 l 0,0.19 c -1.62,0 -1.62,-1.9 -1.62,-2.4 0,-0.5 0,-2.36 1.62,-2.36 1.61,0 1.61,1.86 1.61,2.36 z"
         inkscape:connector-curvature="0"
         style="fill:#000000;stroke-width:0" /><path
         id="path4339"
         d="m 241.76,714.22 0,0.03 0,0.03 0,0.04 -0.01,0.01 0,0.02 0,0.01 0,0.02 0,0.02 0,0.01 -0.01,0.01 0,0.02 0,0.01 -0.01,0.01 0,0.02 -0.01,0.01 0,0.01 -0.01,0.01 -0.01,0.01 -0.01,0.01 -0.01,0.01 -0.01,0 -0.01,0.01 0,0 -0.01,0.01 -0.01,0 0,0 -0.01,0 -0.01,0.01 0,0 -0.01,0 -0.01,0 -0.01,0 -0.01,0 0,0 -0.01,0 -0.01,0.01 c -0.2,0 -0.2,-0.18 -0.2,-0.36 l 0,-9.22 c 0,-0.18 0,-0.36 0.2,-0.36 0.2,0 0.2,0.18 0.2,0.36 z"
         inkscape:connector-curvature="0"
         style="fill:#000000;stroke-width:0" /><path
         id="path4341"
         d="m 246.26,710.12 0.01,0.03 0.01,0.03 0.01,0.03 0.01,0.04 0.01,0.04 0.01,0.04 0.01,0.04 0.02,0.05 0.01,0.04 0.02,0.05 0.02,0.05 0.02,0.05 0.02,0.05 0.03,0.05 0.02,0.05 0.03,0.05 0.03,0.05 0.03,0.04 0.03,0.05 0.04,0.04 0.04,0.05 0.04,0.04 0.04,0.04 0.04,0.03 0.05,0.03 0.05,0.03 0.02,0.01 0.03,0.02 0.02,0.01 0.03,0.01 0.03,0.01 0.03,0 0.03,0.01 0.02,0.01 0.04,0 0.03,0 0.03,0.01 0.03,0 c 0.05,0 0.29,0 0.5,-0.13 -0.28,-0.05 -0.48,-0.3 -0.48,-0.54 0,-0.16 0.11,-0.35 0.38,-0.35 0.22,0 0.53,0.18 0.53,0.58 0,0.52 -0.58,0.66 -0.92,0.66 -0.58,0 -0.92,-0.53 -1.05,-0.76 -0.24,0.66 -0.78,0.76 -1.07,0.76 -1.03,0 -1.6,-1.29 -1.6,-1.53 0,-0.1 0.1,-0.1 0.12,-0.1 0.08,0 0.11,0.02 0.13,0.11 0.34,1.05 0.99,1.3 1.33,1.3 0.19,0 0.54,-0.09 0.54,-0.67 0,-0.31 -0.17,-0.97 -0.54,-2.36 -0.16,-0.62 -0.51,-1.04 -0.94,-1.04 -0.06,0 -0.29,0 -0.5,0.13 0.25,0.05 0.47,0.26 0.47,0.54 0,0.27 -0.22,0.35 -0.37,0.35 -0.3,0 -0.55,-0.26 -0.55,-0.58 0,-0.46 0.5,-0.65 0.94,-0.65 0.65,0 1.01,0.69 1.04,0.75 0.12,-0.37 0.48,-0.75 1.08,-0.75 1.02,0 1.59,1.28 1.59,1.53 0,0.1 -0.09,0.1 -0.12,0.1 -0.09,0 -0.11,-0.05 -0.13,-0.11 -0.33,-1.07 -1.01,-1.31 -1.33,-1.31 -0.38,0 -0.54,0.32 -0.54,0.66 0,0.22 0.06,0.44 0.17,0.87 z"
         inkscape:connector-curvature="0"
         style="fill:#000000;stroke-width:0" /><path
         id="path4343"
         d="m 250.22,714.22 0,0.03 0,0.03 0,0.04 0,0.01 -0.01,0.02 0,0.01 0,0.02 0,0.02 0,0.01 -0.01,0.01 0,0.02 0,0.01 -0.01,0.01 0,0.02 -0.01,0.01 0,0.01 -0.01,0.01 -0.01,0.01 -0.01,0.01 -0.01,0.01 -0.01,0 -0.01,0.01 0,0 -0.01,0.01 -0.01,0 0,0 -0.01,0 -0.01,0.01 0,0 -0.01,0 -0.01,0 -0.01,0 0,0 -0.01,0 -0.01,0 -0.01,0.01 c -0.2,0 -0.2,-0.18 -0.2,-0.36 l 0,-9.22 c 0,-0.18 0,-0.36 0.2,-0.36 0.2,0 0.2,0.18 0.2,0.36 z"
         inkscape:connector-curvature="0"
         style="fill:#000000;stroke-width:0" /><path
         id="path4345"
         d="m 256.54,713.91 0,0 0,0 0,0 0,0 0,0.01 0,0 0,0 0,0.01 0,0 0,0.01 -0.01,0 0,0 0,0.01 0,0 0,0.01 -0.01,0 0,0.01 0,0 -0.01,0.01 0,0 0,0.01 -0.01,0 0,0 0,0 0,0.01 -0.01,0 0,0 0,0 -0.01,0 0,0.01 0,0 -0.01,0 0,0 -0.01,0 0,0 0,0 -0.01,0 0,0.01 -0.01,0 0,0 -0.01,0 0,0 -0.01,0 -0.01,0 0,0 c -0.15,0 -1.1,-0.09 -1.26,-0.11 -0.08,-0.01 -0.14,-0.06 -0.14,-0.19 0,-0.12 0.09,-0.12 0.23,-0.12 0.48,0 0.5,-0.07 0.5,-0.17 l -0.03,-0.2 -0.59,-2.35 c -0.18,0.37 -0.47,0.64 -0.92,0.64 -1.16,0 -2.4,-1.47 -2.4,-2.92 0,-0.93 0.55,-1.58 1.32,-1.58 l 0.03,0.21 c -0.5,0 -0.64,0.55 -0.64,0.94 0,0.49 0.32,1.72 0.55,2.17 0.3,0.59 0.75,0.96 1.15,0.96 0.65,0 0.79,-0.82 0.79,-0.88 0,-0.06 -0.02,-0.12 -0.03,-0.17 l -0.5,-1.94 c -0.05,-0.18 -0.05,-0.2 -0.2,-0.37 -0.44,-0.55 -0.85,-0.71 -1.12,-0.71 l -0.03,-0.21 c 0.2,0 0.7,0.03 1.3,0.74 0.08,-0.42 0.43,-0.74 0.9,-0.74 0.35,0 0.58,0.22 0.74,0.54 0.17,0.36 0.3,0.97 0.3,0.99 0,0.1 -0.09,0.1 -0.12,0.1 -0.1,0 -0.11,-0.05 -0.14,-0.18 -0.17,-0.65 -0.35,-1.24 -0.76,-1.24 -0.27,0 -0.3,0.26 -0.3,0.46 0,0.24 0.03,0.31 0.06,0.48 z"
         inkscape:connector-curvature="0"
         style="fill:#000000;stroke-width:0" /><path
         id="path4347"
         d="m 258.64,711.1 0.93,0 c 0.2,0 0.3,0 0.3,0.2 0,0.11 -0.1,0.11 -0.28,0.11 l -0.87,0 c 0.36,1.41 0.41,1.61 0.41,1.67 0,0.16 -0.12,0.26 -0.29,0.26 -0.03,0 -0.31,-0.01 -0.4,-0.35 l -0.39,-1.58 -0.93,0 c -0.2,0 -0.3,0 -0.3,-0.19 0,-0.12 0.08,-0.12 0.28,-0.12 l 0.87,0 c -0.71,-2.82 -0.75,-2.99 -0.75,-3.17 0,-0.54 0.37,-0.91 0.91,-0.91 1.02,0 1.58,1.45 1.58,1.53 0,0.1 -0.08,0.1 -0.12,0.1 -0.08,0 -0.1,-0.04 -0.14,-0.14 -0.43,-1.04 -0.96,-1.28 -1.3,-1.28 -0.21,0 -0.31,0.13 -0.31,0.46 0,0.24 0.02,0.31 0.06,0.48 z"
         inkscape:connector-curvature="0"
         style="fill:#000000;stroke-width:0" /><path
         id="path4349"
         d="m 270.14,711.42 0,0.02 0,0.02 0,0.01 -0.01,0.02 0,0.02 0,0.02 0,0.01 0,0.02 -0.01,0.01 0,0.01 0,0.02 -0.01,0.01 0,0.01 -0.01,0.01 0,0.01 -0.01,0.01 0,0.01 -0.01,0.01 0,0.01 -0.01,0 0,0.01 -0.01,0.01 0,0 -0.01,0.01 -0.01,0 0,0 -0.01,0.01 -0.01,0 0,0 -0.01,0 -0.01,0 0,0 c -0.04,0 -0.13,-0.04 -0.14,-0.26 -0.04,-0.83 -0.74,-1.3 -1.38,-1.3 -0.6,0 -1.08,0.35 -1.6,0.75 -0.52,0.42 -1.05,0.82 -1.72,0.82 -0.97,0 -1.66,-0.87 -1.66,-1.8 0,-0.3 0.13,-0.31 0.14,-0.31 0.11,0 0.14,0.2 0.14,0.23 0.05,0.97 0.84,1.33 1.38,1.33 0.6,0 1.08,-0.35 1.6,-0.75 0.52,-0.41 1.05,-0.82 1.72,-0.82 0.97,0 1.66,0.87 1.66,1.81 z"
         inkscape:connector-curvature="0"
         style="fill:#000000;stroke-width:0" /><path
         id="path4351"
         d="m 263.86,707.88 -0.03,0 -0.03,0 -0.03,0 -0.02,0 -0.01,0 -0.02,0 -0.01,-0.01 -0.02,0 -0.01,0 -0.02,0 -0.01,-0.01 -0.02,0 -0.01,0 -0.01,-0.01 -0.01,-0.01 -0.02,0 -0.01,-0.01 -0.01,-0.01 -0.01,0 -0.01,-0.01 -0.01,-0.01 0,-0.01 0,0 -0.01,-0.01 0,-0.01 0,0 -0.01,-0.01 0,-0.01 0,0 0,-0.01 0,-0.01 -0.01,-0.01 0,0 0,-0.01 0,-0.01 0,-0.01 0,-0.01 c 0,-0.2 0.18,-0.2 0.35,-0.2 l 5.94,0 c 0.17,0 0.35,0 0.35,0.2 0,0.2 -0.19,0.2 -0.36,0.2 z"
         inkscape:connector-curvature="0"
         style="fill:#000000;stroke-width:0" /><path
         id="path4353"
         d="m 276.18,706.41 -0.01,-0.08 -0.01,-0.07 -0.01,-0.14 -0.02,-0.14 -0.01,-0.13 -0.02,-0.12 -0.02,-0.12 -0.02,-0.11 -0.02,-0.1 -0.03,-0.1 -0.02,-0.09 -0.03,-0.09 -0.02,-0.08 -0.03,-0.08 -0.03,-0.07 -0.03,-0.07 -0.04,-0.06 -0.03,-0.06 -0.04,-0.05 -0.03,-0.05 -0.04,-0.04 -0.04,-0.04 -0.04,-0.03 -0.04,-0.03 -0.04,-0.03 -0.05,-0.03 -0.04,-0.02 -0.05,-0.01 -0.05,-0.01 -0.04,-0.01 -0.05,-0.01 -0.06,-0.01 -0.05,0 c -0.13,0 -0.43,0.03 -0.64,0.21 0.29,0.04 0.37,0.27 0.37,0.41 0,0.29 -0.22,0.42 -0.4,0.42 -0.2,0 -0.42,-0.13 -0.42,-0.43 0,-0.48 0.49,-0.83 1.09,-0.83 0.95,0 1.42,0.87 1.64,1.76 0.13,0.52 0.49,3.41 0.57,4.51 l 0.19,2.48 c 0.14,1.82 0.48,2.07 0.93,2.07 0.09,0 0.4,-0.02 0.62,-0.21 -0.29,-0.04 -0.37,-0.26 -0.37,-0.4 0,-0.29 0.22,-0.42 0.41,-0.42 0.2,0 0.42,0.13 0.42,0.43 0,0.47 -0.5,0.82 -1.1,0.82 -0.94,0 -1.33,-0.96 -1.5,-1.72 -0.12,-0.54 -0.48,-3.34 -0.57,-4.55 z"
         inkscape:connector-curvature="0"
         style="fill:#000000;stroke-width:0" /><path
         id="path4355"
         d="m 284.14,714.59 -0.04,0.04 -0.03,0.04 -0.03,0.04 -0.03,0.03 -0.03,0.03 -0.03,0.04 -0.02,0.03 -0.03,0.02 -0.02,0.03 -0.03,0.03 -0.02,0.02 -0.02,0.03 -0.02,0.02 -0.02,0.02 -0.02,0.02 -0.02,0.02 -0.04,0.04 -0.04,0.04 -0.04,0.03 -0.04,0.04 -0.04,0.03 -0.05,0.03 -0.02,0.02 -0.02,0.02 -0.02,0.01 -0.03,0.02 c -0.42,0.31 -0.87,0.43 -1.25,0.43 -0.87,0 -1.49,-0.74 -1.49,-1.58 l 0.19,0 c 0,0.67 0.55,1.19 1.19,1.19 0.64,0 1.09,-0.53 1.76,-1.33 l 0,0 c -0.28,-0.45 -0.89,-1.16 -1.74,-1.16 -0.71,0 -1.21,0.64 -1.21,1.3 l -0.19,0 c 0,-0.81 0.6,-1.56 1.47,-1.56 0.97,0 1.64,0.79 1.89,1.16 0.37,-0.43 0.48,-0.55 0.75,-0.74 0.42,-0.3 0.87,-0.42 1.25,-0.42 0.86,0 1.49,0.73 1.49,1.57 l -0.19,0 c 0,-0.67 -0.55,-1.19 -1.19,-1.19 -0.64,0 -1.09,0.53 -1.76,1.34 l 0,0 c 0.28,0.45 0.88,1.15 1.73,1.15 0.72,0 1.22,-0.63 1.22,-1.3 l 0.19,0 c 0,0.81 -0.6,1.57 -1.47,1.57 -0.97,0 -1.64,-0.8 -1.89,-1.17 z"
         inkscape:connector-curvature="0"
         style="fill:#000000;stroke-width:0" /><path
         id="path4357"
         d="m 281.77,705.8 0,0.14 -0.01,0.14 0,0.13 -0.01,0.13 -0.01,0.12 -0.02,0.12 -0.01,0.11 -0.03,0.12 -0.02,0.1 -0.03,0.11 -0.03,0.1 -0.04,0.1 -0.05,0.1 -0.04,0.1 -0.05,0.09 -0.03,0.05 -0.03,0.04 c -0.22,0.32 -0.65,0.6 -1.21,0.6 l 0,-0.19 c 0.38,0 0.74,-0.23 0.87,-0.64 0.11,-0.37 0.12,-0.87 0.12,-1.48 0,-0.51 0,-1.03 -0.1,-1.47 -0.14,-0.63 -0.61,-0.78 -0.89,-0.78 l 0,0 c -0.32,0 -0.74,0.19 -0.88,0.76 -0.1,0.41 -0.1,0.98 -0.1,1.49 0,0.51 0,1.04 0.1,1.42 0.15,0.55 0.6,0.7 0.88,0.7 l 0,0.19 c -1.61,0 -1.61,-1.9 -1.61,-2.4 0,-0.5 0,-2.36 1.61,-2.36 1.62,0 1.62,1.86 1.62,2.36 z"
         inkscape:connector-curvature="0"
         style="fill:#000000;stroke-width:0" /><path
         id="path4359"
         d="m 293.54,710.12 0,0.03 0.01,0.03 0.01,0.03 0.01,0.04 0.01,0.04 0.01,0.04 0.01,0.04 0.02,0.05 0.01,0.04 0.02,0.05 0.02,0.05 0.02,0.05 0.02,0.05 0.03,0.05 0.02,0.05 0.03,0.05 0.03,0.05 0.03,0.04 0.03,0.05 0.04,0.04 0.04,0.05 0.04,0.04 0.04,0.04 0.04,0.03 0.05,0.03 0.05,0.03 0.02,0.01 0.03,0.02 0.02,0.01 0.03,0.01 0.03,0.01 0.03,0 0.03,0.01 0.03,0.01 0.03,0 0.03,0 0.03,0.01 0.03,0 c 0.05,0 0.29,0 0.5,-0.13 -0.28,-0.05 -0.48,-0.3 -0.48,-0.54 0,-0.16 0.11,-0.35 0.38,-0.35 0.22,0 0.54,0.18 0.54,0.58 0,0.52 -0.59,0.66 -0.93,0.66 -0.58,0 -0.92,-0.53 -1.04,-0.76 -0.25,0.66 -0.79,0.76 -1.08,0.76 -1.03,0 -1.6,-1.29 -1.6,-1.53 0,-0.1 0.1,-0.1 0.12,-0.1 0.08,0 0.11,0.02 0.13,0.11 0.34,1.05 0.99,1.3 1.33,1.3 0.19,0 0.54,-0.09 0.54,-0.67 0,-0.31 -0.17,-0.97 -0.54,-2.36 -0.16,-0.62 -0.51,-1.04 -0.94,-1.04 -0.06,0 -0.29,0 -0.5,0.13 0.25,0.05 0.47,0.26 0.47,0.54 0,0.27 -0.22,0.35 -0.37,0.35 -0.3,0 -0.55,-0.26 -0.55,-0.58 0,-0.46 0.5,-0.65 0.94,-0.65 0.65,0 1.01,0.69 1.04,0.75 0.12,-0.37 0.48,-0.75 1.08,-0.75 1.02,0 1.59,1.28 1.59,1.53 0,0.1 -0.09,0.1 -0.12,0.1 -0.09,0 -0.11,-0.05 -0.13,-0.11 -0.33,-1.07 -1.01,-1.31 -1.32,-1.31 -0.39,0 -0.55,0.32 -0.55,0.66 0,0.22 0.06,0.44 0.17,0.87 z"
         inkscape:connector-curvature="0"
         style="fill:#000000;stroke-width:0" /><path
         id="path4361"
         d="m 299.42,712.01 -0.23,0 c -0.02,-0.16 -0.09,-0.57 -0.18,-0.64 -0.06,-0.04 -0.6,-0.04 -0.69,-0.04 l -1.28,0 c 0.73,0.65 0.97,0.84 1.39,1.17 0.51,0.41 0.99,0.84 0.99,1.5 0,0.84 -0.73,1.36 -1.63,1.36 -0.86,0 -1.44,-0.61 -1.44,-1.25 0,-0.35 0.29,-0.39 0.36,-0.39 0.17,0 0.37,0.12 0.37,0.37 0,0.13 -0.04,0.37 -0.41,0.37 0.22,0.5 0.69,0.65 1.02,0.65 0.7,0 1.06,-0.54 1.06,-1.11 0,-0.6 -0.43,-1.08 -0.66,-1.33 l -1.67,-1.66 c -0.07,-0.06 -0.07,-0.07 -0.07,-0.27 l 2.86,0 z"
         inkscape:connector-curvature="0"
         style="fill:#000000;stroke-width:0" /><path
         id="path4363"
         d="m 305.51,713.91 0,0 0,0 0,0 0,0 0,0.01 0,0 0,0 0,0.01 0,0 0,0.01 0,0 -0.01,0 0,0.01 0,0 0,0.01 0,0 -0.01,0.01 0,0 0,0.01 -0.01,0 0,0.01 0,0 -0.01,0 0,0 0,0.01 -0.01,0 0,0 0,0 0,0 -0.01,0.01 0,0 -0.01,0 0,0 0,0 -0.01,0 0,0 -0.01,0 0,0.01 -0.01,0 0,0 -0.01,0 0,0 -0.01,0 0,0 -0.01,0 c -0.15,0 -1.09,-0.09 -1.26,-0.11 -0.08,-0.01 -0.14,-0.06 -0.14,-0.19 0,-0.12 0.09,-0.12 0.24,-0.12 0.47,0 0.49,-0.07 0.49,-0.17 l -0.03,-0.2 -0.59,-2.35 c -0.18,0.37 -0.47,0.64 -0.92,0.64 -1.16,0 -2.4,-1.47 -2.4,-2.92 0,-0.93 0.55,-1.58 1.33,-1.58 l 0.02,0.21 c -0.5,0 -0.64,0.55 -0.64,0.94 0,0.49 0.32,1.72 0.55,2.17 0.31,0.59 0.75,0.96 1.15,0.96 0.65,0 0.79,-0.82 0.79,-0.88 0,-0.06 -0.02,-0.12 -0.03,-0.17 l -0.5,-1.94 c -0.05,-0.18 -0.05,-0.2 -0.2,-0.37 -0.44,-0.55 -0.84,-0.71 -1.12,-0.71 l -0.02,-0.21 c 0.2,0 0.69,0.03 1.29,0.74 0.08,-0.42 0.43,-0.74 0.91,-0.74 0.34,0 0.57,0.22 0.73,0.54 0.17,0.36 0.3,0.97 0.3,0.99 0,0.1 -0.09,0.1 -0.12,0.1 -0.1,0 -0.11,-0.05 -0.14,-0.18 -0.17,-0.65 -0.35,-1.24 -0.75,-1.24 -0.27,0 -0.3,0.26 -0.3,0.46 0,0.24 0.02,0.31 0.06,0.48 z"
         inkscape:connector-curvature="0"
         style="fill:#000000;stroke-width:0" /><path
         id="path4365"
         d="m 307.61,711.1 0.94,0 c 0.19,0 0.3,0 0.3,0.2 0,0.11 -0.11,0.11 -0.28,0.11 l -0.88,0 c 0.36,1.41 0.41,1.61 0.41,1.67 0,0.16 -0.12,0.26 -0.29,0.26 -0.03,0 -0.31,-0.01 -0.4,-0.35 l -0.39,-1.58 -0.93,0 c -0.2,0 -0.3,0 -0.3,-0.19 0,-0.12 0.08,-0.12 0.28,-0.12 l 0.87,0 c -0.71,-2.82 -0.75,-2.99 -0.75,-3.17 0,-0.54 0.38,-0.91 0.91,-0.91 1.02,0 1.59,1.45 1.59,1.53 0,0.1 -0.08,0.1 -0.12,0.1 -0.09,0 -0.1,-0.04 -0.15,-0.14 -0.43,-1.04 -0.96,-1.28 -1.3,-1.28 -0.2,0 -0.3,0.13 -0.3,0.46 0,0.24 0.01,0.31 0.06,0.48 z"
         inkscape:connector-curvature="0"
         style="fill:#000000;stroke-width:0" /></g>  </g>
</svg>
