<?xml version="1.0" encoding="UTF-8" standalone="no"?>
<!-- Created with Inkscape (http://www.inkscape.org/) -->

<svg
   xmlns:osb="http://www.openswatchbook.org/uri/2009/osb"
   xmlns:dc="http://purl.org/dc/elements/1.1/"
   xmlns:cc="http://creativecommons.org/ns#"
   xmlns:rdf="http://www.w3.org/1999/02/22-rdf-syntax-ns#"
   xmlns:svg="http://www.w3.org/2000/svg"
   xmlns="http://www.w3.org/2000/svg"
   xmlns:xlink="http://www.w3.org/1999/xlink"
   xmlns:sodipodi="http://sodipodi.sourceforge.net/DTD/sodipodi-0.dtd"
   xmlns:inkscape="http://www.inkscape.org/namespaces/inkscape"
   width="49.232143mm"
   height="35.94733mm"
   viewBox="0 0 174.4446 127.37243"
   id="svg2"
   version="1.1"
   inkscape:version="0.91 r13725"
   sodipodi:docname="stateeq.svg">
  <sodipodi:namedview
     id="base"
     pagecolor="#ffffff"
     bordercolor="#666666"
     borderopacity="1.0"
     inkscape:pageopacity="0.0"
     inkscape:pageshadow="2"
     inkscape:zoom="4.1368998"
     inkscape:cx="35.935075"
     inkscape:cy="55.693285"
     inkscape:document-units="px"
     inkscape:current-layer="layer1"
     showgrid="true"
     inkscape:window-width="1826"
     inkscape:window-height="1057"
     inkscape:window-x="86"
     inkscape:window-y="-8"
     inkscape:window-maximized="1"
     inkscape:snap-to-guides="true"
     inkscape:snap-grids="true"
     showguides="false"
     fit-margin-top="0"
     fit-margin-left="0"
     fit-margin-right="0"
     fit-margin-bottom="0">
    <inkscape:grid
       type="xygrid"
       id="grid4548"
       originx="-121.53864"
       originy="-849.68774" />
  </sodipodi:namedview>
  <defs
     id="defs4">
    <linearGradient
       id="linearGradient9506"
       osb:paint="solid">
      <stop
         style="stop-color:#007100;stop-opacity:1;"
         offset="0"
         id="stop9508" />
    </linearGradient>
    <linearGradient
       id="linearGradient6879"
       osb:paint="solid">
      <stop
         style="stop-color:#000000;stop-opacity:1;"
         offset="0"
         id="stop6881" />
    </linearGradient>
    <linearGradient
       id="linearGradient5438"
       osb:paint="solid">
      <stop
         style="stop-color:#0000ff;stop-opacity:1;"
         offset="0"
         id="stop5440" />
    </linearGradient>
  </defs>
  <metadata
     id="metadata7">
    <rdf:RDF>
      <cc:Work
         rdf:about="">
        <dc:format>image/svg+xml</dc:format>
        <dc:type
           rdf:resource="http://purl.org/dc/dcmitype/StillImage" />
        <dc:title></dc:title>
      </cc:Work>
    </rdf:RDF>
  </metadata>
  <g
     inkscape:label="レイヤー 1"
     inkscape:groupmode="layer"
     id="layer1"
     transform="translate(-121.53863,-75.302035)">
    <g
       title="\[ x \in {\mathbb R}^n \]"
       style="fill:#000000"
       id="equation_00"
       transform="translate(46.946955,41.248445)">
      <defs
         id="defs4157">
        <path
           id="equation_00_00"
           d="m 2.66999,-3.12827 0.35865,0 1.4944,2.311334 c 0.09963,0.159402 0.33873,0.547945 0.44832,0.697384 C 5.0411,0 5.07098,0 5.30012,0 L 6.67497,0 C 6.8543,0 7.00374,0 7.00374,-0.179328 7.00374,-0.259029 6.94396,-0.328767 6.8543,-0.348692 6.48568,-0.428394 5.99751,-1.08593 5.75841,-1.40473 5.68867,-1.50436 5.19054,-2.16189 4.52304,-3.23786 5.40971,-3.39726 6.2665,-3.77584 6.2665,-4.96139 c 0,-1.38481 -1.46451,-1.86302 -2.6401,-1.86302 l -3.128268,0 c -0.179328,0 -0.33873,0 -0.33873,0.17933 0,0.16936 0.18929,0.16936 0.268992,0.16936 0.56787,0 0.617686,0.06974 0.617686,0.56787 l 0,4.991287 c 0,0.498132 -0.049816,0.567871 -0.617686,0.567871 -0.079702,0 -0.268992,0 -0.268992,0.169364 C 0.159402,0 0.318804,0 0.498132,0 L 3.2279,0 c 0.17932,0 0.32876,0 0.32876,-0.179328 0,-0.169364 -0.16936,-0.169364 -0.27895,-0.169364 -0.56787,0 -0.60772,-0.079702 -0.60772,-0.567871 l 0,-2.211707 z m 1.92279,-0.48817 c 0.27895,-0.36862 0.30884,-0.89664 0.30884,-1.33499 0,-0.47821 -0.05978,-1.00623 -0.37858,-1.4147 0.40847,0.08967 1.39477,0.39851 1.39477,1.40474 0,0.64757 -0.29888,1.15566 -1.32503,1.34495 z M 2.66999,-5.93773 c 0,-0.20922 0,-0.53799 0.61768,-0.53799 0.84683,0 1.26526,0.3487 1.26526,1.52429 0,1.28518 -0.30885,1.47447 -1.88294,1.47447 l 0,-2.46077 z m -1.35492,5.589038 c 0.0797,-0.179328 0.0797,-0.458282 0.0797,-0.547946 l 0,-5.031132 c 0,-0.09963 0,-0.36862 -0.0797,-0.54795 l 1.13574,0 C 2.3213,-6.31631 2.3213,-6.11706 2.3213,-5.96762 l 0,5.070982 c 0,0.099627 0,0.368618 0.0797,0.547946 l -1.08593,0 z M 3.43711,-3.12827 c 0.06974,-0.00996 0.10959,-0.01992 0.18929,-0.01992 0.14944,0 0.36862,-0.01993 0.51806,-0.03985 0.14944,0.2391 1.2254,2.01245 2.0523,2.839348 l -0.96637,0 -1.79328,-2.779578 z"
           inkscape:connector-curvature="0" />
        <path
           id="equation_00_01"
           d="m 3.32752,-3.00872 c 0.05978,-0.25903 0.28892,-1.17559 0.9863,-1.17559 0.04982,0 0.28892,0 0.49814,0.12952 -0.27896,0.04981 -0.47821,0.29887 -0.47821,0.53798 0,0.1594 0.10959,0.34869 0.37858,0.34869 0.21918,0 0.53798,-0.17933 0.53798,-0.57783 0,-0.51806 -0.58779,-0.65754 -0.92652,-0.65754 -0.57784,0 -0.92653,0.52802 -1.04608,0.75716 -0.24907,-0.65753 -0.78705,-0.75716 -1.07597,-0.75716 -1.03611,0 -1.603982,1.28518 -1.603982,1.53425 0,0.09963 0.099627,0.09963 0.119552,0.09963 0.079701,0 0.109589,-0.01993 0.129514,-0.10959 0.338726,-1.05604 0.996266,-1.30511 1.334996,-1.30511 0.18929,0 0.53798,0.08966 0.53798,0.6675 0,0.30884 -0.16936,0.97634 -0.53798,2.37111 -0.1594,0.61768 -0.5081,1.036111 -0.94645,1.036111 -0.05978,0 -0.288919,0 -0.498135,-0.129514 0.249066,-0.049814 0.468245,-0.259029 0.468245,-0.537983 0,-0.268994 -0.219179,-0.348694 -0.368618,-0.348694 -0.298879,0 -0.547945,0.25903 -0.547945,0.577835 0,0.4582812 0.498132,0.657534 0.936483,0.657534 0.65754,0 1.01619,-0.697385 1.04608,-0.757161 0.11955,0.368618 0.47821,0.757161 1.07597,0.757161 1.02615,0 1.59402,-1.285179 1.59402,-1.534249 0,-0.09962 -0.08966,-0.09962 -0.11955,-0.09962 -0.08967,0 -0.10959,0.03985 -0.12952,0.10959 -0.32876,1.065998 -1.00622,1.305101 -1.32503,1.305101 -0.38854,0 -0.54794,-0.318805 -0.54794,-0.657534 0,-0.219178 0.05977,-0.438357 0.16936,-0.876717 l 0.33873,-1.36488 z"
           inkscape:connector-curvature="0" />
        <path
           id="equation_00_02"
           d="m 0.850809,-0.439352 c -0.027895,0.09066 -0.069738,0.265006 -0.069738,0.285927 0,0.153425 0.125529,0.2231635 0.237109,0.2231635 0.12553,0 0.23711,-0.09066 0.27198,-0.1534247 0.03487,-0.0627647 0.09066,-0.2859278 0.12553,-0.4323788 0.03487,-0.132503 0.11158,-0.4533 0.15343,-0.627645 0.04184,-0.15343 0.08368,-0.30685 0.11855,-0.46725 0.07671,-0.28593 0.09066,-0.34172 0.2929,-0.62765 0.19527,-0.27895 0.52304,-0.64159 1.04608,-0.64159 0.40448,0 0.41146,0.35567 0.41146,0.48817 0,0.41843 -0.29988,1.19253 -0.41146,1.48543 -0.07671,0.195267 -0.10461,0.258032 -0.10461,0.376588 0,0.369613 0.30685,0.5997505 0.66252,0.5997505 0.69738,0 1.00423,-0.9623915 1.00423,-1.0669985 0,-0.09066 -0.09066,-0.09066 -0.11158,-0.09066 -0.09763,0 -0.10461,0.04184 -0.1325,0.118555 -0.1604,0.557908 -0.46028,0.843836 -0.73923,0.843836 -0.14645,0 -0.17435,-0.097634 -0.17435,-0.244085 0,-0.160398 0.03487,-0.251058 0.1604,-0.564882 0.08369,-0.216184 0.36962,-0.955414 0.36962,-1.345954 0,-0.67646 -0.53699,-0.79502 -0.9066,-0.79502 -0.57883,0 -0.96937,0.35567 -1.17858,0.63462 -0.04882,-0.48119 -0.46028,-0.63462 -0.74621,-0.63462 -0.299872,0 -0.460271,0.21619 -0.550931,0.37659 -0.153424,0.25803 -0.251058,0.65554 -0.251058,0.69041 0,0.09066 0.097634,0.09066 0.118555,0.09066 0.097634,0 0.104608,-0.02092 0.153425,-0.20921 0.104608,-0.41146 0.237111,-0.75318 0.509089,-0.75318 0.18132,0 0.23014,0.15343 0.23014,0.34172 0,0.1325 -0.06277,0.39053 -0.11158,0.57883 -0.04881,0.1883 -0.11856,0.47422 -0.15343,0.62765 l -0.223161,0.892648 z"
           inkscape:connector-curvature="0" />
        <path
           id="equation_00_03"
           d="m 5.45953,-2.29141 c 0.16936,0 0.34869,0 0.34869,-0.19925 0,-0.19925 -0.17933,-0.19925 -0.34869,-0.19925 l -4.22416,0 c 0.11955,-1.335 1.26525,-2.29141 2.66998,-2.29141 l 1.55418,0 c 0.16936,0 0.34869,0 0.34869,-0.19925 0,-0.19925 -0.17933,-0.19926 -0.34869,-0.19926 l -1.5741,0 c -1.70361,0 -3.058531,1.29515 -3.058531,2.88917 0,1.59402 1.354921,2.889166 3.058531,2.889166 l 1.5741,0 c 0.16936,0 0.34869,0 0.34869,-0.199253 C 5.80822,0 5.62889,0 5.45953,0 L 3.90535,0 C 2.50062,0 1.35492,-0.956413 1.23537,-2.29141 l 4.22416,0 z"
           inkscape:connector-curvature="0" />
      </defs>
      <g
         id="equation_00_g">
        <use
           id="use4164"
           y="74.719803"
           xlink:href="#equation_00_01"
           x="218.38"
           width="100%"
           height="100%" />
        <use
           id="use4166"
           y="74.719803"
           xlink:href="#equation_00_03"
           x="226.82001"
           width="100%"
           height="100%" />
        <use
           id="use4168"
           y="74.719803"
           xlink:href="#equation_00_00"
           x="236.20399"
           width="100%"
           height="100%" />
        <use
           id="use4170"
           y="70.6063"
           xlink:href="#equation_00_02"
           x="243.37199"
           width="100%"
           height="100%" />
      </g>
    </g>
    <g
       transform="translate(46.948476,63.835924)"
       id="equation_01"
       style="fill:#000000"
       title="\[ u \in {\mathbb R}^m \]">
      <defs
         id="defs4281">
        <path
           inkscape:connector-curvature="0"
           d="m 2.66999,-3.12827 0.35865,0 1.4944,2.311334 c 0.09963,0.159402 0.33873,0.547945 0.44832,0.697384 C 5.0411,0 5.07098,0 5.30012,0 L 6.67497,0 C 6.8543,0 7.00374,0 7.00374,-0.179328 7.00374,-0.259029 6.94396,-0.328767 6.8543,-0.348692 6.48568,-0.428394 5.99751,-1.08593 5.75841,-1.40473 5.68867,-1.50436 5.19054,-2.16189 4.52304,-3.23786 5.40971,-3.39726 6.2665,-3.77584 6.2665,-4.96139 c 0,-1.38481 -1.46451,-1.86302 -2.6401,-1.86302 l -3.128268,0 c -0.179328,0 -0.33873,0 -0.33873,0.17933 0,0.16936 0.18929,0.16936 0.268992,0.16936 0.56787,0 0.617686,0.06974 0.617686,0.56787 l 0,4.991287 c 0,0.498132 -0.049816,0.567871 -0.617686,0.567871 -0.079702,0 -0.268992,0 -0.268992,0.169364 C 0.159402,0 0.318804,0 0.498132,0 L 3.2279,0 c 0.17932,0 0.32876,0 0.32876,-0.179328 0,-0.169364 -0.16936,-0.169364 -0.27895,-0.169364 -0.56787,0 -0.60772,-0.079702 -0.60772,-0.567871 l 0,-2.211707 z m 1.92279,-0.48817 c 0.27895,-0.36862 0.30884,-0.89664 0.30884,-1.33499 0,-0.47821 -0.05978,-1.00623 -0.37858,-1.4147 0.40847,0.08967 1.39477,0.39851 1.39477,1.40474 0,0.64757 -0.29888,1.15566 -1.32503,1.34495 z M 2.66999,-5.93773 c 0,-0.20922 0,-0.53799 0.61768,-0.53799 0.84683,0 1.26526,0.3487 1.26526,1.52429 0,1.28518 -0.30885,1.47447 -1.88294,1.47447 l 0,-2.46077 z m -1.35492,5.589038 c 0.0797,-0.179328 0.0797,-0.458282 0.0797,-0.547946 l 0,-5.031132 c 0,-0.09963 0,-0.36862 -0.0797,-0.54795 l 1.13574,0 C 2.3213,-6.31631 2.3213,-6.11706 2.3213,-5.96762 l 0,5.070982 c 0,0.099627 0,0.368618 0.0797,0.547946 l -1.08593,0 z M 3.43711,-3.12827 c 0.06974,-0.00996 0.10959,-0.01992 0.18929,-0.01992 0.14944,0 0.36862,-0.01993 0.51806,-0.03985 0.14944,0.2391 1.2254,2.01245 2.0523,2.839348 l -0.96637,0 -1.79328,-2.779578 z"
           id="equation_01_00" />
        <path
           inkscape:connector-curvature="0"
           d="m 3.48692,-0.557908 c 0.10959,0.408468 0.45829,0.667497 0.88668,0.667497 0.34869,0 0.57783,-0.229141 0.73723,-0.547945 0.16937,-0.358655 0.29888,-0.966374 0.29888,-0.986304 0,-0.09962 -0.08966,-0.09962 -0.11955,-0.09962 -0.09962,0 -0.10959,0.03985 -0.13948,0.17932 -0.13947,0.557911 -0.32876,1.235371 -0.74719,1.235371 -0.20922,0 -0.30884,-0.129514 -0.30884,-0.458281 0,-0.219179 0.11955,-0.68742 0.19925,-1.03612 l 0.27895,-1.07596 c 0.02989,-0.14944 0.12952,-0.52802 0.16937,-0.67746 0.04981,-0.22914 0.14944,-0.60772 0.14944,-0.6675 0,-0.17932 -0.13948,-0.26899 -0.28892,-0.26899 -0.04981,0 -0.30884,0.00996 -0.38854,0.34869 -0.18929,0.72728 -0.62765,2.47074 -0.7472,2.998759 -0.00996,0.039851 -0.40847,0.836862 -1.13574,0.836862 -0.51806,0 -0.61769,-0.448319 -0.61769,-0.816937 0,-0.557904 0.27896,-1.344954 0.53799,-2.032374 0.11955,-0.29888 0.16936,-0.43836 0.16936,-0.62765 0,-0.44832 -0.3188,-0.81694 -0.81693,-0.81694 -0.946456,0 -1.315073,1.44459 -1.315073,1.53425 0,0.09963 0.099626,0.09963 0.119551,0.09963 0.099627,0 0.109589,-0.01993 0.159402,-0.17933 0.249066,-0.86675 0.62765,-1.23537 1.00623,-1.23537 0.08966,0 0.24906,0.00996 0.24906,0.32877 0,0.2391 -0.10959,0.52802 -0.16936,0.67746 -0.36862,0.9863 -0.57783,1.60398 -0.57783,2.09215 0,0.946453 0.68742,1.195519 1.2254,1.195519 0.65753,0 1.01619,-0.448319 1.18555,-0.667497 z"
           id="equation_01_01" />
        <path
           inkscape:connector-curvature="0"
           d="m 3.02665,-0.564882 c -0.03487,0.139477 -0.09763,0.376588 -0.09763,0.411457 0,0.153425 0.12553,0.2231635 0.23711,0.2231635 0.12553,0 0.23711,-0.09066 0.27198,-0.1534247 0.03487,-0.0627647 0.09066,-0.2859278 0.12553,-0.4323788 0.03487,-0.132503 0.11158,-0.4533 0.15342,-0.627645 0.04184,-0.15343 0.08369,-0.30685 0.11856,-0.46725 0.07671,-0.29987 0.07671,-0.31382 0.21619,-0.53001 0.22316,-0.34172 0.57185,-0.73923 1.11581,-0.73923 0.39054,0 0.41146,0.3208 0.41146,0.48817 0,0.41843 -0.29988,1.19253 -0.41146,1.48543 -0.07671,0.195267 -0.10461,0.258032 -0.10461,0.376588 0,0.369613 0.30685,0.5997505 0.66252,0.5997505 0.69738,0 1.00423,-0.9623915 1.00423,-1.0669985 0,-0.09066 -0.09066,-0.09066 -0.11158,-0.09066 -0.09763,0 -0.10461,0.04184 -0.1325,0.118555 -0.1604,0.557908 -0.46028,0.843836 -0.73923,0.843836 -0.14645,0 -0.17435,-0.097634 -0.17435,-0.244085 0,-0.160398 0.03487,-0.251058 0.1604,-0.564882 0.08369,-0.216184 0.36962,-0.955414 0.36962,-1.345954 0,-0.11158 0,-0.40448 -0.25804,-0.60672 -0.11855,-0.09066 -0.32079,-0.1883 -0.64856,-0.1883 -0.62765,0 -1.01121,0.41146 -1.23437,0.70436 -0.0558,-0.59278 -0.55094,-0.70436 -0.9066,-0.70436 -0.57883,0 -0.96937,0.35567 -1.17858,0.63462 -0.04882,-0.48119 -0.46028,-0.63462 -0.74621,-0.63462 -0.299872,0 -0.460271,0.21619 -0.550931,0.37659 -0.153424,0.25803 -0.251058,0.65554 -0.251058,0.69041 0,0.09066 0.097634,0.09066 0.118555,0.09066 0.097634,0 0.104608,-0.02092 0.153425,-0.20921 0.104608,-0.41146 0.237111,-0.75318 0.509089,-0.75318 0.18132,0 0.23014,0.15343 0.23014,0.34172 0,0.1325 -0.06277,0.39053 -0.11158,0.57883 -0.04881,0.1883 -0.11856,0.47422 -0.15343,0.62765 l -0.223161,0.892648 c -0.027895,0.09066 -0.069738,0.265006 -0.069738,0.285927 0,0.153425 0.125529,0.2231635 0.237109,0.2231635 0.12553,0 0.23711,-0.09066 0.27198,-0.1534247 0.03487,-0.0627647 0.09066,-0.2859278 0.12553,-0.4323788 0.03487,-0.132503 0.11158,-0.4533 0.15343,-0.627645 0.04184,-0.15343 0.08368,-0.30685 0.11855,-0.46725 0.07671,-0.28593 0.09066,-0.34172 0.2929,-0.62765 0.19527,-0.27895 0.52304,-0.64159 1.04608,-0.64159 0.40448,0 0.41146,0.35567 0.41146,0.48817 0,0.17435 -0.02092,0.26501 -0.11856,0.65554 l -0.2929,1.171608 z"
           id="equation_01_02" />
        <path
           inkscape:connector-curvature="0"
           d="m 5.45953,-2.29141 c 0.16936,0 0.34869,0 0.34869,-0.19925 0,-0.19925 -0.17933,-0.19925 -0.34869,-0.19925 l -4.22416,0 c 0.11955,-1.335 1.26525,-2.29141 2.66998,-2.29141 l 1.55418,0 c 0.16936,0 0.34869,0 0.34869,-0.19925 0,-0.19925 -0.17933,-0.19926 -0.34869,-0.19926 l -1.5741,0 c -1.70361,0 -3.058531,1.29515 -3.058531,2.88917 0,1.59402 1.354921,2.889166 3.058531,2.889166 l 1.5741,0 c 0.16936,0 0.34869,0 0.34869,-0.199253 C 5.80822,0 5.62889,0 5.45953,0 L 3.90535,0 C 2.50062,0 1.35492,-0.956413 1.23537,-2.29141 l 4.22416,0 z"
           id="equation_01_03" />
      </defs>
      <g
         id="equation_01_g">
        <use
           height="100%"
           width="100%"
           x="217.30299"
           xlink:href="#equation_01_01"
           y="74.719803"
           id="use4288" />
        <use
           height="100%"
           width="100%"
           x="225.752"
           xlink:href="#equation_01_03"
           y="74.719803"
           id="use4290" />
        <use
           height="100%"
           width="100%"
           x="235.136"
           xlink:href="#equation_01_00"
           y="74.719803"
           id="use4292" />
        <use
           height="100%"
           width="100%"
           x="242.30499"
           xlink:href="#equation_01_02"
           y="70.6063"
           id="use4294" />
      </g>
    </g>
    <g
       title="\[ y \in {\mathbb R}^p \]"
       style="fill:#000000"
       id="equation_02"
       transform="translate(46.888635,86.423402)">
      <defs
         id="defs4427">
        <path
           id="equation_02_00"
           d="m 2.66999,-3.12827 0.35865,0 1.4944,2.311334 c 0.09963,0.159402 0.33873,0.547945 0.44832,0.697384 C 5.0411,0 5.07098,0 5.30012,0 L 6.67497,0 C 6.8543,0 7.00374,0 7.00374,-0.179328 7.00374,-0.259029 6.94396,-0.328767 6.8543,-0.348692 6.48568,-0.428394 5.99751,-1.08593 5.75841,-1.40473 5.68867,-1.50436 5.19054,-2.16189 4.52304,-3.23786 5.40971,-3.39726 6.2665,-3.77584 6.2665,-4.96139 c 0,-1.38481 -1.46451,-1.86302 -2.6401,-1.86302 l -3.128268,0 c -0.179328,0 -0.33873,0 -0.33873,0.17933 0,0.16936 0.18929,0.16936 0.268992,0.16936 0.56787,0 0.617686,0.06974 0.617686,0.56787 l 0,4.991287 c 0,0.498132 -0.049816,0.567871 -0.617686,0.567871 -0.079702,0 -0.268992,0 -0.268992,0.169364 C 0.159402,0 0.318804,0 0.498132,0 L 3.2279,0 c 0.17932,0 0.32876,0 0.32876,-0.179328 0,-0.169364 -0.16936,-0.169364 -0.27895,-0.169364 -0.56787,0 -0.60772,-0.079702 -0.60772,-0.567871 l 0,-2.211707 z m 1.92279,-0.48817 c 0.27895,-0.36862 0.30884,-0.89664 0.30884,-1.33499 0,-0.47821 -0.05978,-1.00623 -0.37858,-1.4147 0.40847,0.08967 1.39477,0.39851 1.39477,1.40474 0,0.64757 -0.29888,1.15566 -1.32503,1.34495 z M 2.66999,-5.93773 c 0,-0.20922 0,-0.53799 0.61768,-0.53799 0.84683,0 1.26526,0.3487 1.26526,1.52429 0,1.28518 -0.30885,1.47447 -1.88294,1.47447 l 0,-2.46077 z m -1.35492,5.589038 c 0.0797,-0.179328 0.0797,-0.458282 0.0797,-0.547946 l 0,-5.031132 c 0,-0.09963 0,-0.36862 -0.0797,-0.54795 l 1.13574,0 C 2.3213,-6.31631 2.3213,-6.11706 2.3213,-5.96762 l 0,5.070982 c 0,0.099627 0,0.368618 0.0797,0.547946 l -1.08593,0 z M 3.43711,-3.12827 c 0.06974,-0.00996 0.10959,-0.01992 0.18929,-0.01992 0.14944,0 0.36862,-0.01993 0.51806,-0.03985 0.14944,0.2391 1.2254,2.01245 2.0523,2.839348 l -0.96637,0 -1.79328,-2.779578 z"
           inkscape:connector-curvature="0" />
        <path
           id="equation_02_01"
           d="m 4.84184,-3.79577 c 0.03985,-0.13947 0.03985,-0.1594 0.03985,-0.22914 0,-0.17932 -0.13947,-0.26899 -0.28891,-0.26899 -0.09963,0 -0.25903,0.05978 -0.3487,0.20922 -0.01992,0.04981 -0.09962,0.35865 -0.13947,0.53798 -0.06974,0.25903 -0.13948,0.52802 -0.19926,0.79701 l -0.44831,1.793277 c -0.03985,0.149439 -0.46825,0.846824 -1.12578,0.846824 -0.5081,0 -0.61769,-0.438356 -0.61769,-0.806974 0,-0.458277 0.16937,-1.075967 0.5081,-1.952677 0.1594,-0.40847 0.19925,-0.51806 0.19925,-0.71731 0,-0.44832 -0.3188,-0.81694 -0.81693,-0.81694 -0.946456,0 -1.315073,1.44459 -1.315073,1.53425 0,0.09963 0.099626,0.09963 0.119551,0.09963 0.099627,0 0.109589,-0.01993 0.159402,-0.17933 0.268992,-0.93649 0.6675,-1.23537 1.00623,-1.23537 0.0797,0 0.24906,0 0.24906,0.31881 0,0.24906 -0.09962,0.50809 -0.16936,0.69738 -0.39851,1.05604 -0.57783,1.62391 -0.57783,2.09215 0,0.88668 0.62764,1.185559 1.21544,1.185559 0.38854,0 0.72727,-0.1693648 1.00622,-0.448319 C 3.16812,0.179328 3.04857,0.667497 2.65006,1.19552 2.39103,1.53425 2.01245,1.82316 1.55417,1.82316 c -0.13948,0 -0.587794,-0.02988 -0.757159,-0.41843 0.159402,0 0.288919,0 0.428389,-0.11955 C 1.32503,1.19552 1.42466,1.066 1.42466,0.876712 1.42466,0.56787 1.15567,0.52802 1.05604,0.52802 c -0.229141,0 -0.557908,0.159402 -0.557908,0.64757 0,0.49813 0.438356,0.86675 1.056038,0.86675 1.02615,0 2.05231,-0.9066 2.33126,-2.03237736 L 4.84184,-3.79577 Z"
           inkscape:connector-curvature="0" />
        <path
           id="equation_02_02"
           d="M 0.523039,0.850809 C 0.474222,1.04608 0.460274,1.10187 0.18132,1.10187 c -0.09066,0 -0.18829385,0 -0.18829385,0.14645 0,0.07671 0.06276465,0.10461 0.09763385,0.10461 0.18132,0 0.411457,-0.0279 0.599751,-0.0279 0.237111,0 0.502119,0.0279 0.732259,0.0279 0.06276,0 0.13947,-0.02093 0.13947,-0.15343 0,-0.09763 -0.09763,-0.09763 -0.18132,-0.09763 -0.15342,0 -0.34172,0 -0.34172,-0.08369 0,-0.034867 0.04882,-0.216187 0.07672,-0.320795 0.08368,-0.369614 0.18132,-0.7462019 0.25803,-1.039104 0.08368,0.139477 0.29987,0.4114575 0.7183,0.4114575 0.85081,0 1.79228,-0.9414695 1.79228,-1.9805685 0,-0.81594 -0.56488,-1.16464 -1.04607,-1.16464 -0.43238,0 -0.802,0.2929 -0.99029,0.48817 -0.11856,-0.39751 -0.50909,-0.48817 -0.71831,-0.48817 -0.271977,0 -0.439349,0.18132 -0.550931,0.36962 -0.139477,0.23711 -0.251058,0.65554 -0.251058,0.69738 0,0.09066 0.097634,0.09066 0.118555,0.09066 0.097634,0 0.104608,-0.02092 0.153425,-0.20921 0.104608,-0.40449 0.237111,-0.75318 0.509089,-0.75318 0.18132,0 0.23014,0.15343 0.23014,0.34172 0,0.07671 -0.01395,0.16737 -0.02092,0.20921 L 0.523039,0.850809 Z M 1.8411,-2.23861 c 0.40448,-0.53698 0.75317,-0.64159 0.97633,-0.64159 0.27198,0 0.5091,0.20224 0.5091,0.67646 0,0.28593 -0.15343,0.99726 -0.36264,1.401747 -0.17435,0.341719 -0.51607,0.676464 -0.87174,0.676464 -0.49514,0 -0.62067,-0.536987 -0.62067,-0.606725 0,-0.027895 0.01395,-0.076712 0.02092,-0.104608 L 1.8411,-2.23861 Z"
           inkscape:connector-curvature="0" />
        <path
           id="equation_02_03"
           d="m 5.45953,-2.29141 c 0.16936,0 0.34869,0 0.34869,-0.19925 0,-0.19925 -0.17933,-0.19925 -0.34869,-0.19925 l -4.22416,0 c 0.11955,-1.335 1.26525,-2.29141 2.66998,-2.29141 l 1.55418,0 c 0.16936,0 0.34869,0 0.34869,-0.19925 0,-0.19925 -0.17933,-0.19926 -0.34869,-0.19926 l -1.5741,0 c -1.70361,0 -3.058531,1.29515 -3.058531,2.88917 0,1.59402 1.354921,2.889166 3.058531,2.889166 l 1.5741,0 c 0.16936,0 0.34869,0 0.34869,-0.199253 C 5.80822,0 5.62889,0 5.45953,0 L 3.90535,0 C 2.50062,0 1.35492,-0.956413 1.23537,-2.29141 l 4.22416,0 z"
           inkscape:connector-curvature="0" />
      </defs>
      <g
         id="equation_02_g">
        <use
           id="use4434"
           y="74.719803"
           xlink:href="#equation_02_01"
           x="219.015"
           width="100%"
           height="100%" />
        <use
           id="use4436"
           y="74.719803"
           xlink:href="#equation_02_03"
           x="227.006"
           width="100%"
           height="100%" />
        <use
           id="use4438"
           y="74.719803"
           xlink:href="#equation_02_00"
           x="236.39"
           width="100%"
           height="100%" />
        <use
           id="use4440"
           y="70.6063"
           xlink:href="#equation_02_02"
           x="243.558"
           width="100%"
           height="100%" />
      </g>
    </g>
    <path
       style="fill:none;fill-rule:evenodd;stroke:#f90000;stroke-width:1px;stroke-linecap:butt;stroke-linejoin:miter;stroke-opacity:1"
       d="m 130,102.36218 0,30"
       id="path4592"
       inkscape:connector-curvature="0" />
    <path
       style="fill:none;fill-rule:evenodd;stroke:#f90000;stroke-width:1px;stroke-linecap:butt;stroke-linejoin:miter;stroke-opacity:1"
       d="m 184.72518,102.36218 0,30"
       id="path4594"
       inkscape:connector-curvature="0" />
    <path
       style="fill:none;fill-rule:evenodd;stroke:#0000f5;stroke-width:1px;stroke-linecap:butt;stroke-linejoin:miter;stroke-opacity:1"
       d="m 234.71225,102.36218 0,15"
       id="path4596"
       inkscape:connector-curvature="0" />
    <path
       style="fill:none;fill-rule:evenodd;stroke:#007100;stroke-width:1px;stroke-linecap:butt;stroke-linejoin:miter;stroke-opacity:1"
       d="m 130.24173,172.87873 0,10"
       id="path4598"
       inkscape:connector-curvature="0" />
    <path
       style="fill:none;fill-rule:evenodd;stroke:#f90000;stroke-width:1px;stroke-linecap:butt;stroke-linejoin:miter;stroke-opacity:1"
       d="m 185.20864,172.67447 0,30"
       id="path4594-2"
       inkscape:connector-curvature="0" />
    <path
       style="fill:none;fill-rule:evenodd;stroke:#0000f5;stroke-width:1px;stroke-linecap:butt;stroke-linejoin:miter;stroke-opacity:1"
       d="m 234.97984,173.08166 0,15"
       id="path4596-3"
       inkscape:connector-curvature="0" />
    <rect
       style="opacity:0.93000016;fill:none;fill-opacity:1;fill-rule:evenodd;stroke:#000100;stroke-width:1px;stroke-linecap:butt;stroke-linejoin:miter;stroke-opacity:0.5098038"
       id="rect4630"
       width="30"
       height="30"
       x="149.72517"
       y="102.36218" />
    <rect
       style="fill:none;fill-rule:evenodd;stroke:#000000;stroke-width:1px;stroke-linecap:butt;stroke-linejoin:miter;stroke-opacity:0.5098038"
       id="rect4632"
       width="15"
       height="30"
       x="214.71225"
       y="102.36218" />
    <rect
       style="fill:none;fill-rule:evenodd;stroke:#000000;stroke-width:1px;stroke-linecap:butt;stroke-linejoin:miter;stroke-opacity:0.5098038"
       id="rect4634"
       width="30"
       height="10"
       x="150.20863"
       y="172.87872" />
    <rect
       style="fill:none;fill-rule:evenodd;stroke:#000000;stroke-width:1px;stroke-linecap:butt;stroke-linejoin:miter;stroke-opacity:0.5098038"
       id="rect4636"
       width="15"
       height="10"
       x="214.71225"
       y="172.87872" />
    <g
       transform="translate(-54.388555,11.536707)"
       id="equation_05"
       style="fill:#000000"
       title="\[ \frac{dx}{dt}{\hspace{3mm}}={\hspace{3mm}} A{\hspace{3mm}}x{\hspace{3mm}}+{\hspace{3mm}}B{\hspace{3mm}}u \]">
      <defs
         id="defs7540">
        <path
           inkscape:connector-curvature="0"
           d="M 1.78331,-1.1457 C 1.38481,-0.478207 0.996264,-0.33873 0.557908,-0.308842 0.438356,-0.298879 0.348692,-0.298879 0.348692,-0.109589 0.348692,-0.0498132 0.398506,0 0.478207,0 0.747198,0 1.05604,-0.0298879 1.33499,-0.0298879 1.66376,-0.0298879 2.01245,0 2.33126,0 c 0.05977,0 0.18929,0 0.18929,-0.18929 0,-0.109589 -0.08967,-0.119552 -0.1594,-0.119552 C 2.132,-0.328767 1.8929,-0.408468 1.8929,-0.657534 c 0,-0.119552 0.05978,-0.229141 0.13948,-0.368616 l 0.75716,-1.27522 2.50062,0 c 0.01993,0.20922 0.1594,1.564135 0.1594,1.663761 0,0.298879 -0.51805,0.328767 -0.71731,0.328767 -0.13947,0 -0.2391,0 -0.2391,0.199253 C 4.49315,0 4.6127,0 4.63263,0 5.0411,0 5.46949,-0.0298879 5.87796,-0.0298879 6.12702,-0.0298879 6.75467,0 7.00374,0 c 0.05977,0 0.17932,0 0.17932,-0.199253 0,-0.109589 -0.09962,-0.109589 -0.22914,-0.109589 -0.61768,0 -0.61768,-0.069738 -0.64757,-0.358655 L 5.69863,-6.89415 C 5.6787,-7.0934 5.6787,-7.13325 5.50934,-7.13325 c -0.1594,0 -0.19925,0.06974 -0.25903,0.16936 l -3.467,5.81819 z m 1.19552,-1.46451 1.96264,-3.28767 0.3188,3.28767 -2.28144,0 z"
           id="equation_05_00" />
        <path
           inkscape:connector-curvature="0"
           d="m 1.59402,-0.777086 c -0.09962,0.388543 -0.11955,0.468244 -0.906598,0.468244 -0.169365,0 -0.268991,0 -0.268991,0.199253 C 0.418431,0 0.508095,0 0.687422,0 L 4.24408,0 c 1.5741,0 2.74969,-1.17559 2.74969,-2.15193 0,-0.71731 -0.57783,-1.29514 -1.54421,-1.40473 1.03612,-0.18929 2.0822,-0.92653 2.0822,-1.87298 0,-0.73723 -0.65754,-1.37484 -1.85306,-1.37484 l -3.34744,0 c -0.18929,0 -0.28892,0 -0.28892,0.19925 0,0.10959 0.08966,0.10959 0.27896,0.10959 0.01992,0 0.20921,0 0.37858,0.01992 0.17932,0.01993 0.26899,0.02989 0.26899,0.15941 0,0.03985 -0.00997,0.06973 -0.03985,0.18929 l -1.335,5.349934 z M 3.09838,-3.64633 3.71606,-6.11706 c 0.08967,-0.34869 0.10959,-0.37858 0.53799,-0.37858 l 1.28518,0 c 0.87671,0 1.08593,0.58779 1.08593,1.02615 0,0.87671 -0.85679,1.82316 -2.07223,1.82316 l -1.45455,0 z m -0.44832,3.337488 c -0.13947,0 -0.1594,0 -0.21918,-0.009962 -0.09962,-0.009963 -0.12951,-0.019926 -0.12951,-0.099627 0,-0.029888 0,-0.049813 0.04981,-0.229141 l 0.68743,-2.779578 1.88293,0 c 0.95642,0 1.14571,0.73724 1.14571,1.16563 0,0.9863 -0.88668,1.952678 -2.06227,1.952678 l -1.35492,0 z"
           id="equation_05_01" />
        <path
           inkscape:connector-curvature="0"
           d="m 5.14072,-6.80448 c 0,-0.00997 0,-0.10959 -0.12951,-0.10959 -0.14944,0 -1.09589,0.08966 -1.26526,0.10959 -0.0797,0.00996 -0.13947,0.05977 -0.13947,0.18929 0,0.11955 0.08966,0.11955 0.2391,0.11955 0.47821,0 0.49813,0.06974 0.49813,0.16936 L 4.31382,-6.12702 3.71606,-3.76588 C 3.53674,-4.1345 3.24782,-4.40349 2.7995,-4.40349 c -1.16563,0 -2.400994,1.46451 -2.400994,2.91906 0,0.936485 0.547945,1.594019 1.325034,1.594019 0.19925,0 0.69738,-0.0398505 1.29514,-0.747198 0.0797,0.418431 0.42839,0.747198 0.9066,0.747198 0.34869,0 0.57783,-0.229141 0.73724,-0.547945 0.16936,-0.358655 0.29887,-0.966374 0.29887,-0.986304 0,-0.09962 -0.08966,-0.09962 -0.11955,-0.09962 -0.09962,0 -0.10959,0.03985 -0.13947,0.17932 -0.16937,0.647575 -0.3487,1.235371 -0.75716,1.235371 -0.269,0 -0.29888,-0.259029 -0.29888,-0.458281 0,-0.239104 0.01992,-0.308842 0.05977,-0.47821 l 1.43462,-5.7584 z m -2.07223,5.61893 c -0.04981,0.17932 -0.04981,0.199249 -0.19925,0.368614 -0.43836,0.547945 -0.84682,0.707347 -1.12578,0.707347 -0.49813,0 -0.63761,-0.547945 -0.63761,-0.936491 0,-0.49813 0.31881,-1.72353 0.54795,-2.18182 0.30884,-0.58779 0.75716,-0.95641 1.15566,-0.95641 0.64758,0 0.78705,0.81694 0.78705,0.87671 0,0.05977 -0.01992,0.11956 -0.02988,0.16937 l -0.49814,1.95268 z"
           id="equation_05_02" />
        <path
           inkscape:connector-curvature="0"
           d="m 2.0523,-3.98506 0.93649,0 c 0.19925,0 0.29888,0 0.29888,-0.19925 0,-0.10959 -0.09963,-0.10959 -0.27895,-0.10959 l -0.87672,0 c 0.35866,-1.41469 0.40847,-1.61395 0.40847,-1.67372 0,-0.16937 -0.11955,-0.26899 -0.28891,-0.26899 -0.02989,0 -0.30885,0.00996 -0.39851,0.35865 l -0.38854,1.58406 -0.93649,0 c -0.199253,0 -0.298879,0 -0.298879,0.18929 0,0.11955 0.079701,0.11955 0.278954,0.11955 l 0.876715,0 c -0.717313,2.82939 -0.757164,2.998759 -0.757164,3.178086 0,0.537983 0.378584,0.916563 0.916564,0.916563 1.01619,0 1.58406,-1.454549 1.58406,-1.534249 0,-0.09962 -0.0797,-0.09962 -0.11955,-0.09962 -0.08967,0 -0.09963,0.02988 -0.14944,0.13947 -0.4284,1.036118 -0.95642,1.275221 -1.29515,1.275221 -0.20921,0 -0.30884,-0.129514 -0.30884,-0.458281 0,-0.239104 0.01993,-0.308842 0.05978,-0.47821 L 2.0523,-3.98506 Z"
           id="equation_05_03" />
        <path
           inkscape:connector-curvature="0"
           d="m 3.48692,-0.557908 c 0.10959,0.408468 0.45829,0.667497 0.88668,0.667497 0.34869,0 0.57783,-0.229141 0.73723,-0.547945 0.16937,-0.358655 0.29888,-0.966374 0.29888,-0.986304 0,-0.09962 -0.08966,-0.09962 -0.11955,-0.09962 -0.09962,0 -0.10959,0.03985 -0.13948,0.17932 -0.13947,0.557911 -0.32876,1.235371 -0.74719,1.235371 -0.20922,0 -0.30884,-0.129514 -0.30884,-0.458281 0,-0.219179 0.11955,-0.68742 0.19925,-1.03612 l 0.27895,-1.07596 c 0.02989,-0.14944 0.12952,-0.52802 0.16937,-0.67746 0.04981,-0.22914 0.14944,-0.60772 0.14944,-0.6675 0,-0.17932 -0.13948,-0.26899 -0.28892,-0.26899 -0.04981,0 -0.30884,0.00996 -0.38854,0.34869 -0.18929,0.72728 -0.62765,2.47074 -0.7472,2.998759 -0.00996,0.039851 -0.40847,0.836862 -1.13574,0.836862 -0.51806,0 -0.61769,-0.448319 -0.61769,-0.816937 0,-0.557904 0.27896,-1.344954 0.53799,-2.032374 0.11955,-0.29888 0.16936,-0.43836 0.16936,-0.62765 0,-0.44832 -0.3188,-0.81694 -0.81693,-0.81694 -0.946456,0 -1.315073,1.44459 -1.315073,1.53425 0,0.09963 0.099626,0.09963 0.119551,0.09963 0.099627,0 0.109589,-0.01993 0.159402,-0.17933 0.249066,-0.86675 0.62765,-1.23537 1.00623,-1.23537 0.08966,0 0.24906,0.00996 0.24906,0.32877 0,0.2391 -0.10959,0.52802 -0.16936,0.67746 -0.36862,0.9863 -0.57783,1.60398 -0.57783,2.09215 0,0.946453 0.68742,1.195519 1.2254,1.195519 0.65753,0 1.01619,-0.448319 1.18555,-0.667497 z"
           id="equation_05_04" />
        <path
           inkscape:connector-curvature="0"
           d="m 3.32752,-3.00872 c 0.05978,-0.25903 0.28892,-1.17559 0.9863,-1.17559 0.04982,0 0.28892,0 0.49814,0.12952 -0.27896,0.04981 -0.47821,0.29887 -0.47821,0.53798 0,0.1594 0.10959,0.34869 0.37858,0.34869 0.21918,0 0.53798,-0.17933 0.53798,-0.57783 0,-0.51806 -0.58779,-0.65754 -0.92652,-0.65754 -0.57784,0 -0.92653,0.52802 -1.04608,0.75716 -0.24907,-0.65753 -0.78705,-0.75716 -1.07597,-0.75716 -1.03611,0 -1.603982,1.28518 -1.603982,1.53425 0,0.09963 0.099627,0.09963 0.119552,0.09963 0.079701,0 0.109589,-0.01993 0.129514,-0.10959 0.338726,-1.05604 0.996266,-1.30511 1.334996,-1.30511 0.18929,0 0.53798,0.08966 0.53798,0.6675 0,0.30884 -0.16936,0.97634 -0.53798,2.37111 -0.1594,0.61768 -0.5081,1.036111 -0.94645,1.036111 -0.05978,0 -0.288919,0 -0.498135,-0.129514 0.249066,-0.049814 0.468245,-0.259029 0.468245,-0.537983 0,-0.268994 -0.219179,-0.348694 -0.368618,-0.348694 -0.298879,0 -0.547945,0.25903 -0.547945,0.577835 0,0.4582812 0.498132,0.657534 0.936483,0.657534 0.65754,0 1.01619,-0.697385 1.04608,-0.757161 0.11955,0.368618 0.47821,0.757161 1.07597,0.757161 1.02615,0 1.59402,-1.285179 1.59402,-1.534249 0,-0.09962 -0.08966,-0.09962 -0.11955,-0.09962 -0.08967,0 -0.10959,0.03985 -0.12952,0.10959 -0.32876,1.065998 -1.00622,1.305101 -1.32503,1.305101 -0.38854,0 -0.54794,-0.318805 -0.54794,-0.657534 0,-0.219178 0.05977,-0.438357 0.16936,-0.876717 l 0.33873,-1.36488 z"
           id="equation_05_05" />
        <path
           inkscape:connector-curvature="0"
           d="m 4.07472,-2.29141 2.77958,0 c 0.13947,0 0.32876,0 0.32876,-0.19925 0,-0.19925 -0.18929,-0.19925 -0.32876,-0.19925 l -2.77958,0 0,-2.78954 c 0,-0.13948 0,-0.32877 -0.19925,-0.32877 -0.19925,0 -0.19926,0.18929 -0.19926,0.32877 l 0,2.78954 -2.789535,0 c -0.139477,0 -0.328767,0 -0.328767,0.19925 0,0.19925 0.18929,0.19925 0.328767,0.19925 l 2.789535,0 0,2.789542 c 0,0.139477 0,0.328767 0.19926,0.328767 0.19926,0 0.19925,-0.18929 0.19925,-0.328767 l 0,-2.789542 z"
           id="equation_05_06" />
        <path
           inkscape:connector-curvature="0"
           d="m 6.84433,-3.25778 c 0.14944,0 0.33873,0 0.33873,-0.19926 0,-0.19926 -0.18929,-0.19925 -0.32876,-0.19925 l -5.967625,0 c -0.139477,0 -0.328767,0 -0.328767,0.19925 0,0.19925 0.18929,0.19926 0.33873,0.19926 l 5.947692,0 z m 0.00997,1.93275 c 0.13947,0 0.32876,0 0.32876,-0.19925 0,-0.19925 -0.18929,-0.19926 -0.33873,-0.19926 l -5.947692,0 c -0.14944,0 -0.33873,0 -0.33873,0.19926 0,0.19926 0.18929,0.19925 0.328767,0.19925 l 5.967625,0 z"
           id="equation_05_07" />
      </defs>
      <g
         id="equation_05_g">
        <use
           height="100%"
           width="100%"
           x="176.48"
           xlink:href="#equation_05_02"
           y="70.679398"
           id="use7551" />
        <use
           height="100%"
           width="100%"
           x="181.646"
           xlink:href="#equation_05_05"
           y="70.679398"
           id="use7553" />
        <rect
           height="0.39848399"
           width="10.8793"
           x="176.48"
           y="74.729301"
           id="rect7555" />
        <use
           height="100%"
           width="100%"
           x="177.528"
           xlink:href="#equation_05_02"
           y="84.253098"
           id="use7557" />
        <use
           height="100%"
           width="100%"
           x="182.694"
           xlink:href="#equation_05_03"
           y="84.253098"
           id="use7559" />
        <use
           height="100%"
           width="100%"
           x="199.826"
           xlink:href="#equation_05_07"
           y="77.419197"
           id="use7561" />
        <use
           height="100%"
           width="100%"
           x="218.817"
           xlink:href="#equation_05_00"
           y="77.419197"
           id="use7563" />
        <use
           height="100%"
           width="100%"
           x="234.765"
           xlink:href="#equation_05_05"
           y="77.419197"
           id="use7565" />
        <use
           height="100%"
           width="100%"
           x="251.155"
           xlink:href="#equation_05_06"
           y="77.419197"
           id="use7567" />
        <use
           height="100%"
           width="100%"
           x="269.59299"
           xlink:href="#equation_05_01"
           y="77.419197"
           id="use7569" />
        <use
           height="100%"
           width="100%"
           x="286.125"
           xlink:href="#equation_05_04"
           y="77.419197"
           id="use7571" />
      </g>
    </g>
    <g
       title="\[ y{\hspace{4mm}}={\hspace{3mm}} C{\hspace{3mm}}x{\hspace{3mm}}+{\hspace{3mm}}D{\hspace{3mm}}u \]"
       style="fill:#000000"
       id="equation_04"
       transform="translate(-51.246105,86.869153)">
      <defs
         id="defs8316">
        <path
           id="equation_04_00"
           d="m 7.57161,-6.92403 c 0,-0.02989 -0.01993,-0.09963 -0.10959,-0.09963 -0.02989,0 -0.03985,0.00996 -0.14944,0.11955 l -0.69739,0.76712 c -0.08966,-0.13947 -0.54794,-0.88667 -1.6538,-0.88667 -2.22166,0 -4.463258,2.20174 -4.463258,4.51307 0,1.64384 1.175588,2.729768 2.699878,2.729768 0.86675,0 1.62391,-0.398506 2.15193,-0.856787 0.92652,-0.816941 1.09589,-1.723541 1.09589,-1.753421 0,-0.09963 -0.09963,-0.09963 -0.11955,-0.09963 -0.05978,0 -0.10959,0.01993 -0.12952,0.09963 -0.08966,0.28891 -0.3188,0.99626 -1.00622,1.574094 -0.68743,0.557907 -1.31507,0.7272722 -1.83313,0.7272722 -0.89664,0 -1.95268,-0.5180572 -1.95268,-2.0722262 0,-0.56787 0.20922,-2.18182 1.20548,-3.34745 0.60772,-0.70735 1.54421,-1.20548 2.43089,-1.20548 1.01619,0 1.60398,0.76712 1.60398,1.92279 0,0.39851 -0.02989,0.40847 -0.02989,0.50809 0,0.09962 0.10959,0.09963 0.14944,0.09963 0.12952,0 0.12952,-0.01992 0.17933,-0.19925 l 0.62765,-2.54047 z"
           inkscape:connector-curvature="0" />
        <path
           id="equation_04_01"
           d="m 1.58406,-0.777086 c -0.09963,0.388543 -0.11955,0.468244 -0.9066,0.468244 -0.169365,0 -0.278954,0 -0.278954,0.18929 C 0.398506,0 0.488169,0 0.67746,0 l 3.29763,0 c 2.07223,0 4.03487,-2.10212 4.03487,-4.28394 0,-1.40473 -0.84682,-2.52054 -2.34122,-2.52054 l -3.34744,0 c -0.1893,0 -0.29888,0 -0.29888,0.18929 0,0.11955 0.08966,0.11955 0.28891,0.11955 0.12952,0 0.30884,0.00996 0.4284,0.01992 0.1594,0.01993 0.21917,0.04982 0.21917,0.15941 0,0.03985 -0.00996,0.06973 -0.03985,0.18929 L 1.58406,-0.777086 Z M 3.73599,-6.11706 c 0.08966,-0.34869 0.10959,-0.37858 0.53798,-0.37858 l 1.06601,0 c 0.97633,0 1.80323,0.52802 1.80323,1.84309 0,0.48817 -0.19925,2.12204 -1.04607,3.21793 -0.28892,0.36862 -1.07597,1.125778 -2.30137,1.125778 l -1.12578,0 c -0.13948,0 -0.1594,0 -0.21918,-0.009962 C 2.35118,-0.328767 2.3213,-0.33873 2.3213,-0.418431 c 0,-0.029888 0,-0.049813 0.04981,-0.229141 L 3.73599,-6.11706 Z"
           inkscape:connector-curvature="0" />
        <path
           id="equation_04_02"
           d="m 3.48692,-0.557908 c 0.10959,0.408468 0.45829,0.667497 0.88668,0.667497 0.34869,0 0.57783,-0.229141 0.73723,-0.547945 0.16937,-0.358655 0.29888,-0.966374 0.29888,-0.986304 0,-0.09962 -0.08966,-0.09962 -0.11955,-0.09962 -0.09962,0 -0.10959,0.03985 -0.13948,0.17932 -0.13947,0.557911 -0.32876,1.235371 -0.74719,1.235371 -0.20922,0 -0.30884,-0.129514 -0.30884,-0.458281 0,-0.219179 0.11955,-0.68742 0.19925,-1.03612 l 0.27895,-1.07596 c 0.02989,-0.14944 0.12952,-0.52802 0.16937,-0.67746 0.04981,-0.22914 0.14944,-0.60772 0.14944,-0.6675 0,-0.17932 -0.13948,-0.26899 -0.28892,-0.26899 -0.04981,0 -0.30884,0.00996 -0.38854,0.34869 -0.18929,0.72728 -0.62765,2.47074 -0.7472,2.998759 -0.00996,0.039851 -0.40847,0.836862 -1.13574,0.836862 -0.51806,0 -0.61769,-0.448319 -0.61769,-0.816937 0,-0.557904 0.27896,-1.344954 0.53799,-2.032374 0.11955,-0.29888 0.16936,-0.43836 0.16936,-0.62765 0,-0.44832 -0.3188,-0.81694 -0.81693,-0.81694 -0.946456,0 -1.315073,1.44459 -1.315073,1.53425 0,0.09963 0.099626,0.09963 0.119551,0.09963 0.099627,0 0.109589,-0.01993 0.159402,-0.17933 0.249066,-0.86675 0.62765,-1.23537 1.00623,-1.23537 0.08966,0 0.24906,0.00996 0.24906,0.32877 0,0.2391 -0.10959,0.52802 -0.16936,0.67746 -0.36862,0.9863 -0.57783,1.60398 -0.57783,2.09215 0,0.946453 0.68742,1.195519 1.2254,1.195519 0.65753,0 1.01619,-0.448319 1.18555,-0.667497 z"
           inkscape:connector-curvature="0" />
        <path
           id="equation_04_03"
           d="m 3.32752,-3.00872 c 0.05978,-0.25903 0.28892,-1.17559 0.9863,-1.17559 0.04982,0 0.28892,0 0.49814,0.12952 -0.27896,0.04981 -0.47821,0.29887 -0.47821,0.53798 0,0.1594 0.10959,0.34869 0.37858,0.34869 0.21918,0 0.53798,-0.17933 0.53798,-0.57783 0,-0.51806 -0.58779,-0.65754 -0.92652,-0.65754 -0.57784,0 -0.92653,0.52802 -1.04608,0.75716 -0.24907,-0.65753 -0.78705,-0.75716 -1.07597,-0.75716 -1.03611,0 -1.603982,1.28518 -1.603982,1.53425 0,0.09963 0.099627,0.09963 0.119552,0.09963 0.079701,0 0.109589,-0.01993 0.129514,-0.10959 0.338726,-1.05604 0.996266,-1.30511 1.334996,-1.30511 0.18929,0 0.53798,0.08966 0.53798,0.6675 0,0.30884 -0.16936,0.97634 -0.53798,2.37111 -0.1594,0.61768 -0.5081,1.036111 -0.94645,1.036111 -0.05978,0 -0.288919,0 -0.498135,-0.129514 0.249066,-0.049814 0.468245,-0.259029 0.468245,-0.537983 0,-0.268994 -0.219179,-0.348694 -0.368618,-0.348694 -0.298879,0 -0.547945,0.25903 -0.547945,0.577835 0,0.4582812 0.498132,0.657534 0.936483,0.657534 0.65754,0 1.01619,-0.697385 1.04608,-0.757161 0.11955,0.368618 0.47821,0.757161 1.07597,0.757161 1.02615,0 1.59402,-1.285179 1.59402,-1.534249 0,-0.09962 -0.08966,-0.09962 -0.11955,-0.09962 -0.08967,0 -0.10959,0.03985 -0.12952,0.10959 -0.32876,1.065998 -1.00622,1.305101 -1.32503,1.305101 -0.38854,0 -0.54794,-0.318805 -0.54794,-0.657534 0,-0.219178 0.05977,-0.438357 0.16936,-0.876717 l 0.33873,-1.36488 z"
           inkscape:connector-curvature="0" />
        <path
           id="equation_04_04"
           d="m 4.84184,-3.79577 c 0.03985,-0.13947 0.03985,-0.1594 0.03985,-0.22914 0,-0.17932 -0.13947,-0.26899 -0.28891,-0.26899 -0.09963,0 -0.25903,0.05978 -0.3487,0.20922 -0.01992,0.04981 -0.09962,0.35865 -0.13947,0.53798 -0.06974,0.25903 -0.13948,0.52802 -0.19926,0.79701 l -0.44831,1.793277 c -0.03985,0.149439 -0.46825,0.846824 -1.12578,0.846824 -0.5081,0 -0.61769,-0.438356 -0.61769,-0.806974 0,-0.458277 0.16937,-1.075967 0.5081,-1.952677 0.1594,-0.40847 0.19925,-0.51806 0.19925,-0.71731 0,-0.44832 -0.3188,-0.81694 -0.81693,-0.81694 -0.946456,0 -1.315073,1.44459 -1.315073,1.53425 0,0.09963 0.099626,0.09963 0.119551,0.09963 0.099627,0 0.109589,-0.01993 0.159402,-0.17933 0.268992,-0.93649 0.6675,-1.23537 1.00623,-1.23537 0.0797,0 0.24906,0 0.24906,0.31881 0,0.24906 -0.09962,0.50809 -0.16936,0.69738 -0.39851,1.05604 -0.57783,1.62391 -0.57783,2.09215 0,0.88668 0.62764,1.185559 1.21544,1.185559 0.38854,0 0.72727,-0.1693648 1.00622,-0.448319 C 3.16812,0.179328 3.04857,0.667497 2.65006,1.19552 2.39103,1.53425 2.01245,1.82316 1.55417,1.82316 c -0.13948,0 -0.587794,-0.02988 -0.757159,-0.41843 0.159402,0 0.288919,0 0.428389,-0.11955 C 1.32503,1.19552 1.42466,1.066 1.42466,0.876712 1.42466,0.56787 1.15567,0.52802 1.05604,0.52802 c -0.229141,0 -0.557908,0.159402 -0.557908,0.64757 0,0.49813 0.438356,0.86675 1.056038,0.86675 1.02615,0 2.05231,-0.9066 2.33126,-2.03237736 L 4.84184,-3.79577 Z"
           inkscape:connector-curvature="0" />
        <path
           id="equation_04_05"
           d="m 4.07472,-2.29141 2.77958,0 c 0.13947,0 0.32876,0 0.32876,-0.19925 0,-0.19925 -0.18929,-0.19925 -0.32876,-0.19925 l -2.77958,0 0,-2.78954 c 0,-0.13948 0,-0.32877 -0.19925,-0.32877 -0.19925,0 -0.19926,0.18929 -0.19926,0.32877 l 0,2.78954 -2.789535,0 c -0.139477,0 -0.328767,0 -0.328767,0.19925 0,0.19925 0.18929,0.19925 0.328767,0.19925 l 2.789535,0 0,2.789542 c 0,0.139477 0,0.328767 0.19926,0.328767 0.19926,0 0.19925,-0.18929 0.19925,-0.328767 l 0,-2.789542 z"
           inkscape:connector-curvature="0" />
        <path
           id="equation_04_06"
           d="m 6.84433,-3.25778 c 0.14944,0 0.33873,0 0.33873,-0.19926 0,-0.19926 -0.18929,-0.19925 -0.32876,-0.19925 l -5.967625,0 c -0.139477,0 -0.328767,0 -0.328767,0.19925 0,0.19925 0.18929,0.19926 0.33873,0.19926 l 5.947692,0 z m 0.00997,1.93275 c 0.13947,0 0.32876,0 0.32876,-0.19925 0,-0.19925 -0.18929,-0.19926 -0.33873,-0.19926 l -5.947692,0 c -0.14944,0 -0.33873,0 -0.33873,0.19926 0,0.19926 0.18929,0.19925 0.328767,0.19925 l 5.967625,0 z"
           inkscape:connector-curvature="0" />
      </defs>
      <g
         id="equation_04_g">
        <use
           id="use8326"
           y="74.719803"
           xlink:href="#equation_04_04"
           x="177.466"
           width="100%"
           height="100%" />
        <use
           id="use8328"
           y="74.719803"
           xlink:href="#equation_04_06"
           x="196.79601"
           width="100%"
           height="100%" />
        <use
           id="use8330"
           y="74.719803"
           xlink:href="#equation_04_00"
           x="215.787"
           width="100%"
           height="100%" />
        <use
           id="use8332"
           y="74.719803"
           xlink:href="#equation_04_03"
           x="232.097"
           width="100%"
           height="100%" />
        <use
           id="use8334"
           y="74.719803"
           xlink:href="#equation_04_05"
           x="248.48801"
           width="100%"
           height="100%" />
        <use
           id="use8336"
           y="74.719803"
           xlink:href="#equation_04_01"
           x="266.92499"
           width="100%"
           height="100%" />
        <use
           id="use8338"
           y="74.719803"
           xlink:href="#equation_04_02"
           x="283.92401"
           width="100%"
           height="100%" />
      </g>
    </g>
    <g
       title="\[ n \]"
       style="fill:#fe0000;fill-opacity:1"
       id="equation_06"
       transform="translate(-43.735874,45.444657)">
      <defs
         id="defs8753">
        <path
           id="equation_06_00"
           d="m 0.876712,-0.587796 c -0.029888,0.14944 -0.089663,0.378581 -0.089663,0.428394 0,0.1793273 0.139477,0.268991 0.288921,0.268991 0.11955,0 0.29887,-0.0797011 0.36861,-0.278954 C 1.45455,-0.18929 1.5741,-0.657534 1.63387,-0.9066 l 0.21918,-0.89664 c 0.05978,-0.21918 0.11955,-0.43835 0.16937,-0.66749 0.03985,-0.16937 0.11955,-0.45829 0.12951,-0.49814 0.14944,-0.30884 0.67746,-1.21544 1.62391,-1.21544 0.44832,0 0.53798,0.36862 0.53798,0.69739 0,0.61768 -0.48817,1.8929 -0.64757,2.32129 -0.08966,0.229142 -0.09962,0.348694 -0.09962,0.458283 0,0.468244 0.34869,0.816936 0.81693,0.816936 0.93649,0 1.30511,-1.454549 1.30511,-1.534249 0,-0.09962 -0.08967,-0.09962 -0.11955,-0.09962 -0.09963,0 -0.09963,0.02988 -0.14944,0.17932 -0.19926,0.677463 -0.52802,1.235371 -1.01619,1.235371 -0.16937,0 -0.23911,-0.099626 -0.23911,-0.328767 0,-0.249066 0.08967,-0.48817 0.17933,-0.707344 0.18929,-0.52802 0.60772,-1.62391 0.60772,-2.19178 0,-0.6675 -0.42839,-1.06601 -1.1457,-1.06601 -0.89664,0 -1.38481,0.63761 -1.55417,0.86675 -0.04982,-0.55791 -0.45828,-0.86675 -0.91657,-0.86675 -0.45829,0 -0.647568,0.38855 -0.747194,0.56787 -0.159402,0.33873 -0.298879,0.92653 -0.298879,0.96638 0,0.09963 0.099626,0.09963 0.119551,0.09963 0.099627,0 0.109589,-0.00997 0.169365,-0.22914 0.169365,-0.70735 0.368618,-1.18556 0.727277,-1.18556 0.19925,0 0.30884,0.12952 0.30884,0.45828 0,0.20922 -0.02989,0.31881 -0.1594,0.83686 l -0.577838,2.301374 z"
           inkscape:connector-curvature="0" />
      </defs>
      <g
         id="equation_06_g"
         style="fill:#fe0000;fill-opacity:1">
        <use
           id="use8757"
           y="74.719803"
           xlink:href="#equation_06_00"
           x="230.634"
           width="100%"
           height="100%"
           style="fill:#fe0000;fill-opacity:1" />
      </g>
    </g>
    <g
       transform="translate(6.7683539,37.269117)"
       id="equation_03"
       style="fill:#0000fb;fill-opacity:1"
       title="\[ m \]">
      <defs
         id="defs8959">
        <path
           inkscape:connector-curvature="0"
           d="m 0.876712,-0.587796 c -0.029888,0.14944 -0.089663,0.378581 -0.089663,0.428394 0,0.1793273 0.139477,0.268991 0.288921,0.268991 0.11955,0 0.29887,-0.0797011 0.36861,-0.278954 C 1.45455,-0.18929 1.5741,-0.657534 1.63387,-0.9066 l 0.21918,-0.89664 c 0.05978,-0.21918 0.11955,-0.43835 0.16937,-0.66749 0.03985,-0.16937 0.11955,-0.45829 0.12951,-0.49814 0.14944,-0.30884 0.67746,-1.21544 1.62391,-1.21544 0.44832,0 0.53798,0.36862 0.53798,0.69739 0,0.24906 -0.06974,0.52802 -0.14944,0.8269 l -0.27895,1.15566 -0.19925,0.757162 c -0.03985,0.199253 -0.12952,0.537983 -0.12952,0.587796 0,0.1793273 0.13948,0.268991 0.28892,0.268991 0.30884,0 0.36862,-0.249066 0.44832,-0.56787 0.13947,-0.557909 0.50809,-2.012449 0.59776,-2.400999 0.02988,-0.12951 0.5579,-1.32503 1.64383,-1.32503 0.4284,0 0.53798,0.33873 0.53798,0.69739 0,0.56787 -0.41843,1.70361 -0.61768,2.23163 -0.08966,0.2391 -0.12951,0.34869 -0.12951,0.547943 0,0.468244 0.34869,0.816936 0.81693,0.816936 0.93649,0 1.30511,-1.454549 1.30511,-1.534249 0,-0.09962 -0.08966,-0.09962 -0.11955,-0.09962 -0.09963,0 -0.09963,0.02988 -0.14944,0.17932 -0.14944,0.528024 -0.46825,1.235371 -1.01619,1.235371 -0.16937,0 -0.23911,-0.099626 -0.23911,-0.328767 0,-0.249066 0.08967,-0.48817 0.17933,-0.707344 0.18929,-0.51806 0.60772,-1.62391 0.60772,-2.19178 0,-0.64758 -0.3985,-1.06601 -1.1457,-1.06601 -0.7472,0 -1.25529,0.43836 -1.62391,0.96638 C 4.93151,-3.56663 4.90162,-3.90535 4.62267,-4.14446 4.3736,-4.35367 4.05479,-4.40349 3.80573,-4.40349 c -0.89664,0 -1.38481,0.63761 -1.55417,0.86675 -0.04982,-0.56787 -0.46825,-0.86675 -0.91657,-0.86675 -0.458278,0 -0.647568,0.38855 -0.737232,0.56787 -0.179327,0.3487 -0.308841,0.93649 -0.308841,0.96638 0,0.09963 0.099626,0.09963 0.119551,0.09963 0.099627,0 0.109589,-0.00997 0.169365,-0.22914 0.169365,-0.70735 0.368618,-1.18556 0.727277,-1.18556 0.1594,0 0.30884,0.0797 0.30884,0.45828 0,0.20922 -0.02989,0.31881 -0.1594,0.83686 l -0.577838,2.301374 z"
           id="equation_03_00" />
      </defs>
      <g
         id="equation_03_g"
         style="fill:#0000fb;fill-opacity:1">
        <use
           height="100%"
           width="100%"
           x="229.25"
           xlink:href="#equation_03_00"
           y="74.719803"
           id="use8963"
           style="fill:#0000fb;fill-opacity:1" />
      </g>
    </g>
    <g
       title="\[ p \]"
       style="fill:#006e00;fill-opacity:1"
       id="equation_07"
       transform="translate(-109.26056,104.57418)">
      <defs
         id="defs9168">
        <path
           id="equation_07_00"
           d="m 0.448319,1.21544 c -0.079701,0.33873 -0.099627,0.40847 -0.5379828,0.40847 -0.1195512,0 -0.2291402,0 -0.2291402,0.18929 0,0.0797 0.049813,0.11955 0.129514,0.11955 0.2689911,0 0.557908,-0.02989 0.836862,-0.02989 0.328767,0 0.667498,0.02989 0.986298,0.02989 0.04982,0 0.17933,0 0.17933,-0.19925 0,-0.10959 -0.09963,-0.10959 -0.2391,-0.10959 -0.49813,0 -0.49813,-0.06974 -0.49813,-0.1594 0,-0.11955 0.41843,-1.743464 0.48816,-1.99253 0.12952,0.288917 0.40847,0.637609 0.91657,0.637609 1.15566,0 2.40099,-1.454549 2.40099,-2.919049 0,-0.93649 -0.56787,-1.59403 -1.32503,-1.59403 -0.49813,0 -0.97634,0.35866 -1.3051,0.7472 -0.09963,-0.53798 -0.52802,-0.7472 -0.89664,-0.7472 -0.458282,0 -0.647573,0.38855 -0.737236,0.56787 -0.179328,0.33873 -0.308842,0.93649 -0.308842,0.96638 0,0.09963 0.099626,0.09963 0.119552,0.09963 0.099626,0 0.109589,-0.00997 0.169364,-0.22914 0.169365,-0.70735 0.368618,-1.18556 0.727272,-1.18556 0.16937,0 0.30884,0.0797 0.30884,0.45828 0,0.22914 -0.02988,0.33873 -0.06974,0.5081 L 0.448319,1.21544 Z M 2.20174,-3.10834 c 0.06974,-0.26899 0.33873,-0.54795 0.51806,-0.69739 0.34869,-0.30884 0.63761,-0.37858 0.80697,-0.37858 0.39851,0 0.63761,0.34869 0.63761,0.93649 0,0.5878 -0.32876,1.7335 -0.50809,2.11208 -0.33873,0.697384 -0.81694,1.026151 -1.18556,1.026151 -0.65753,0 -0.78704,-0.826899 -0.78704,-0.886675 0,-0.019926 0,-0.039846 0.02988,-0.159406 l 0.48817,-1.95267 z"
           inkscape:connector-curvature="0" />
      </defs>
      <g
         id="equation_07_g"
         style="fill:#006e00;fill-opacity:1">
        <use
           id="use9172"
           y="74.719803"
           xlink:href="#equation_07_00"
           x="231.118"
           width="100%"
           height="100%"
           style="fill:#006e00;fill-opacity:1" />
      </g>
    </g>
    <g
       title="\[ n \]"
       style="fill:#fe0000;fill-opacity:1"
       id="equation_06-2"
       transform="translate(-108.53538,45.444657)">
      <defs
         id="defs8753-4">
        <path
           id="equation_06_00-5"
           d="m 0.876712,-0.587796 c -0.029888,0.14944 -0.089663,0.378581 -0.089663,0.428394 0,0.1793273 0.139477,0.268991 0.288921,0.268991 0.11955,0 0.29887,-0.0797011 0.36861,-0.278954 C 1.45455,-0.18929 1.5741,-0.657534 1.63387,-0.9066 l 0.21918,-0.89664 c 0.05978,-0.21918 0.11955,-0.43835 0.16937,-0.66749 0.03985,-0.16937 0.11955,-0.45829 0.12951,-0.49814 0.14944,-0.30884 0.67746,-1.21544 1.62391,-1.21544 0.44832,0 0.53798,0.36862 0.53798,0.69739 0,0.61768 -0.48817,1.8929 -0.64757,2.32129 -0.08966,0.229142 -0.09962,0.348694 -0.09962,0.458283 0,0.468244 0.34869,0.816936 0.81693,0.816936 0.93649,0 1.30511,-1.454549 1.30511,-1.534249 0,-0.09962 -0.08967,-0.09962 -0.11955,-0.09962 -0.09963,0 -0.09963,0.02988 -0.14944,0.17932 -0.19926,0.677463 -0.52802,1.235371 -1.01619,1.235371 -0.16937,0 -0.23911,-0.099626 -0.23911,-0.328767 0,-0.249066 0.08967,-0.48817 0.17933,-0.707344 0.18929,-0.52802 0.60772,-1.62391 0.60772,-2.19178 0,-0.6675 -0.42839,-1.06601 -1.1457,-1.06601 -0.89664,0 -1.38481,0.63761 -1.55417,0.86675 -0.04982,-0.55791 -0.45828,-0.86675 -0.91657,-0.86675 -0.45829,0 -0.647568,0.38855 -0.747194,0.56787 -0.159402,0.33873 -0.298879,0.92653 -0.298879,0.96638 0,0.09963 0.099626,0.09963 0.119551,0.09963 0.099627,0 0.109589,-0.00997 0.169365,-0.22914 0.169365,-0.70735 0.368618,-1.18556 0.727277,-1.18556 0.19925,0 0.30884,0.12952 0.30884,0.45828 0,0.20922 -0.02989,0.31881 -0.1594,0.83686 l -0.577838,2.301374 z"
           inkscape:connector-curvature="0" />
      </defs>
      <g
         id="equation_06_g-2"
         style="fill:#fe0000;fill-opacity:1">
        <use
           id="use8757-2"
           y="74.719803"
           xlink:href="#equation_06_00-5"
           x="230.634"
           width="100%"
           height="100%"
           style="fill:#fe0000;fill-opacity:1" />
      </g>
    </g>
    <g
       title="\[ n \]"
       style="fill:#fe0000;fill-opacity:1"
       id="equation_06-0"
       transform="translate(-88.135627,45.444657)">
      <defs
         id="defs8753-42">
        <path
           id="equation_06_00-56"
           d="m 0.876712,-0.587796 c -0.029888,0.14944 -0.089663,0.378581 -0.089663,0.428394 0,0.1793273 0.139477,0.268991 0.288921,0.268991 0.11955,0 0.29887,-0.0797011 0.36861,-0.278954 C 1.45455,-0.18929 1.5741,-0.657534 1.63387,-0.9066 l 0.21918,-0.89664 c 0.05978,-0.21918 0.11955,-0.43835 0.16937,-0.66749 0.03985,-0.16937 0.11955,-0.45829 0.12951,-0.49814 0.14944,-0.30884 0.67746,-1.21544 1.62391,-1.21544 0.44832,0 0.53798,0.36862 0.53798,0.69739 0,0.61768 -0.48817,1.8929 -0.64757,2.32129 -0.08966,0.229142 -0.09962,0.348694 -0.09962,0.458283 0,0.468244 0.34869,0.816936 0.81693,0.816936 0.93649,0 1.30511,-1.454549 1.30511,-1.534249 0,-0.09962 -0.08967,-0.09962 -0.11955,-0.09962 -0.09963,0 -0.09963,0.02988 -0.14944,0.17932 -0.19926,0.677463 -0.52802,1.235371 -1.01619,1.235371 -0.16937,0 -0.23911,-0.099626 -0.23911,-0.328767 0,-0.249066 0.08967,-0.48817 0.17933,-0.707344 0.18929,-0.52802 0.60772,-1.62391 0.60772,-2.19178 0,-0.6675 -0.42839,-1.06601 -1.1457,-1.06601 -0.89664,0 -1.38481,0.63761 -1.55417,0.86675 -0.04982,-0.55791 -0.45828,-0.86675 -0.91657,-0.86675 -0.45829,0 -0.647568,0.38855 -0.747194,0.56787 -0.159402,0.33873 -0.298879,0.92653 -0.298879,0.96638 0,0.09963 0.099626,0.09963 0.119551,0.09963 0.099627,0 0.109589,-0.00997 0.169365,-0.22914 0.169365,-0.70735 0.368618,-1.18556 0.727277,-1.18556 0.19925,0 0.30884,0.12952 0.30884,0.45828 0,0.20922 -0.02989,0.31881 -0.1594,0.83686 l -0.577838,2.301374 z"
           inkscape:connector-curvature="0" />
      </defs>
      <g
         id="equation_06_g-8"
         style="fill:#fe0000;fill-opacity:1">
        <use
           id="use8757-5"
           y="74.719803"
           xlink:href="#equation_06_00-56"
           x="230.634"
           width="100%"
           height="100%"
           style="fill:#fe0000;fill-opacity:1" />
      </g>
    </g>
    <g
       title="\[ n \]"
       style="opacity:1;fill:#fa0000;fill-opacity:1"
       id="equation_06-9"
       transform="translate(-68.027388,25.598511)">
      <defs
         id="defs8753-7">
        <path
           id="equation_06_00-1"
           d="m 0.876712,-0.587796 c -0.029888,0.14944 -0.089663,0.378581 -0.089663,0.428394 0,0.1793273 0.139477,0.268991 0.288921,0.268991 0.11955,0 0.29887,-0.0797011 0.36861,-0.278954 C 1.45455,-0.18929 1.5741,-0.657534 1.63387,-0.9066 l 0.21918,-0.89664 c 0.05978,-0.21918 0.11955,-0.43835 0.16937,-0.66749 0.03985,-0.16937 0.11955,-0.45829 0.12951,-0.49814 0.14944,-0.30884 0.67746,-1.21544 1.62391,-1.21544 0.44832,0 0.53798,0.36862 0.53798,0.69739 0,0.61768 -0.48817,1.8929 -0.64757,2.32129 -0.08966,0.229142 -0.09962,0.348694 -0.09962,0.458283 0,0.468244 0.34869,0.816936 0.81693,0.816936 0.93649,0 1.30511,-1.454549 1.30511,-1.534249 0,-0.09962 -0.08967,-0.09962 -0.11955,-0.09962 -0.09963,0 -0.09963,0.02988 -0.14944,0.17932 -0.19926,0.677463 -0.52802,1.235371 -1.01619,1.235371 -0.16937,0 -0.23911,-0.099626 -0.23911,-0.328767 0,-0.249066 0.08967,-0.48817 0.17933,-0.707344 0.18929,-0.52802 0.60772,-1.62391 0.60772,-2.19178 0,-0.6675 -0.42839,-1.06601 -1.1457,-1.06601 -0.89664,0 -1.38481,0.63761 -1.55417,0.86675 -0.04982,-0.55791 -0.45828,-0.86675 -0.91657,-0.86675 -0.45829,0 -0.647568,0.38855 -0.747194,0.56787 -0.159402,0.33873 -0.298879,0.92653 -0.298879,0.96638 0,0.09963 0.099626,0.09963 0.119551,0.09963 0.099627,0 0.109589,-0.00997 0.169365,-0.22914 0.169365,-0.70735 0.368618,-1.18556 0.727277,-1.18556 0.19925,0 0.30884,0.12952 0.30884,0.45828 0,0.20922 -0.02989,0.31881 -0.1594,0.83686 l -0.577838,2.301374 z"
           inkscape:connector-curvature="0" />
      </defs>
      <g
         id="equation_06_g-7"
         style="fill:#fa0000;fill-opacity:1">
        <use
           id="use8757-8"
           y="74.719803"
           xlink:href="#equation_06_00-1"
           x="230.634"
           width="100%"
           height="100%"
           style="fill:#fa0000;fill-opacity:1" />
      </g>
    </g>
    <g
       title="\[ n \]"
       style="fill:#fe0000;fill-opacity:1"
       id="equation_06-90"
       transform="translate(-23.336121,45.444657)">
      <defs
         id="defs8753-8">
        <path
           id="equation_06_00-8"
           d="m 0.876712,-0.587796 c -0.029888,0.14944 -0.089663,0.378581 -0.089663,0.428394 0,0.1793273 0.139477,0.268991 0.288921,0.268991 0.11955,0 0.29887,-0.0797011 0.36861,-0.278954 C 1.45455,-0.18929 1.5741,-0.657534 1.63387,-0.9066 l 0.21918,-0.89664 c 0.05978,-0.21918 0.11955,-0.43835 0.16937,-0.66749 0.03985,-0.16937 0.11955,-0.45829 0.12951,-0.49814 0.14944,-0.30884 0.67746,-1.21544 1.62391,-1.21544 0.44832,0 0.53798,0.36862 0.53798,0.69739 0,0.61768 -0.48817,1.8929 -0.64757,2.32129 -0.08966,0.229142 -0.09962,0.348694 -0.09962,0.458283 0,0.468244 0.34869,0.816936 0.81693,0.816936 0.93649,0 1.30511,-1.454549 1.30511,-1.534249 0,-0.09962 -0.08967,-0.09962 -0.11955,-0.09962 -0.09963,0 -0.09963,0.02988 -0.14944,0.17932 -0.19926,0.677463 -0.52802,1.235371 -1.01619,1.235371 -0.16937,0 -0.23911,-0.099626 -0.23911,-0.328767 0,-0.249066 0.08967,-0.48817 0.17933,-0.707344 0.18929,-0.52802 0.60772,-1.62391 0.60772,-2.19178 0,-0.6675 -0.42839,-1.06601 -1.1457,-1.06601 -0.89664,0 -1.38481,0.63761 -1.55417,0.86675 -0.04982,-0.55791 -0.45828,-0.86675 -0.91657,-0.86675 -0.45829,0 -0.647568,0.38855 -0.747194,0.56787 -0.159402,0.33873 -0.298879,0.92653 -0.298879,0.96638 0,0.09963 0.099626,0.09963 0.119551,0.09963 0.099627,0 0.109589,-0.00997 0.169365,-0.22914 0.169365,-0.70735 0.368618,-1.18556 0.727277,-1.18556 0.19925,0 0.30884,0.12952 0.30884,0.45828 0,0.20922 -0.02989,0.31881 -0.1594,0.83686 l -0.577838,2.301374 z"
           inkscape:connector-curvature="0" />
      </defs>
      <g
         id="equation_06_g-0"
         style="fill:#fe0000;fill-opacity:1">
        <use
           id="use8757-3"
           y="74.719803"
           xlink:href="#equation_06_00-8"
           x="230.634"
           width="100%"
           height="100%"
           style="fill:#fe0000;fill-opacity:1" />
      </g>
    </g>
    <g
       title="\[ n \]"
       style="fill:#fe0000;fill-opacity:1"
       id="equation_06-6"
       transform="translate(-68.600039,96.42012)">
      <defs
         id="defs8753-6">
        <path
           id="equation_06_00-6"
           d="m 0.876712,-0.587796 c -0.029888,0.14944 -0.089663,0.378581 -0.089663,0.428394 0,0.1793273 0.139477,0.268991 0.288921,0.268991 0.11955,0 0.29887,-0.0797011 0.36861,-0.278954 C 1.45455,-0.18929 1.5741,-0.657534 1.63387,-0.9066 l 0.21918,-0.89664 c 0.05978,-0.21918 0.11955,-0.43835 0.16937,-0.66749 0.03985,-0.16937 0.11955,-0.45829 0.12951,-0.49814 0.14944,-0.30884 0.67746,-1.21544 1.62391,-1.21544 0.44832,0 0.53798,0.36862 0.53798,0.69739 0,0.61768 -0.48817,1.8929 -0.64757,2.32129 -0.08966,0.229142 -0.09962,0.348694 -0.09962,0.458283 0,0.468244 0.34869,0.816936 0.81693,0.816936 0.93649,0 1.30511,-1.454549 1.30511,-1.534249 0,-0.09962 -0.08967,-0.09962 -0.11955,-0.09962 -0.09963,0 -0.09963,0.02988 -0.14944,0.17932 -0.19926,0.677463 -0.52802,1.235371 -1.01619,1.235371 -0.16937,0 -0.23911,-0.099626 -0.23911,-0.328767 0,-0.249066 0.08967,-0.48817 0.17933,-0.707344 0.18929,-0.52802 0.60772,-1.62391 0.60772,-2.19178 0,-0.6675 -0.42839,-1.06601 -1.1457,-1.06601 -0.89664,0 -1.38481,0.63761 -1.55417,0.86675 -0.04982,-0.55791 -0.45828,-0.86675 -0.91657,-0.86675 -0.45829,0 -0.647568,0.38855 -0.747194,0.56787 -0.159402,0.33873 -0.298879,0.92653 -0.298879,0.96638 0,0.09963 0.099626,0.09963 0.119551,0.09963 0.099627,0 0.109589,-0.00997 0.169365,-0.22914 0.169365,-0.70735 0.368618,-1.18556 0.727277,-1.18556 0.19925,0 0.30884,0.12952 0.30884,0.45828 0,0.20922 -0.02989,0.31881 -0.1594,0.83686 l -0.577838,2.301374 z"
           inkscape:connector-curvature="0" />
      </defs>
      <g
         id="equation_06_g-86"
         style="fill:#fe0000;fill-opacity:1">
        <use
           id="use8757-26"
           y="74.719803"
           xlink:href="#equation_06_00-6"
           x="230.634"
           width="100%"
           height="100%"
           style="fill:#fe0000;fill-opacity:1" />
      </g>
    </g>
    <g
       transform="translate(-11.119435,25.623053)"
       id="equation_03-1"
       style="fill:#0000fb;fill-opacity:1"
       title="\[ m \]">
      <defs
         id="defs8959-5">
        <path
           inkscape:connector-curvature="0"
           d="m 0.876712,-0.587796 c -0.029888,0.14944 -0.089663,0.378581 -0.089663,0.428394 0,0.1793273 0.139477,0.268991 0.288921,0.268991 0.11955,0 0.29887,-0.0797011 0.36861,-0.278954 C 1.45455,-0.18929 1.5741,-0.657534 1.63387,-0.9066 l 0.21918,-0.89664 c 0.05978,-0.21918 0.11955,-0.43835 0.16937,-0.66749 0.03985,-0.16937 0.11955,-0.45829 0.12951,-0.49814 0.14944,-0.30884 0.67746,-1.21544 1.62391,-1.21544 0.44832,0 0.53798,0.36862 0.53798,0.69739 0,0.24906 -0.06974,0.52802 -0.14944,0.8269 l -0.27895,1.15566 -0.19925,0.757162 c -0.03985,0.199253 -0.12952,0.537983 -0.12952,0.587796 0,0.1793273 0.13948,0.268991 0.28892,0.268991 0.30884,0 0.36862,-0.249066 0.44832,-0.56787 0.13947,-0.557909 0.50809,-2.012449 0.59776,-2.400999 0.02988,-0.12951 0.5579,-1.32503 1.64383,-1.32503 0.4284,0 0.53798,0.33873 0.53798,0.69739 0,0.56787 -0.41843,1.70361 -0.61768,2.23163 -0.08966,0.2391 -0.12951,0.34869 -0.12951,0.547943 0,0.468244 0.34869,0.816936 0.81693,0.816936 0.93649,0 1.30511,-1.454549 1.30511,-1.534249 0,-0.09962 -0.08966,-0.09962 -0.11955,-0.09962 -0.09963,0 -0.09963,0.02988 -0.14944,0.17932 -0.14944,0.528024 -0.46825,1.235371 -1.01619,1.235371 -0.16937,0 -0.23911,-0.099626 -0.23911,-0.328767 0,-0.249066 0.08967,-0.48817 0.17933,-0.707344 0.18929,-0.51806 0.60772,-1.62391 0.60772,-2.19178 0,-0.64758 -0.3985,-1.06601 -1.1457,-1.06601 -0.7472,0 -1.25529,0.43836 -1.62391,0.96638 C 4.93151,-3.56663 4.90162,-3.90535 4.62267,-4.14446 4.3736,-4.35367 4.05479,-4.40349 3.80573,-4.40349 c -0.89664,0 -1.38481,0.63761 -1.55417,0.86675 -0.04982,-0.56787 -0.46825,-0.86675 -0.91657,-0.86675 -0.458278,0 -0.647568,0.38855 -0.737232,0.56787 -0.179327,0.3487 -0.308841,0.93649 -0.308841,0.96638 0,0.09963 0.099626,0.09963 0.119551,0.09963 0.099627,0 0.109589,-0.00997 0.169365,-0.22914 0.169365,-0.70735 0.368618,-1.18556 0.727277,-1.18556 0.1594,0 0.30884,0.0797 0.30884,0.45828 0,0.20922 -0.02989,0.31881 -0.1594,0.83686 l -0.577838,2.301374 z"
           id="equation_03_00-5" />
      </defs>
      <g
         id="equation_03_g-3"
         style="fill:#0000fb;fill-opacity:1">
        <use
           height="100%"
           width="100%"
           x="229.25"
           xlink:href="#equation_03_00-5"
           y="74.719803"
           id="use8963-4"
           style="fill:#0000fb;fill-opacity:1" />
      </g>
    </g>
    <g
       transform="translate(-11.106504,96.78852)"
       id="equation_03-0"
       style="fill:#0000fb;fill-opacity:1"
       title="\[ m \]">
      <defs
         id="defs8959-3">
        <path
           inkscape:connector-curvature="0"
           d="m 0.876712,-0.587796 c -0.029888,0.14944 -0.089663,0.378581 -0.089663,0.428394 0,0.1793273 0.139477,0.268991 0.288921,0.268991 0.11955,0 0.29887,-0.0797011 0.36861,-0.278954 C 1.45455,-0.18929 1.5741,-0.657534 1.63387,-0.9066 l 0.21918,-0.89664 c 0.05978,-0.21918 0.11955,-0.43835 0.16937,-0.66749 0.03985,-0.16937 0.11955,-0.45829 0.12951,-0.49814 0.14944,-0.30884 0.67746,-1.21544 1.62391,-1.21544 0.44832,0 0.53798,0.36862 0.53798,0.69739 0,0.24906 -0.06974,0.52802 -0.14944,0.8269 l -0.27895,1.15566 -0.19925,0.757162 c -0.03985,0.199253 -0.12952,0.537983 -0.12952,0.587796 0,0.1793273 0.13948,0.268991 0.28892,0.268991 0.30884,0 0.36862,-0.249066 0.44832,-0.56787 0.13947,-0.557909 0.50809,-2.012449 0.59776,-2.400999 0.02988,-0.12951 0.5579,-1.32503 1.64383,-1.32503 0.4284,0 0.53798,0.33873 0.53798,0.69739 0,0.56787 -0.41843,1.70361 -0.61768,2.23163 -0.08966,0.2391 -0.12951,0.34869 -0.12951,0.547943 0,0.468244 0.34869,0.816936 0.81693,0.816936 0.93649,0 1.30511,-1.454549 1.30511,-1.534249 0,-0.09962 -0.08966,-0.09962 -0.11955,-0.09962 -0.09963,0 -0.09963,0.02988 -0.14944,0.17932 -0.14944,0.528024 -0.46825,1.235371 -1.01619,1.235371 -0.16937,0 -0.23911,-0.099626 -0.23911,-0.328767 0,-0.249066 0.08967,-0.48817 0.17933,-0.707344 0.18929,-0.51806 0.60772,-1.62391 0.60772,-2.19178 0,-0.64758 -0.3985,-1.06601 -1.1457,-1.06601 -0.7472,0 -1.25529,0.43836 -1.62391,0.96638 C 4.93151,-3.56663 4.90162,-3.90535 4.62267,-4.14446 4.3736,-4.35367 4.05479,-4.40349 3.80573,-4.40349 c -0.89664,0 -1.38481,0.63761 -1.55417,0.86675 -0.04982,-0.56787 -0.46825,-0.86675 -0.91657,-0.86675 -0.458278,0 -0.647568,0.38855 -0.737232,0.56787 -0.179327,0.3487 -0.308841,0.93649 -0.308841,0.96638 0,0.09963 0.099626,0.09963 0.119551,0.09963 0.099627,0 0.109589,-0.00997 0.169365,-0.22914 0.169365,-0.70735 0.368618,-1.18556 0.727277,-1.18556 0.1594,0 0.30884,0.0797 0.30884,0.45828 0,0.20922 -0.02989,0.31881 -0.1594,0.83686 l -0.577838,2.301374 z"
           id="equation_03_00-2" />
      </defs>
      <g
         id="equation_03_g-4"
         style="fill:#0000fb;fill-opacity:1">
        <use
           height="100%"
           width="100%"
           x="229.25"
           xlink:href="#equation_03_00-2"
           y="74.719803"
           id="use8963-8"
           style="fill:#0000fb;fill-opacity:1" />
      </g>
    </g>
    <g
       title="\[ p \]"
       style="fill:#006e00;fill-opacity:1"
       id="equation_07-6"
       transform="translate(-87.060066,104.57418)">
      <defs
         id="defs9168-0">
        <path
           id="equation_07_00-9"
           d="m 0.448319,1.21544 c -0.079701,0.33873 -0.099627,0.40847 -0.5379828,0.40847 -0.1195512,0 -0.2291402,0 -0.2291402,0.18929 0,0.0797 0.049813,0.11955 0.129514,0.11955 0.2689911,0 0.557908,-0.02989 0.836862,-0.02989 0.328767,0 0.667498,0.02989 0.986298,0.02989 0.04982,0 0.17933,0 0.17933,-0.19925 0,-0.10959 -0.09963,-0.10959 -0.2391,-0.10959 -0.49813,0 -0.49813,-0.06974 -0.49813,-0.1594 0,-0.11955 0.41843,-1.743464 0.48816,-1.99253 0.12952,0.288917 0.40847,0.637609 0.91657,0.637609 1.15566,0 2.40099,-1.454549 2.40099,-2.919049 0,-0.93649 -0.56787,-1.59403 -1.32503,-1.59403 -0.49813,0 -0.97634,0.35866 -1.3051,0.7472 -0.09963,-0.53798 -0.52802,-0.7472 -0.89664,-0.7472 -0.458282,0 -0.647573,0.38855 -0.737236,0.56787 -0.179328,0.33873 -0.308842,0.93649 -0.308842,0.96638 0,0.09963 0.099626,0.09963 0.119552,0.09963 0.099626,0 0.109589,-0.00997 0.169364,-0.22914 0.169365,-0.70735 0.368618,-1.18556 0.727272,-1.18556 0.16937,0 0.30884,0.0797 0.30884,0.45828 0,0.22914 -0.02988,0.33873 -0.06974,0.5081 L 0.448319,1.21544 Z M 2.20174,-3.10834 c 0.06974,-0.26899 0.33873,-0.54795 0.51806,-0.69739 0.34869,-0.30884 0.63761,-0.37858 0.80697,-0.37858 0.39851,0 0.63761,0.34869 0.63761,0.93649 0,0.5878 -0.32876,1.7335 -0.50809,2.11208 -0.33873,0.697384 -0.81694,1.026151 -1.18556,1.026151 -0.65753,0 -0.78704,-0.826899 -0.78704,-0.886675 0,-0.019926 0,-0.039846 0.02988,-0.159406 l 0.48817,-1.95267 z"
           inkscape:connector-curvature="0" />
      </defs>
      <g
         id="equation_07_g-5"
         style="fill:#006e00;fill-opacity:1">
        <use
           id="use9172-1"
           y="74.719803"
           xlink:href="#equation_07_00-9"
           x="231.118"
           width="100%"
           height="100%"
           style="fill:#006e00;fill-opacity:1" />
      </g>
    </g>
    <g
       title="\[ p \]"
       style="fill:#006e00;fill-opacity:1"
       id="equation_07-3"
       transform="translate(-24.859572,104.57418)">
      <defs
         id="defs9168-2">
        <path
           id="equation_07_00-2"
           d="m 0.448319,1.21544 c -0.079701,0.33873 -0.099627,0.40847 -0.5379828,0.40847 -0.1195512,0 -0.2291402,0 -0.2291402,0.18929 0,0.0797 0.049813,0.11955 0.129514,0.11955 0.2689911,0 0.557908,-0.02989 0.836862,-0.02989 0.328767,0 0.667498,0.02989 0.986298,0.02989 0.04982,0 0.17933,0 0.17933,-0.19925 0,-0.10959 -0.09963,-0.10959 -0.2391,-0.10959 -0.49813,0 -0.49813,-0.06974 -0.49813,-0.1594 0,-0.11955 0.41843,-1.743464 0.48816,-1.99253 0.12952,0.288917 0.40847,0.637609 0.91657,0.637609 1.15566,0 2.40099,-1.454549 2.40099,-2.919049 0,-0.93649 -0.56787,-1.59403 -1.32503,-1.59403 -0.49813,0 -0.97634,0.35866 -1.3051,0.7472 -0.09963,-0.53798 -0.52802,-0.7472 -0.89664,-0.7472 -0.458282,0 -0.647573,0.38855 -0.737236,0.56787 -0.179328,0.33873 -0.308842,0.93649 -0.308842,0.96638 0,0.09963 0.099626,0.09963 0.119552,0.09963 0.099626,0 0.109589,-0.00997 0.169364,-0.22914 0.169365,-0.70735 0.368618,-1.18556 0.727272,-1.18556 0.16937,0 0.30884,0.0797 0.30884,0.45828 0,0.22914 -0.02988,0.33873 -0.06974,0.5081 L 0.448319,1.21544 Z M 2.20174,-3.10834 c 0.06974,-0.26899 0.33873,-0.54795 0.51806,-0.69739 0.34869,-0.30884 0.63761,-0.37858 0.80697,-0.37858 0.39851,0 0.63761,0.34869 0.63761,0.93649 0,0.5878 -0.32876,1.7335 -0.50809,2.11208 -0.33873,0.697384 -0.81694,1.026151 -1.18556,1.026151 -0.65753,0 -0.78704,-0.826899 -0.78704,-0.886675 0,-0.019926 0,-0.039846 0.02988,-0.159406 l 0.48817,-1.95267 z"
           inkscape:connector-curvature="0" />
      </defs>
      <g
         id="equation_07_g-3"
         style="fill:#006e00;fill-opacity:1">
        <use
           id="use9172-5"
           y="74.719803"
           xlink:href="#equation_07_00-2"
           x="231.118"
           width="100%"
           height="100%"
           style="fill:#006e00;fill-opacity:1" />
      </g>
    </g>
    <g
       transform="translate(7.0230114,107.60005)"
       id="equation_03-0-1"
       style="fill:#0000fb;fill-opacity:1"
       title="\[ m \]"
       inkscape:transform-center-x="0.24172691"
       inkscape:transform-center-y="4.3511065">
      <defs
         id="defs8959-3-3">
        <path
           inkscape:connector-curvature="0"
           d="m 0.876712,-0.587796 c -0.029888,0.14944 -0.089663,0.378581 -0.089663,0.428394 0,0.1793273 0.139477,0.268991 0.288921,0.268991 0.11955,0 0.29887,-0.0797011 0.36861,-0.278954 C 1.45455,-0.18929 1.5741,-0.657534 1.63387,-0.9066 l 0.21918,-0.89664 c 0.05978,-0.21918 0.11955,-0.43835 0.16937,-0.66749 0.03985,-0.16937 0.11955,-0.45829 0.12951,-0.49814 0.14944,-0.30884 0.67746,-1.21544 1.62391,-1.21544 0.44832,0 0.53798,0.36862 0.53798,0.69739 0,0.24906 -0.06974,0.52802 -0.14944,0.8269 l -0.27895,1.15566 -0.19925,0.757162 c -0.03985,0.199253 -0.12952,0.537983 -0.12952,0.587796 0,0.1793273 0.13948,0.268991 0.28892,0.268991 0.30884,0 0.36862,-0.249066 0.44832,-0.56787 0.13947,-0.557909 0.50809,-2.012449 0.59776,-2.400999 0.02988,-0.12951 0.5579,-1.32503 1.64383,-1.32503 0.4284,0 0.53798,0.33873 0.53798,0.69739 0,0.56787 -0.41843,1.70361 -0.61768,2.23163 -0.08966,0.2391 -0.12951,0.34869 -0.12951,0.547943 0,0.468244 0.34869,0.816936 0.81693,0.816936 0.93649,0 1.30511,-1.454549 1.30511,-1.534249 0,-0.09962 -0.08966,-0.09962 -0.11955,-0.09962 -0.09963,0 -0.09963,0.02988 -0.14944,0.17932 -0.14944,0.528024 -0.46825,1.235371 -1.01619,1.235371 -0.16937,0 -0.23911,-0.099626 -0.23911,-0.328767 0,-0.249066 0.08967,-0.48817 0.17933,-0.707344 0.18929,-0.51806 0.60772,-1.62391 0.60772,-2.19178 0,-0.64758 -0.3985,-1.06601 -1.1457,-1.06601 -0.7472,0 -1.25529,0.43836 -1.62391,0.96638 C 4.93151,-3.56663 4.90162,-3.90535 4.62267,-4.14446 4.3736,-4.35367 4.05479,-4.40349 3.80573,-4.40349 c -0.89664,0 -1.38481,0.63761 -1.55417,0.86675 -0.04982,-0.56787 -0.46825,-0.86675 -0.91657,-0.86675 -0.458278,0 -0.647568,0.38855 -0.737232,0.56787 -0.179327,0.3487 -0.308841,0.93649 -0.308841,0.96638 0,0.09963 0.099626,0.09963 0.119551,0.09963 0.099627,0 0.109589,-0.00997 0.169365,-0.22914 0.169365,-0.70735 0.368618,-1.18556 0.727277,-1.18556 0.1594,0 0.30884,0.0797 0.30884,0.45828 0,0.20922 -0.02989,0.31881 -0.1594,0.83686 l -0.577838,2.301374 z"
           id="equation_03_00-2-4" />
      </defs>
      <g
         id="equation_03_g-4-7"
         style="fill:#0000fb;fill-opacity:1">
        <use
           height="100%"
           width="100%"
           x="229.25"
           xlink:href="#equation_03_00-2-4"
           y="74.719803"
           id="use8963-8-0"
           style="fill:#0000fb;fill-opacity:1" />
      </g>
    </g>
    <g
       title="\[ n \]"
       style="fill:#fe0000;fill-opacity:1"
       id="equation_06-4"
       transform="translate(-43.531613,114.85908)">
      <defs
         id="defs8753-5">
        <path
           id="equation_06_00-2"
           d="m 0.876712,-0.587796 c -0.029888,0.14944 -0.089663,0.378581 -0.089663,0.428394 0,0.1793273 0.139477,0.268991 0.288921,0.268991 0.11955,0 0.29887,-0.0797011 0.36861,-0.278954 C 1.45455,-0.18929 1.5741,-0.657534 1.63387,-0.9066 l 0.21918,-0.89664 c 0.05978,-0.21918 0.11955,-0.43835 0.16937,-0.66749 0.03985,-0.16937 0.11955,-0.45829 0.12951,-0.49814 0.14944,-0.30884 0.67746,-1.21544 1.62391,-1.21544 0.44832,0 0.53798,0.36862 0.53798,0.69739 0,0.61768 -0.48817,1.8929 -0.64757,2.32129 -0.08966,0.229142 -0.09962,0.348694 -0.09962,0.458283 0,0.468244 0.34869,0.816936 0.81693,0.816936 0.93649,0 1.30511,-1.454549 1.30511,-1.534249 0,-0.09962 -0.08967,-0.09962 -0.11955,-0.09962 -0.09963,0 -0.09963,0.02988 -0.14944,0.17932 -0.19926,0.677463 -0.52802,1.235371 -1.01619,1.235371 -0.16937,0 -0.23911,-0.099626 -0.23911,-0.328767 0,-0.249066 0.08967,-0.48817 0.17933,-0.707344 0.18929,-0.52802 0.60772,-1.62391 0.60772,-2.19178 0,-0.6675 -0.42839,-1.06601 -1.1457,-1.06601 -0.89664,0 -1.38481,0.63761 -1.55417,0.86675 -0.04982,-0.55791 -0.45828,-0.86675 -0.91657,-0.86675 -0.45829,0 -0.647568,0.38855 -0.747194,0.56787 -0.159402,0.33873 -0.298879,0.92653 -0.298879,0.96638 0,0.09963 0.099626,0.09963 0.119551,0.09963 0.099627,0 0.109589,-0.00997 0.169365,-0.22914 0.169365,-0.70735 0.368618,-1.18556 0.727277,-1.18556 0.19925,0 0.30884,0.12952 0.30884,0.45828 0,0.20922 -0.02989,0.31881 -0.1594,0.83686 l -0.577838,2.301374 z"
           inkscape:connector-curvature="0" />
      </defs>
      <g
         id="equation_06_g-6"
         style="fill:#fe0000;fill-opacity:1">
        <use
           id="use8757-7"
           y="74.719803"
           xlink:href="#equation_06_00-2"
           x="230.634"
           width="100%"
           height="100%"
           style="fill:#fe0000;fill-opacity:1" />
      </g>
    </g>
  </g>
</svg>
